<?xml version="1.0" encoding="utf-8"?>
<!-- Generator: Adobe Illustrator 19.0.0, SVG Export Plug-In . SVG Version: 6.00 Build 0)  -->
<svg version="1.1" id="Map" xmlns="http://www.w3.org/2000/svg" xmlns:xlink="http://www.w3.org/1999/xlink" x="0px" y="0px"
	 viewBox="-79 -119.9 799.9 799.9" style="enable-background:new -79 -119.9 799.9 799.9;" xml:space="preserve">
<style type="text/css">
	.st0{fill:#FAE76E;}
	.st1{fill:#F4763D;}
	.st2{fill:#EC7787;}
	.st3{fill:#6DD1C9;}
	.st4{fill:#AF7FB0;}
</style>
<path id="Africa" class="st0" d="M390.7,327v-25.9c1.7-2.2,3.5-4.1,4.9-4.2c4.2-0.2,4.2,4.9,1.4,7.3c-2.8,2.4,2.8,14.1-0.2,15.3
	C394.6,320.4,392.9,324.5,390.7,327L390.7,327z M390.7,262.3v-16.2c0.5-0.1,1.1-0.2,1.6-0.4c4-1.5,8.4-1.8,5.5,5.1
	C396.2,254.3,393.6,258.6,390.7,262.3L390.7,262.3z M401.8,244.3c-1.3,0.4-1.4,1.2-0.4,2.4c1,1.2,2-0.2,2.2-1.3
	C403.9,244.2,402.9,243.7,401.8,244.3L401.8,244.3z M406,255.3c1.2-0.6,2.1-0.1,1.9,1.1c-0.2,1.2-1.2,2.6-2.2,1.3
	C404.6,256.5,404.7,255.7,406,255.3L406,255.3z M408.4,279.3c1.2-0.6,2.1-0.1,1.9,1.1c-0.2,1.2-1.2,2.6-2.2,1.3
	C407,280.5,407.1,279.7,408.4,279.3z M390.7,246.1v16.2c-2.4,3.2-5,6.1-7.1,7.8v-25.7C386,245.9,388.4,246.5,390.7,246.1
	L390.7,246.1z M390.7,301.1V327c-0.8,1-1.8,1.7-2.8,1.9c-3.8,0.7-2.1-8-4.2-10.3l0,0v-7.9c0.5-1.4,1.2-2.6,1.9-3.1
	C386.7,306.6,388.6,303.7,390.7,301.1L390.7,301.1z M383.6,298.4v-3c1-0.3,1.7,0.2,1.4,1.3C384.9,297.5,384.3,298.5,383.6,298.4z
	 M258.2,204.5c-0.2,0.4-0.4,0.7-0.6,1.1v1.7c0.5-0.3,0.8-1,0.9-1.6C258.7,205.1,258.5,204.7,258.2,204.5L258.2,204.5z M383.6,244.5
	v25.7c-0.3,0.2-0.6,0.5-0.8,0.7c-4.4,3.3-5.5,10.9-8,12c-2.6,1.1,0.7,2.9,2.2,5.8c1.5,2.9,1.8,12.4,0,16c-1.8,3.6-5.1,8-8,8.4
	c-2.9,0.4-3.3,5.5-1.1,6.9c2.2,1.5-0.7,4.7-5.1,5.1c-4.4,0.4,0.4,13.5-3.6,13.9s-8.7,5.5-14.6,6.2c-5.8,0.7-12.8,3.3-15.3-1.5
	c-2.6-4.7,1.8-7.7-2.6-12.8s-1.8-9.5-5.1-14.2c-3.3-4.7-6.6-13.1-3.3-17.5c3.3-4.4,4.7-7.7,1.8-8.7c-2.9-1.1,1.5-6.2-2.6-8.7
	c-4-2.6-6.6-9.5-5.1-12.8c1.5-3.3,1.8-8.7-2.9-8.7s-12.4-3.6-17.1-2.2c-4.7,1.5-8.4,2.6-11.7,3.6c-3.3,1.1-9.1-5.5-13.9-10.2
	c-2.8-2.8-7-6.5-9.2-9.7v-6.2c2.2-2.3,1.3-3.2,0-4.8V222c0.5-1,1.1-1.9,1.6-2.6c1.8-2.6,2.9-11.3,6.6-11.7c3.6-0.4,6.2-4.4,6.2-7.7
	c0-3.3,2.6-6.2,6.2-6.9c3.6-0.7,4.4-3.3,10.9-3.3c6.6,0,8.4-3.3,15.3-3.3s12-2.6,11.3,2.9c-0.7,5.5,6.2,6.6,9.8,8.7
	c3.6,2.2,8.7,5.1,10.2,1.8s6.2-2.2,10.2-1.5c4,0.7,10.8,2.2,14.5,1.8l2.8,5.5c-2,1.1,3.6,13.6,6,18.2c2.6,4.7,5.5,12.4,9.8,16.8
	C380.6,242.4,382.1,243.6,383.6,244.5L383.6,244.5z M383.6,295.4c-0.1,0-0.3,0.1-0.4,0.2c-1.3,0.4-1.4,1.2-0.4,2.4
	c0.3,0.3,0.5,0.5,0.8,0.5V295.4L383.6,295.4z M383.6,310.6c-1,2.7-1.4,6.3,0,7.9V310.6z M257.6,205.6c-0.3,0.5-0.6,1.1-1,1.7
	c0.3,0.2,0.7,0.2,1,0V205.6L257.6,205.6z M257.6,222.1v8.8c-0.3-0.4-0.7-0.8-1-1.2C255.3,227.8,256.3,224.7,257.6,222.1L257.6,222.1
	z M257.6,235.7v6.2c-1.5-2.2-2.1-4.2-0.6-5.6C257.2,236,257.4,235.8,257.6,235.7z"/>
<path id="Oceania" class="st1" d="M651.5,369.3v-7.9C654.3,362,654.2,366.4,651.5,369.3L651.5,369.3z M651.5,353.3
	c0.5,1.2,0.9,2.5,1.1,3.5c0.7,4.1,1.5,5.3,4.4,6.3c2.9,1,5.3-7,1.2-8.7c-3.9-1.6-3-8.7-6.7-8.8V353.3L651.5,353.3z M659.6,306
	c1.2-0.6,2.1-0.1,1.9,1.1c-0.2,1.2-1.2,2.6-2.2,1.3C658.2,307.2,658.3,306.4,659.6,306L659.6,306z M664.5,304.3
	c1.2-0.6,2.1-0.1,1.9,1.1c-0.2,1.2-1.2,2.6-2.2,1.3C663.1,305.4,663.2,304.7,664.5,304.3z M570.1,274.9c1.7,0,6,4.1,2.8,4.1
	C569.8,279.1,566.3,274.9,570.1,274.9L570.1,274.9z M651.5,345.6v7.7c-1.4-3.6-3.3-7.3-0.8-7.6C651,345.6,651.3,345.5,651.5,345.6
	L651.5,345.6z M651.5,361.5v7.9l-0.1,0.1c-2.9,3.2-10,6.1-10.9,10.2c-1,4.1-1.9-3.9-2.7-6.1c-0.7-2.2,2.7-4.6,7-5.6
	c4.4-1,0-5.8,6.1-6.6C651.1,361.4,651.3,361.4,651.5,361.5L651.5,361.5z M579.3,274.6c-3.6,0.3,2.4,10,5.7,13.4
	c2.6,3.5,5.4-0.3,7.8-0.9c2.3-0.6,3.5,1.4,8.1,2.2c4.7,0.8-2.7-6-2.3-8.9c0.3-2.8-5-4.3-7.6-4C588.3,276.8,582.1,274.3,579.3,274.6
	L579.3,274.6z M609.4,276.8c1.9,0,8.9,5.4,5.2,5.4C611,282.2,605.6,276.4,609.4,276.8L609.4,276.8z M619.7,286.3
	c3.2-0.5,10.9,3.4,7.1,3.8C623,290.5,614.9,287.5,619.7,286.3L619.7,286.3z M628.7,292.4c1.7,0,6,4.1,2.8,4.1
	C628.4,296.5,624.9,292.4,628.7,292.4L628.7,292.4z M553,288.3c1.2-0.6,2.1-0.1,1.9,1.1c-0.2,1.2-1.2,2.6-2.2,1.3
	C551.6,289.4,551.7,288.7,553,288.3L553,288.3z M583.9,307.8c3.9-0.2,3.6-6.3,3.6-9.7s5.3-4.4,6.6,1.9c1.2,6.3,11.7,19.4,15.5,22.6
	c3.9,3.2,3.2,12.6,1,18.9s-8.5,19.4-14.1,16.5c-5.6-2.9-9-0.7-12.1-5.3c-3.2-4.6-4.4-12.1-5.8-9.7c-1.5,2.4,1.9,3.9-5.1-0.5
	s-11.2-1.9-13.6-1.5c-2.4,0.5-8.3-2.2-9.2,1.5c-1,3.6-4.6,3.9-7.8,3.6c-3.2-0.2-5.6,2.7-7.8,1.2s1.7-3.9-0.7-9.5s-2.2-11.7-3.9-14.6
	c-1.7-2.9,0.5-9.2,6.6-9.5c6.1-0.2,9.7-1.5,9.7-3.6c0-2.2-1.2-3.9,4.4-3.9c5.6,0-0.2-6.8,5.3-6.8s3.9,5.1,6.3,4.1
	c2.4-1,0.5-5.6,3.6-5.6c3.2,0,2.2-4.4,5.1-2.9c2.9,1.5,4.6,3.6,5.6,7.5C578.1,306.5,578.3,307.3,583.9,307.8L583.9,307.8z
	 M614.9,326.6c1.2-0.6,2.1-0.1,1.9,1.1c-0.2,1.2-1.2,2.6-2.2,1.3C613.6,327.8,613.6,327,614.9,326.6L614.9,326.6z M598.3,360.5
	c-3.2,0.9-3.4,2.8-0.9,5.8c2.4,3,4.9-0.4,5.5-3.2C603.3,360.3,601.1,359,598.3,360.5L598.3,360.5z M635.4,313.3
	c3.2,0,8.3,4.9,3.9,5.1C634.9,318.7,630.5,313.3,635.4,313.3L635.4,313.3z M641,303.9c3.2,0.2,7,5.6,3.6,5.6
	C641.2,309.5,638.1,304.1,641,303.9L641,303.9z M645.8,254.3c1.2-0.6,2.1-0.1,1.9,1.1s-1.2,2.6-2.2,1.3
	C644.4,255.4,644.5,254.7,645.8,254.3z"/>
<path id="Asia" class="st2" d="M538.2,264.4c-0.6,4-6.6,14.2-8.7,14.1c-2.1-0.2-5.2-1.9-6.3-4.1c-0.1-0.3-0.2-0.5-0.3-0.6v-0.1
	c-1-1.7-2.3-3.8,0-6v0.1c0.5-0.5,1.3-1.1,2.4-1.6c5.7-3,7.6-8.9,11.2-8.9C538.7,257.1,538.9,260.5,538.2,264.4z M449,263.3
	c0.1-0.2,0.2-0.5,0.3-0.8c0.1-0.5,0-0.9-0.3-1.1c-0.3-0.2-0.8-0.3-1.3-0.1c-0.1,0.1-0.2,0.1-0.3,0.1c-0.5,0.2-0.9,0.4-1,0.7
	c-0.1,0.2-0.1,0.5,0,0.7c0.1,0.3,0.3,0.6,0.6,1c0.2,0.3,0.5,0.5,0.7,0.5C448.2,264.4,448.7,263.9,449,263.3z M461.6,250.2
	c-0.2,0-0.4,0-0.6,0c-3.2-0.5-2.1,5.9,0.6,6.2c0.3,0,0.5,0,0.9-0.1C465.5,255.2,463.9,250.5,461.6,250.2z M489,252.8
	c-0.1,0-0.3,0.1-0.4,0.2c-1.3,0.4-1.4,1.2-0.4,2.4c0.3,0.3,0.5,0.5,0.8,0.5c0.7,0,1.3-1,1.4-1.8C490.6,253.1,489.9,252.5,489,252.8z
	 M509.9,266.5c0-3.7-2.6-7.7-5-10.1v8.3C507.5,266.8,509.9,270.9,509.9,266.5z M522.9,230.1c0.1,0,0.2,0,0.3,0.1
	c2,0.6,1.5-3.8-0.3-4.1c-0.1,0-0.1,0-0.2,0C520.6,226.4,521.1,229.3,522.9,230.1z M522.9,284.4c-0.4,0-0.8,0-1.2,0
	c-5.7-0.2-3.9,2.7,1.2,2.9c0.1,0,0.3,0,0.5,0C528.4,287.3,526.7,284.8,522.9,284.4z M447.7,255.8c0.1-0.2,0.1-0.4,0.2-0.5
	c0-0.4,0-0.8-0.2-1c-0.2-0.4-0.7-0.5-1.3-0.3c-0.1,0-0.3,0.1-0.4,0.2c-1.3,0.4-1.4,1.2-0.4,2.4c0.3,0.3,0.5,0.5,0.8,0.5
	C447,257.1,447.4,256.5,447.7,255.8z M504.9,268c-2.3-1.9-4.8-3-7-2.8c-5.5,0.4,0.8,9,4.4,13.2c0.7,0.9,1.6,1.7,2.6,2.5v0.1
	c4,3.1,9.4,5.2,9.2,0.7C513.9,277.9,509.7,271.6,504.9,268z M449.1,265.9c-1.4,0.4-1.4,1.2-0.4,2.4c0.1,0.1,0.2,0.2,0.3,0.3
	c0.9,0.7,1.7-0.6,2-1.6C451.2,265.8,450.3,265.3,449.1,265.9z M588.5,72.3c-3.8,0.4-3.2,3.8,0.9,3.6c0.8,0,1.5-0.2,1.9-0.5v-0.1
	c0.9-0.6,0.8-1.6,0-2.3v0.1C590.8,72.5,589.8,72.2,588.5,72.3z M584.7,67.1c1.9-0.2,4.8-0.3,6.6-1.3c1-0.5,1.6-1.2,1.5-2.3
	c0-1.1-0.6-1.7-1.5-2c-1.6-0.6-4.4-0.2-7.1,0c-1.6,0-2.7,0.4-3.2,0.9c-0.7,0.7-0.6,1.7,0,2.6C581.8,66.2,583.4,67.3,584.7,67.1z
	 M600.1,68.3c0.3,0,0.6,0.1,0.9,0c3.7,0,1.2-2.9-0.9-3c0,0-0.1,0-0.2,0C595.9,65,597,67.8,600.1,68.3z M668.5,86.6
	c0.2,0.1,0.5,0.1,0.8,0.1c4.1,0,1.4-3.7-0.7-3.6h-0.1C664.2,82.9,665,86.2,668.5,86.6z M631,88.4c0.3,0.1,0.6,0.2,0.9,0.2
	c2,0,1.3-2.3-0.9-2.6c-0.2,0-0.4,0-0.6-0.1C627.7,85.9,629.1,87.9,631,88.4z M446.4,246.4c0.3-0.4,0.4-0.9,0.5-1.3
	c0.1-0.7-0.1-1.1-0.5-1.3v0.1c-0.3-0.2-0.8-0.1-1.3,0.2c-1.3,0.4-1.4,1.2-0.4,2.4C445.3,247.3,446,247,446.4,246.4z M552.5,76.8
	c0.2,0.1,0.4,0.3,0.6,0.4c1.3,0.8,2.5,1.3,3.9,1.6c1,0.2,2,0.4,3,0.5v-3.4c-0.9-0.2-1.8-0.8-2.9-1.3v-0.1c-1.4-0.7-2.7-1.6-4-2.1
	c-1.1-0.4-2-0.6-2.9-0.1C548.3,72.2,549.4,74.6,552.5,76.8z M489,48.7c0.4,0.2,0.9,0.3,1.5,0.3c3.8,0,4.3-6.1,7.7-6.8
	c3.4-0.7-6.3-1.1-8.8,0.7c-0.1,0-0.3,0-0.4,0V43C486.7,43.1,486.8,47.3,489,48.7z M562.7,79.6c4.1,0.5,1.6-4-1.5-3.7
	c-0.4,0-0.7,0-1.1-0.1v3.5H560l0,0C560.8,79.4,561.7,79.5,562.7,79.6z M447.7,258.7c0.1,0.2,0.3,0.4,0.5,0.7
	c0.3,0.3,0.5,0.5,0.8,0.5c0.7,0,1.3-1,1.4-1.8c0.3-1.1-0.4-1.6-1.4-1.3c-0.1,0-0.3,0.1-0.4,0.2c-0.4,0.1-0.7,0.3-0.9,0.5
	C447.5,257.8,447.5,258.2,447.7,258.7z M591.3,165.5c0.8,0.4,1.5,0.7,1.7,0.4c0.5-0.7-0.5-2.3-1.7-3.4c-0.8-0.8-1.8-1.3-2.5-1.3
	C586.7,161.4,589.3,164.3,591.3,165.5z M629.3,125.5c-3.6-0.3-4.7,3.2-8.8,6.8c-4.1,3.5-3.4,4.3-2.6,6.4c0.9,2-0.4,5-0.1,7.5
	c0.2,2.5,6.5,2.3,8.3-0.4c1.8-2.8,0.6-5.5,4-3.3c0.4,0.2,0.7,0.3,0.9,0.3c2.2,0.2,0.8-7.2,2.7-7.5c1.6-0.2-0.4-6.7-2.7-9
	C630.4,125.7,629.9,125.3,629.3,125.5z M593.2,169.1c-0.9-0.3-0.9-1.4-1.8-2.4c0,0,0,0-0.1-0.1c-0.3-0.3-0.7-0.5-1.2-0.7
	c-1.9-0.9,0,3.5-0.6,4.9c-0.7,1.5-2.8-0.3-2.6,1.2c0.2,1.5,1.4,3.7,2.4,3.8c1,0.1,1.2-0.5,0.2-2.6c-0.7-1.8,0.7-0.3,1.7,0.6v0.2
	c0.1,0,0.2,0.1,0.3,0.2c0.8,0.7,1.6-1.7,3.5-2.8C596.9,170.3,594.5,169.4,593.2,169.1z M591.3,142.4c-0.1-0.1-0.2-0.1-0.4-0.1
	c-2.7-0.5-1.4,1.7,0.4,2.3c0.3,0.1,0.5,0.1,0.7,0.2C594,144.9,593.6,142.7,591.3,142.4z M636.2,127.1c-0.1-0.1-0.3-0.1-0.5-0.1
	c-2.5,0.2-1.3,2.3,0.5,2.8c0.3,0.1,0.5,0.1,0.8,0.1C639,129.9,638.1,127.5,636.2,127.1z M593.1,155.9c1.3,0.2,0.6-3.6-1.8-3.9v-0.1
	c-0.1,0-0.2,0-0.3-0.1c-1.9-0.6-1.9,4.6,0.3,6.4v0.1C593.7,160.1,591.8,155.5,593.1,155.9z M682.8,99.9c-5.4,0-9.5-2.9-13.1-5.8
	c-0.4-0.3-0.8-0.6-1.2-0.8c-3.6-2.1-8.8-2.3-12.7-4.3c-4.4-2.2-9.5-3.6-6.6,0.4c2.9,4,3.3,4.7-3.6,2.6c-0.9-0.3-1.6-0.5-2.2-0.6
	v-0.1c-4.2-1.1-2.7,0.5-6.3,0.4c-0.3-0.1-0.6-0.1-0.9-0.1v-0.1c-1.9-0.1-3.6,0.3-5.3,0.6h0.1v0.1l-0.1-0.1c-1.3,0.3-2.3,0.5-3.5,0.5
	c-2.9,0-5.1-7.3-8.4-7.3c-3.3,0-9.8,0.4-13.5-2.9c-2.7-2.4-4.2-1.9-5.4-0.5c-0.4,0.5-0.8,1-1.2,1.6c-1.5,2.2-4.1-0.7-2.6-4
	c0.9-1.9-1.8-1.8-5-0.9c-2.4,0.7-5,1.8-6.7,2.7c-1.4,0.9-2.5,1.4-3.7,1.6c-1,0.2-1.8,0.3-3.1,0.3c-0.3,0-0.7,0-1.2-0.1v0.1
	c-0.7-0.1-1.5-0.1-2.5-0.1c-3.3,0-5.5,2.1-7.2,2.6c-1.2,0.3-2.1-0.1-3-2.2c-0.7-1.9-2.1-2.9-3.9-3.5c-0.9-0.3-1.8-0.5-2.9-0.7
	c-1.2-0.2-2.6-0.4-4-0.6c-1.8-0.3-3.7-0.7-5.5-1.4c-0.2,0-0.3-0.1-0.4-0.1c-6.4-2.4-11.1-1.4-18.6-2.8c-2.4-0.5-4.3-0.5-5.7-0.2
	c-3,0.6-4.3,2.6-6.3,4.6c-2.9,2.9-7.3,1.8-5.1-1.8c2.1-3.6,6.7-6.5,11.4-7.6v-0.1l0.3-0.1c4.7-1.1,8.7-6.2,4-6.2
	c-1.5,0-2.9-0.2-4.3-0.4v0.1c-3.2-0.5-6.2-1.3-9.1-1.1c-4.4,0.4,2.6-5.8-4-5.8c-4.5,0.4-3.7,4.6-4.7,7.7l-0.2,1v-1
	c0,0.2-0.1,0.4-0.1,0.4c-1.3,3.1-5.8,0-8.2,1.3c-2.1,1.1-3-1.2-7.5-0.5v0.2l-0.1-0.1c-0.5,0.1-1,0.2-1.5,0.4
	c-5.8,1.4-12.6,4-14.7,6.1s-2.9,2.6-7.3,3.1c-4.3,0.6-2,4.8,1.4,6.3c3.5,1.5,1.5,7.5,3,8.6c1.5,1,3.8,4.4,3.8,7s-1.3,1.7-3.1-1.1
	c-1.8-2.8-6.4-7-7.2-9.1c-0.4-1.1-0.9-2.6-1.8-3.6c-0.8-1-2-1.5-3.7-1.1c-3.6,0.7,2.2,0.3-5.1,3.6c-6.6,3-1.6-5.3-3.8-5.1v-0.1
	c-0.2,0-0.6,0.2-1,0.4c-0.1,0.1-0.2,0.1-0.3,0.2c-0.6,0.5-1,1-1.3,1.5c-0.5,1.1-0.3,2.3,0,3.6c0.4,1.9,1.2,3.9,0.5,5.3
	c-0.5,1-0.1,1.5,0.8,1.8c0.4,0.1,0.8,0.1,1.3,0.2v0.1c1.6,0.2,3.9,0.3,5.9,1.2c4,1.8,7.2,7.3,3.6,7.3s-6.1-4.4-8.7-4.4
	c-0.3,0-0.6,0.1-0.8,0.2c-0.7,0.5-0.5,1.9-1.3,3.2c-0.3,0.5-0.7,1-1.3,1.5c-0.4,0.3-1,0.7-1.7,0.9c-5.1,2.2-6.9-0.4-4.4-3.6
	c2.6-3.3,4-5.5,2.9-11.3s0-11.3-3.6-10.6c-3.6,0.7-6.2,9.8-6.2,13.1c0,3.3,2.6,4.4-1.8,4.4s-5.8-4.4-9.1-4.4s-0.7,3.6-4,3.6
	c-2.7,0-6.9,1-10.9,2.4c0.2,0.1,0.5,0.1,0.7,0.2c11.1,2.5-10.5,19.1-8.6,28.3c1.8,9.2,0,16.6,6.2,16.6c6.2,0,3.1,10.5-3.7,9.2
	c-6.4-1.2-8.9,4.8-5.1,13.8c1.7,0.3,4.1-0.9,5.9,1.1c1.2,1.4-1.1,4,0.3,5.9c1.7,2.3,7.3,3.8,8.8,4.5c9.7,4.3-4.3,11.6-11.8,9.8
	c-8.8-2.1-18-5.2-26.7-9.7c-3-0.6-5.9-1.9-8.3-1.9c-3.3,0-6.2,0.7-9.5,2.2c-3.3,1.5-5.1,4.7-6.2,8.4c-1.1,3.6,1.5,4.7,7.7,4.7
	c6.2,0,11.3,0.7,10.9,4c-0.4,3.3-4,6.6-7.7,6.9h-0.1l2.8,5.5c0.1,0,0.1-0.1,0.2-0.1c2.6-0.4,5.1,4,7.7,10.9
	c2.6,6.9,9.8,15.3,13.1,23c3.3,7.7,7.3,1.8,10.6-0.4c3.3-2.2,13.1-4,14.2-6.9c1.1-2.9,8.4-11.7,6.2-14.2c-2.2-2.6-6.6-3.6-10.2-2.2
	c-3.6,1.5-6.9-5.1-9.1-8.7c-2.2-3.6,2.6-4.7,5.1,1.1c2.6,5.8,6.6,2.6,10.6,5.5c4,2.9,2.9,0,9.5,0s6.2-0.7,11.3,3.6
	c5.1,4.4,8,5.8,11.3,5.8s-1.5,10.9,1.8,14.9c0.3,0.4,0.6,0.8,0.9,1.3v0.1c0.4,0.6,0.9,1.3,1.3,2s0.9,1.5,1.3,2.2v0.1
	c2.1,3.7,4.2,7.5,5.9,7.7c2.6,0.4,4.4-2.6,5.5-6.2c1-3.1,0.3-7.7,1.2-9.3v-0.2c0.1-0.3,0.3-0.4,0.6-0.5c1.9-0.3,7.7-5.8,12.8-8.7
	c5.1-2.9,9.2-0.4,12.8,1.8c0.5,0.4,0.9,0.8,1.2,1.3h0.1c1.5,2.8-0.2,7.4,3.5,7.4c4.3,0,7.3,3.3,4.7,8.4c-2.6,5.1-1.1,6.9,1.8,8.7
	c2.9,1.8,1.8,8,4.7,9.5c0.3,0.2,0.7,0.5,1.1,0.8v-8.3c-1-0.9-1.9-1.6-2.6-1.9c-2.6-1.1-2.6-6.6-2.6-9.5c0-2.3,2.7-0.8,5.2,1.5v-0.2
	l0.2,0.2c0.7,0.7,1.4,1.5,2.1,2.2c2.9,3.3,5.8,5.5,8,1.5c2.2-4,6.2-5.8,5.8-8c-0.4-2.2-2.6-5.8-5.5-10.9c-2.5-4.5,2.6-7.3,7.4-7.9
	c0.7-0.1,1.4-0.1,2.1-0.1c5.1,0,11.3-5.1,14.2-6.6c3-1.4,3.7-5.8,6.6-8.7c2.9-3-0.4-9.5-3.3-12.8c-3-3.3,2.1-11.3-1.5-11.3
	s-2.5-5.8,3.3-5.8c1.1,0,2.1,0.1,2.9,0.3c3.2,0.8,3.7,3.1,4,5.1c0.1,1,1,1.8,1.9,2.5c1.4,1.1,3,2.1,3.2,4c0.1,0.9,0.4,1.8,0.7,2.7
	v0.2c0.6,1.3,1.6,2.3,3,2.6c0.6,0.2,1.3,0.2,2.1,0c3.6-0.7,0.3-6.2-1.5-9.8c-0.2-0.4-0.4-0.8-0.6-1.1c-1.9-2.8-4.4-3.7-0.8-4.4
	c0.3-0.1,0.6-0.1,0.8-0.2c3.1-0.8,2.6-2.6,4.3-5.6c0.7-1.3,1.6-1.6,2.7-1.7c1.9-0.2,4.2,0.5,7.1-0.9c0.9-0.5,1.8-1.1,2.5-1.8
	c0.4-0.4,0.8-0.8,1.2-1.3c1.3-1.6,2.3-3.6,3.2-5.5c0.6-1.4,1.3-2.7,1.9-3.8c2.2-3.6,4.4-8.4,3.3-13.1c-0.8-3.6-2.7-5.1-5.2-5.3
	c-0.8,0-1.6,0-2.5,0.2c-0.2,0.1-0.5,0.1-0.7,0.1c-0.4,0-0.8-0.1-1.2-0.3c-1.4-0.6-1.6-2.4,0-3.5c0.3-0.2,0.7-0.4,1.2-0.5
	c0.2-0.1,0.4-0.2,0.7-0.2c0.9-0.1,1.7-0.5,2.5-0.9v-0.1c2.8-1.8,4.7-5.4,6.2-8.5c0.8-1.7,2.3-2.2,4.1-2.1c2.3,0.1,5.1,1,7.6,1
	c0.4,0,0.8,0,1.2,0c3.7-0.2,6.5-1.3,9.8,0.4c3.6,1.8,5.8-2.9,8.7-7.3c2.9-4.4,6.9-3.3,8-1.1c0.6,1.3,2.4,1.2,4.3,0.5
	c1.4-0.5,2.7-1.2,3.6-1.9l1.2-0.6c0.2,0,0.3-0.1,0.4-0.1v0.1c1.7-0.1,3,1.7,0.1,3c-4,1.8-4.1,3.2-0.1,4v0.1h0.3c3.9,0.6,4.6-1,7-1.4
	v0.1c0.3-0.1,0.7-0.1,1.1-0.1c3.3,0,5.5,4.4,7.7,1.1c2.2-3.3,4-6.9,9.8-6.9c5.8,0,5.8-2.2,0.7-4.7c-5.1-2.6-6.6-6.2-3.3-4.4
	c3.3,1.8,7.7,4.4,6.6,1.1c-0.7-2,0.6-3.2,2.5-3.4v-0.2c1.1-0.1,2.5,0.2,3.8,0.8c3.3,1.8,3.3,5.5,6.9,4.4
	C682.8,108.6,688.3,99.9,682.8,99.9z M643.4,139.8c-0.6-0.5-1.3-0.8-1.8-0.8c-1.3,0,0.1,2.1,1.8,3.1c0.6,0.3,1.1,0.5,1.6,0.5
	C646.7,142.7,645.1,140.9,643.4,139.8z M547.2,274.5c-1-1-2.1-1.8-2.7-1.7c-2.3,0.1,0,4.3,2.7,5.1v-0.1c0.3,0.1,0.5,0.2,0.8,0.1
	C549.9,277.9,548.7,275.9,547.2,274.5z M547.2,217c-2.9-0.4-2.2,4.8,0,5.2v-0.1C549.4,222.4,550.2,217.2,547.2,217z M560,211.8
	c-0.1,0.1-0.2,0.2-0.4,0.3c-1.3,0.4-1.4,1.2-0.4,2.4c0.3,0.3,0.5,0.5,0.8,0.5v-0.1c0.7,0.1,1.3-0.9,1.4-1.8
	C561.7,212,561,211.5,560,211.8z M553.1,251.4c-0.3,0.2-0.5,0.3-0.8,0.5c-2.7,0.8-2.9,2.4-0.8,4.9c0.5,0.7,1.1,1,1.6,1v-0.1
	c1.4,0.1,2.6-1.9,3-3.7C556.5,251.9,555.1,250.8,553.1,251.4z M547.2,238.7c-0.4-0.2-0.9-0.3-1.2-0.3c-2.3,0.1-0.6,3.9,1.2,4.1
	c0.3,0,0.6-0.1,1-0.3C549.8,241,548.7,239.3,547.2,238.7z M546.3,233.8c0.3,0.1,0.6,0,0.9,0c2.2-0.4,1.6-3.5,0-4.7
	c-0.4-0.3-0.9-0.5-1.4-0.5C541.7,228.7,542.3,233.3,546.3,233.8z M589.3,176.7c-1.5-0.4-1.5,2.2-2,4.1c-0.5,1.9-2,1-3.2,3.1
	c-0.7,1.4-1.8,1.2-3.1,1.2V185c-0.7,0-1.5,0-2.3,0.3c-0.4,0.2-0.7,0.5-0.9,0.7v0.1c-0.8,0.8-0.8,1.7,0,1.9v-0.1c0.3,0,0.7,0,1.2-0.2
	c0.9-0.3,1.5-0.3,2-0.1v0.1c0.9,0.3,1.3,1.2,1.7,2c0.6,1.3,1.6,1.4,1.9,0.4c0.3-0.9,1.5-1.1,2.8-1.4s2.3-2.1,2.5-3.7
	c0.1-1.6,0.4-3.2,1.2-4.2c0.1-0.1,0.2-0.3,0.2-0.5v-0.1c0.1-0.2,0.1-0.4,0-0.6C591.2,178.3,590.2,176.7,589.3,176.7z M576.6,189.9
	c-0.1-0.1-0.3,0-0.5,0c-2-0.4-1.5,5.4,0.5,4.6c0.2-0.1,0.4-0.2,0.6-0.4c0.3-0.2,0.4-0.4,0.6-0.6c1-1.2,0.7-2.4,0-3.1
	C577.5,190.1,577.1,189.9,576.6,189.9z M581,189.3c-1.4,0.1-1,3.5-0.1,2.5l0.1-0.1c1-1.1,1.2-1.4,0.5-2.4
	C581.3,189.2,581.1,189.2,581,189.3z M567.2,196.5c-0.1-0.1-0.1-0.1-0.2-0.1c-1.4-0.6-2.8,1.8,0,3.3
	C569.9,201.4,568.2,196.9,567.2,196.5z"/>
<path id="Europe" class="st3" d="M427.7,66.5c-4.5,0-15.2,9.1-16.5,13.6c-1.1,4.1-0.9,9.5-4.2,7.5c-0.3-0.2-0.7-0.5-1.2-0.9
	c-4.4-4.1-4.5-12.7,1.2-14h0.1c5.8-1.2,3.3-10.3,11.5-10.3s3.3-4.5,12.8-2.1C436.8,59.9,432.2,66.5,427.7,66.5z M252.6,197.2
	c-1.3,0.4-1.4,1.2-0.3,2.4c1,1.3,2-0.1,2.2-1.3C254.7,197.1,253.8,196.6,252.6,197.2z M294.2,135.7L294.2,135.7c0.7,0,1.3-1,1.4-1.9
	c0.3-1.1-0.4-1.6-1.4-1.3v0.1c-0.1,0-0.3,0.1-0.4,0.2c-1.3,0.4-1.4,1.2-0.4,2.4C293.7,135.5,293.9,135.7,294.2,135.7z M320.2,51.3
	c2.5-2.9,12.8,1.2,7.4,1.6c-5.4,0.4-4.5,3.3,0.4,7c4.9,3.7,1.6-6.2,7.4-2.1c5.8,4.1,11.1-2.9,7-5.8c-4.1-2.8-1.6-4.9-10.3-4.9
	c-6.6-2.5-4.9-2.9-12.3-2.8C312.4,44.3,317.7,54.2,320.2,51.3z M295.8,147.4c0.3,0.3,0.5,0.5,0.8,0.5v-0.1c0.7,0.1,1.3-0.9,1.4-1.8
	c0.3-1.1-0.4-1.6-1.4-1.3v0.1c-0.2,0-0.3,0.1-0.4,0.2C294.9,145.4,294.8,146.2,295.8,147.4z M256.7,204.5c-1.3,0.4-1.4,1.2-0.3,2.4
	c1,1.3,2-0.1,2.2-1.3C258.8,204.4,257.9,203.9,256.7,204.5z M285.9,151.5c1.2-0.5,2.7-1,4.3-1.1c5.3,0-0.4-9,0.4-11.9
	c0.7-2.7,0.4-9.7-4.7-9.5c-0.3,0-0.5,0.1-0.8,0.1c-3.7-0.4,3.3,12.7-1.6,14.8c-4.9,2.1-4.5,1.6-3.7,7
	C280.4,154.7,282.7,152.9,285.9,151.5z M407.1,108.7c3.9-5.8,6.9-10.8,1.1-12.1c-0.3-0.1-0.5-0.1-0.7-0.2l-0.5,0.2v0
	c-0.7,0.2-1.3,0.5-1.9,0.7c-4.7,1.8,1.5-3.3-3.6-2.2c-5.1,1.1-8.7,4-11.7,6.6c-2.9,2.6,0.4-6.9-3.6-6.9s1.5,8.7-2.6,8.7
	c-4,0-7.7,0.7-5.1,2.9c2.6,2.2-1.5,1.8-5.5,0.7c-4-1.1,1.5,2.6-0.4,3.6c-1.8,1.1-5.8-0.7-8-3.3c-2.2-2.6-6.6-4.4-4.4-6.2
	s5.8,1.5,11.7,1.5c5.8,0,4.7-6.2,0-6.9s-4.4-2.6-8.7-5.8c-4.4-3.3-6.6-2.6-12.4-5.1c-5.8-2.6-13.1,4-18.2,5.1
	c-5.1,1.1-12,10.6-14.9,14.6c-2.9,4-8,7.3-11.7,11.3c-3.6,4-0.7,11.3,2.6,16.4c3.3,5.1,2.9-1.1,5.5-2.9c2.6-1.8,4.7,2.2,5.8,5.8
	c1.1,3.6,3.3-1.8,5.8-1.8c2.6,0,3.6-3.3,6.6-6.2c2.9-2.9-2.6-6.6-1.1-10.6s5.8-5.8,6.9-9.8s8.7-2.6,5.8,0.7
	c-2.9,3.3-8.4,8.4-6.6,12.8c1.8,4.4,5.5,1.8,9.8,1.1c4.3-0.7,4.7,2.2,1.1,4c-3.6,1.8-8,0-4.7,3.3s-0.4,2.9-4.7,2.9
	c-4.4,0,0.7,4.4-2.2,6.9c-2.9,2.6-5.8-0.7-9.8-0.7s-5.1,1.8-9.8,1.8s-2.9-3.3-5.8-3.3c-2.9,0-2.2,5.5-4.7,8c-2.2,2.2-5.8,5-9.6,6.4
	l-0.3,0.3v-0.2c-0.6,0.2-1.1,0.4-1.7,0.5c-0.3,0.1-0.5,0.1-0.7,0.2c-3.8,0.8-4.8-0.3-6.6,2.7c-1.8,3.3-2.9,7.3,0.4,10.2
	c2.7,2.4,0.9,5.6-2.1,6.6v0.1c-0.6,0.2-1.2,0.3-1.9,0.3c-3.9,0-4.7-0.7-8-0.7v16.9c1.8,0,4-0.3,5.5,0.6c1.5,1,3.1,0.9,4.4,0.4v-0.1
	c1.2-0.4,2.4-1.2,3.2-1.9c1.8-1.5,2.9-1.1,2.6-3.6c-0.3-1.8,1-2.5,2.5-2.8v0.1c0.6-0.1,1.2-0.1,1.8-0.1c0.2,0,0.4,0,0.6-0.1v-0.9
	l0.3,0.7c1.7-0.6,2.3-3.9,1.3-7.6c-1.1-4,5.8-2.6,11.7-2.6c5.9,0,6.6,4,10.6,5.5s4.4,5.1,4.4,10.2c0,5.1,4-1.8,4.7-4
	c0.7-2.2,2.2-7.3-0.7-7.3c-2.9,0-3.6-1.1-6.2-3.6c-2.6-2.6-0.4-4,2.2-1.8c2.6,2.2,3.6,3.3,5.5,5.5c1.8,2.2,3.3,4.4,5.1,8
	c1.8,3.6,3.3,7.3,6.2,5.8c2.9-1.5-0.4-6.9,2.6-6.6c2.9,0.4,6.2-1.8,7.7-4.7c1.5-2.9,0.4-3.6,0.4-8c0-4.4,8-6.9,9.1-4
	c1.1,2.9,5.8-1.8,9.1-3.6c3.3-1.8,4.4,0,2.6,1.8c-1.8,1.8-1.1,5.1,2.9,7.3s5.5,5.8,1.5,6.2c-1.8,0.2-2.9,0-4-0.2
	c6.5,3.3,15.7,7.1,22,8.2c-3-1.9,0.5-4.4-3.3-7.8c-4.9-4.3-3.7-8,1.2-11.7c1.4-0.2,2.6-0.3,3.6-0.4c-3.9-9-1.3-14.9,5.1-13.8
	c1.9,0.4,3.6-0.3,4.8-1.3v0c0,0,0.1-0.1,0.1-0.1c0,0,0,0,0,0v0c2.5-2.4,2.8-6.5,0-7.5v-0.1c-0.4-0.1-0.8-0.2-1.2-0.2
	c-6.2,0-4.3-7.4-6.2-16.6c-0.9-4.5,3.7-10.6,7.4-16.1V108.7z M278.2,147.7c1.6-3.7,1.6-10.3-1.6-9.9c-0.2,0-0.4,0-0.5-0.1l-0.1,12.1
	C276.8,149.5,277.7,148.9,278.2,147.7z M272.8,146.4c-0.5,2.6,1.4,4,3.2,3.4v-12.1C270.9,137.3,273.6,142.8,272.8,146.4z
	 M259.1,195.6c-1.3,0.4-1.4,1.1-0.3,2.4c1,1.3,2-0.1,2.2-1.3C261.2,195.5,260.3,195,259.1,195.6z M272,177.2
	c-1.8,3.3,0.7,4.7,0.7,8.4c0,1.8,1.5,2,3.3,2v-17c-0.1,0-0.2,0-0.4,0C272,170.6,273.8,173.9,272,177.2z"/>
<path id="America" class="st4" d="M86.2,63.7l-0.1,5.8c-0.2,0-0.4,0-0.6-0.1C81.6,69.1,81.9,63.3,86.2,63.7z M97.9,71.2
	c3.8,0-1.1-2.7-4-3.4v0v3C95.2,71,96.6,71.2,97.9,71.2z M86.2,91c-1.2,0.6-1.1,1.7,0,2.6c1.1,0.9,3.1,1.7,5.8,1.7
	c0.8,0,1.4-0.1,1.9-0.2c1.6-0.4,1.2-1.5,0-2.4c-1.3-1.1-3.6-2.1-5.5-2.1C87.4,90.6,86.7,90.8,86.2,91z M91.7,80.7
	c-2,0.3-0.2-7-4.1-7c-0.5,0.1-1,0.3-1.4,0.4v0.1c-2.1,0.7-2.7,2.1-1.2,3.3c1.7,1.2-0.3,2.2-3.3,2.3v-0.1c-0.2,0.1-0.4,0.1-0.6,0
	c-1.9,0-1.1,2,0.6,3.7v0.1c1.2,1.2,2.9,2.3,4.5,2.5v-0.1c0.2,0.1,0.4,0.1,0.6,0C90.9,85.9,93.8,80.4,91.7,80.7z M96.6,57.4
	c-0.9,0-2,0.7-2.7,1.7v0.1c-0.7,1.1-1.1,2.5-0.9,4c0.1,0.5,0.4,0.8,0.9,1c2.1,0.7,7.1-2.1,4.8-2.1C95.9,62.1,99.5,57.4,96.6,57.4z
	 M75,70.1c2.9-0.4,3.2-1.6,0-1.7V70.1z M98.7,80.8c0.8-1.6,4.9-2.1,6-4.7c1-2.6-2.9-2-6-2c-4.4,0.3-4.1,3.1-3.1,5.7
	C96.6,82.4,97.9,82.4,98.7,80.8z M51.7,91.1v-1.5C50.5,90.1,50.6,90.6,51.7,91.1z M75.6,62.4c-0.2,0-0.4,0-0.6,0
	c-3.5,0.2-2.5,2.1,0,2.7c0.5,0.1,0.9,0.2,1.4,0.1C80,65.2,79.2,62.4,75.6,62.4z M154.4,231c-5.2-0.4-2.5,2.1,1.6,2.3
	c0.9,0.1,1.5,0,1.8-0.2c0.4-0.2,0.3-0.6,0-0.9C157.2,231.6,155.8,231,154.4,231z M161.7,165.5c-0.6,0.1-1,0.3-1.3,0.6
	c-0.7,0.6-0.6,1.6,0,2.4c0.5,0.7,1.4,1.4,2.6,1.4C165.8,169.9,165.1,164.5,161.7,165.5z M174.8,151.3c-0.2-0.1-0.5-0.1-0.7-0.1
	c-2.2-0.2-0.2,0-2.1,4.5c-1.5,3.5-0.5,4.5,2.1,5.6c1,0.4,2.3,0.9,3.8,1.7c5.2,2.3,6.3-1,4.7-4.4C181,155.2,180.2,151,174.8,151.3z
	 M125,71.9c1.2-0.2,2.3-0.6,3.1-1.2c1.8-1.2,0-2.2-3.1-2.9c-1.6-0.3-3.6-0.7-5.7-0.8l-0.1,5.1C121.3,72.2,123.3,72.2,125,71.9z
	 M157.8,168.1c-0.2,0.1-0.3,0.1-0.5,0.2c-2.1,0.4-1.3,2.8,0.5,3.2c0.1,0,0.3,0,0.5,0C160.3,171.5,159.9,168,157.8,168.1z
	 M133.1,57.4c0.2-0.1,0.4-0.1,0.6-0.1c2.7,0,0.3-9.3,4.1-9c2,0.1,5-0.6,7.8-1.8v0.1c2.7-1.2,5.2-2.8,6.4-4.5
	c1.5-2.2,3.3-3.8,5.8-5.2V37c0.8-0.5,1.7-0.9,2.6-1.3v-0.1c0.9-0.4,1.9-0.8,3-1.2c2.8-1,0.7-2-3-2.7v0.1c-0.8-0.2-1.7-0.3-2.6-0.4
	c-3.6-0.5-7.9-0.7-10.6-0.3c-0.6,0-1.1,0.1-1.6,0.1v-0.1c-5,0.2-5.1-1.5-10.2-1.5c-0.8,0-1.5,0-2.3,0c-2.7,0.1-5.4,0.8-8,1.6v11
	c3.7,0.5,3.3,2.1,0,3.1v18.9C128.5,63,130.9,58.2,133.1,57.4z M133.1,223.6c-0.2,0-0.5,0-0.7,0c-2.8,0-1.7,1.9,0.7,2.7
	c0.6,0.2,1.4,0.4,2.2,0.3C138.6,226.6,136.3,223.8,133.1,223.6z M117.8,106c-3.8,0.7-6.2,2.8-4.1,6.9c1.3,2.6,3.2,1.2,5.7,0.2h-0.1
	c0,0,0-6.8,0-6.8C118.8,106.1,118.3,106,117.8,106z M157.8,104.5c0.8,0,1.7,0.2,2.6,0.4c0,0,0.1,0.1,0.3,0.1c4,1.2,3-3.8-0.3-6.4
	c-0.7-0.5-1.4-0.9-2.2-1.2c-0.1-0.1-0.3-0.1-0.4-0.2c-4.3-2.1-2.5-10.2-7.9-11.6c-1.1-0.3-2.6-0.7-4.3-1.1
	c-4.5-1.1-10.2-2.8-12.4-4.1v10.7c1.7,0.5,3.3,1.2,4.7,2.2c4.8,3.5,4.8,3.5,1.7,5.9c-3.1,2.4-1.8,6.3-6.5,6.9V106
	c-0.2,0-0.3,0-0.5,0c-4.6,0.3-4,4.3,0.5,5.3v0.1c0.5,0.1,1,0.2,1.6,0.2c2.9,0.1,7.1,1.3,10.9,2.5c3.9,1.2,7.5,2.6,9.2,3.3
	c1.1,0.4,2.2,0.2,3-0.5c1.4-1.2,1.9-3.9,0-6.4c-0.3-0.3-0.6-0.7-1-1C153.3,106.2,154.7,104.4,157.8,104.5z M123.3,117.8
	c2.1-0.8,2.6-4.1-1.8-3.1c-1.3,0.3-2,0.7-2.2,1.1c-0.1,0.2-0.1,0.4,0,0.6C119.7,117.4,122,118.3,123.3,117.8z M133.1,213.9
	c-0.5-0.2-1.1-0.3-1.6-0.3c-3.2,0.5-3.8,3.9-1.8,5c1.1,0.6,2.2,0,3.4-0.4c1-0.3,2.1-0.4,3.4,0.4
	C139.2,220.2,136.6,215.2,133.1,213.9z M125,110.6L125,110.6c-1.1-1.6-3.4-3.5-5.6-4.3v6.7c1.4-0.5,2.8-1,4.6-0.5
	c0.4,0.3,0.7,0.3,1,0.2C126,112.7,125.8,111.8,125,110.6z M145.6,227.9c-5.5,0.5-2.9,4.3,0,4.8c0.2,0,0.4,0,0.6,0
	c3.2,0,3.6-5,0.5-4.8C146.3,227.9,145.9,227.9,145.6,227.9z M86.2,63.7v5.8h-0.1c2.5,0.3,5,1,7.7,1.4v-3.1h0.1
	c-0.4-0.1-0.8-0.2-1.2-0.2C90.4,67.6,89.9,63.7,86.2,63.7z M51.7,203.9v0.2C51.8,204,51.7,204,51.7,203.9z M47,86.1
	c0.4,2,3.2,2.4,4.9,2.6v-0.1c-0.1,0-0.1,0-0.2,0V88l0.2,0.6l0,0c1.1,0.1,1.5,0.2,0.1,0.8c-0.1,0-0.2,0.1-0.3,0.1h0.1v1.6h-0.1
	c1.2,0.5,3.3,1.2,5.5,2.4c0.2,0.1,0.4,0.2,0.6,0.3v0.1c4.4,1.7,11.9-2.4,17.2-2.3v-0.2c0.2,0,0.4,0,0.6,0c2.5,0.2,4.7-0.2,6.1-0.7
	c1.8-0.5,2.3-1.3,0.8-1.2c-0.3,0-0.5,0-0.8-0.1v-0.1c-2.5-0.5-5.1-3.4-6.7-7.9v0.1c0-0.1-0.1-0.2-0.1-0.3c-1.7-5.2-6.9-3.1-11.8-3.1
	c-1.9,0-3.6-0.6-5.3-1.3v-0.1c-1.9-0.9-3.9-1.9-5.9-2.3v0.1l-0.1-0.1l-0.1,0.1v-0.1c0.1,0,0.1,0,0.1,0c-0.5-0.1-0.9-0.1-1.4-0.1
	c-4.1,0-6.6-2.8-11.4-2.4c-5.9,0-8.3,7.3-5.5,10.7C36.3,86.1,46.3,82.6,47,86.1z M39.2,66.8c3.3,0,2.3-3.1,6.7-3.1
	c2,0,4.4-1.1,5.9-2.3c1.5-1.2,2-2.6,0-3c-0.4-0.1-0.9-0.1-1.5-0.1c-6,0.2-6.2,3.8-11.4,4.1C33.8,62.7,35.8,66.8,39.2,66.8z
	 M51.8,71.4c1.5,0.4,3.8-0.2,3.6,1.1c-0.1,0.9,1,0.8,2.4,0.2h0h-0.1V65c0,0,0.1,0,0.1,0.1V65c-1-0.5-2.1-0.9-3.2-0.8
	c-1.3,0.1-2.2,0.6-2.9,1.3L51.8,71.4z M215.7,279.9c-6.2-3.8-9-3.4-15.2-5.5c-6.2-2.1-12.1-2.1-12.1-6.6s0.7-9-3.8-9
	s-9.3-4.8-15.2-8.3c-5.9-3.4-10.7-2.4-14.2-2.4s-9,1.4-10.4-2.1c-1.4-3.5-4.1,0-6.9,1.7s-7.6-0.3-10.4,0.7c-1.2,0.5-2.5,0.3-3.8-0.3
	h-0.1c-0.1,0-0.2-0.1-0.3-0.2c-0.2-0.1-0.4-0.2-0.5-0.3c0,0-0.1,0-0.1-0.1c-0.5-0.3-0.9-0.7-1.4-1.1c-0.1-0.1-0.1-0.1-0.2-0.2
	c-0.1-0.1-0.2-0.2-0.3-0.4c-0.5-0.6-1-1.2-1.4-1.8v-0.1h-0.1c0-0.1-0.1-0.1-0.1-0.2c-2.1-3.5,1.4-7.3-3.8-7.3
	c-0.8,0-1.3-0.3-1.7-0.6c-2.4-2.6,0.1-11.2,0.1-14.4c0-2.2-3.7,0.2-7.1,3v0.1c-1.5,1.3-3,2.6-4.1,3.7c-2.7,2.7-5.9-0.1-8.7-3
	c-0.8-0.9-1.7-1.8-2.4-2.5c-2.6-2.6-0.2-9.5,2.4-13.5v-0.3l0.1,0.2c0.5-0.9,1.1-1.6,1.7-2.1c3.1-2.7,7.5-0.4,11-1.7v-0.1
	c3.1-1.2,8.5-2.7,12.6,0.7v0.1c0.6,0.5,1.1,1,1.6,1.7c1.8,2.3,3.2,3.8,4.1,4.3v0.2c1.2,0.6,1.7-0.4,1.7-3.1c0-4.9-1.4-7.6,0.3-10.4
	c1.1-1.7,3.9-3.1,6-4.7l0.1-0.4v0.5c1.3-1,2.3-2.1,2.3-3.3c0-3.2,2.1-11.8,5.9-11.8c2.3,0,3.3-1.5,4.3-3.2v-0.1
	c0.6-1.1,1.2-2.3,2.2-3.3c2.4-2.3,6.3-2.4,10-6.7c0.1-0.2,0.3-0.3,0.4-0.5c1.9-2.5,1.2-5-0.4-6.9c-1.6-1.9-4.1-3.2-5.8-3.2
	c-2.7,0,2.3-2.7,5.8-3.1v0.1c1-0.2,1.9-0.1,2.5,0.3h0.1c2.3,1.7,3,3.7,4.4,1.3c1.3-2.3,3.9-4,9.3-4.1c0.2,0,0.5,0,0.7,0
	c4.1,0,1.1-2.9-0.7-5.5c-0.8-1.1-1.3-2.1-1-2.8c1.1-2.4-4.1-3.4-6.9-6.2c-2.6-2.6-2.1-10.1-5.8-11.3v-0.1c-0.3,0-0.5-0.1-0.8-0.1
	c-0.8,0-1.4,0-1.8,0.2c-1.7,0.7-0.2,3.2-3,4c-3.5,1-5.2-0.7-5.2-3.8c0-1.3-1.7-3.1-4-4.8c-3.2-2.3-7.7-4.2-10.9-3.8
	c-0.6,0-1.1,0.2-1.6,0.3v0.1l-0.1-0.1c-5.1,1.5-4.1,7.7-3.2,12.1c0.5,2.6,1.5,4.8,1.9,6.3l-0.1,1.7c-0.2,0.2-0.5,0.3-1,0.3
	c-2.8,0-2.8,4.1-3.1,10.7c-0.2,3.3-1.2,2.9-2.3,1.3V148c-1.1-1.6-2.1-4.5-2.1-6c0-1.4-1.5-2.5-3.7-3.5v-0.1
	c-2.5-1.1-6.1-2.1-9.8-3.4c-1-0.4-2-0.7-2.8-1v0.1c-4.7-1.7-6.2-2.9-6.5-5.2c-0.4-2.8-3.1-4.9-1.4-5.9c1.7-1,1-7.3,4.5-7.6
	c2.7-0.3,2-2.3,3.4-3.1v0.1c0.4-0.3,1-0.4,1.8-0.4c3.8,0,4.8-6.6,4.8-6.6s2.8-1.3,6-1.8v-0.2c0.8-0.1,1.7-0.2,2.6-0.2
	c4.2,0,2.1-11.1-1.7-11.4c-0.3,0-0.6,0-0.9,0v0.1c-3.1,0-4.6,1.6-4.6,4.5c0,3.1-2.5,3.8-2.8,1c-0.3-2.8-2.7-4.2-5.2-2.4
	c-2.4,1.6,0-4.8-3.8-4.5c-3.8,0.4-1.1-3.4-2.8-6.2s-2.4-0.4-5.2,1c-0.4,0.3-0.7,0.5-1,0.8V86c-1.2,1.3-0.9,3.1,0,3.8v0.1
	c0.2,0.1,0.4,0.2,0.7,0.3c1.7,0.3,2,2.7,4.1,4.8c1.6,1.5-0.4,2.1-4.8,2.3v0c-1.5,0.1-3.2,0.1-5.2,0.1c-0.9,0-1.7,0-2.5-0.1
	c-1.8-0.2-3.2-0.6-4.4-1c-2.4-0.8-4.1-1.8-6.7-2c-0.4,0-0.8,0-1.2,0c-5.5,0-4.9,6.2-9,4.8c-3-1.1-5.5-0.4-7-1.2
	c-0.6-0.3-1-0.8-1.3-1.6c-0.7-2.2-2.3-2.1-4.8-1.9l-0.1,0.2v-0.2c-1,0.1-2.2,0.2-3.5,0.2c-4.5,0-2.4-3.8-8.3-3.8s-3.1,1.4-8.3-2.1
	c-5.2-3.4-3.5,1.4-10.4,1.4c-6.9,0-8.3,1.4-8.3,4.5c0,3.1-9.7-4.8-19.7-5.5c-10.1-0.7-20.8-3.8-27-3.8c-6.2,0-9.3,6.6-16.6,7.6
	c-7.2,1,0.7,3.1,2.8,6.9c2.1,3.8,1.4,3.4-5.5,4.1c-6.9,0.7,3.5,5.2,8.3,5.2c4.8,0-0.3,3.4-3.8,5.5c-3.4,2.1-4.8,9.4,0.7,9.7
	c5.6,0.4,2.8,3.5,9.7,3.5c6.9,0,0.7,5.1-3.8,8.6s-4.1,8-1.7,5.9c2.5-2.1,8.7-7.3,11.8-8.3c3.2-1,5.2-6.6,8-8.3s4.9,3.5,6.6,0.7
	c1.7-2.7,5.2-0.3,8.3-1c3.1-0.7,9.6,0.7,12.4,1.4c2.7,0.7,5.9,3.4,10,3.1c4.2-0.3,4.5,6.6,7.3,9c2.8,2.4,5.9,2,5.2,5.5
	s4.8,8.3,10,10.4c5.2,2.1,7.2,8.3,3.1,6.2c-4.1-2.1-4.5-1.4-3.1,2.4c1.4,3.8,2.1,6.3,0,7.3s-2.1,11.1,0.7,15.9
	c2.7,4.9,12.4,9.7,13.8,14.2c0.3,1.1,0.7,2.2,1.3,3.1v-0.2l0.1,0.4c1.5,2.9,3.8,5.4,5.8,8.4l0.2,0.3h0.1c2.6,4,4.6,7.6,7,6.9
	s0-4.5-2.1-7.6c-2.1-3.1,7.2,5.5,10,7.6c1,0.8,1.6,2.3,2.2,4.1h0.1c1.1,3.2,2,7.1,4.7,7.3c0.6,0.1,1.2,0.2,1.9,0.4v0.1
	c1.4,0.4,2.9,1,4.5,1.7c2.3,1,4.9,2,7.7,2.5c0.7,0.1,1.4,0.2,2.1,0.2c4.5,0.3,7.4,2.9,10.7,4.6c1.5,0.8,3.1,1.3,4.9,1.3
	c0.2,0,0.4,0,0.6,0c5.3,0.6,5.6,8,7.2,10.7c0.7,1.1,2.6,1.4,4.7,1.4c0.1,0,0.2,0,0.3,0c0.2,0,0.4,0,0.6,0h0.1v0.2
	c2.7,0,5.5-0.1,6.2,1.4l0.1,0.2l0.1-0.1c1.4,2.8,3.5,6.7-0.2,7.7c-3.8,1.1-2.1,6.3-5.9,8s-3.5,9-1.4,13.1c2.1,4.2,9.7,9.7,9.7,12.8
	c0,3.1-0.7,6.9,3.1,6.9c3.8,0,6.9,5.9,9.3,8c2.4,2.1,0,6.6,2.1,10.4c2.1,3.8-4.5,4.8-4.5,9.3s1.7,12.5-1.4,14.9
	c-3.1,2.4-3.8,7.3-1.7,13.5c2,6.2,2.4,8.9,0.3,12.4s-3.8,3.8-2.4,6.6c1.4,2.8,4.2,12.5,8,15.6c3.8,3.1,3.5-1.7,3.5-1.7
	s5.2-9.7,6.9-10.7c1.8-1.1-4.1-9.7-1-9.7s3.8-4.9,3.8-7.3c0-2.5-0.3-5.2,2.1-2.8c2.5,2.4,7.3-4.9,11.1-6.6s3.2-4.2-0.3-9
	c-3.5-4.9,5.2,0,7.6,1c2.5,1,7.7-5.5,8-11.4c0.4-5.9,4.5-4.5,4.5-7.6c0-3.2,4.1-6.6,8.6-7.3c4.5-0.7,8.7-6.9,9-13.5
	c0.3-6.6,6.9-13.5,10-18C223.3,285.8,221.9,283.7,215.7,279.9z M51.7,65.5c-1.2,1.2-1.5,3-1.1,4.7c0.1,0.7,0.6,1.1,1.2,1.3v-0.1
	h-0.1V65.5z M276.9,83c-4.9-0.5-2.4,4.9,1.2,4.9C281.8,87.9,279.8,83,276.9,83z M125,219.4c-0.3,0-0.7-0.1-1.1,0
	c-3.8-0.5-2.1,2.7,1.1,3.7V223c0.4,0.1,0.9,0.2,1.3,0.2C129.8,223.5,128.1,220.1,125,219.4z M258.2,38.3c-1.3,0.7-2.7,1.2-4,1.4
	c-2.2,0.4-4.4,0.1-6.2-1.5c-2.7-2.4-6.9,1.4-9.3-2.4c-2.4-3.8-3.8,4.1-10.7,0c-6.9-4.1,7.9-3.8,19-2.4c11.1,1.4-10.7-8.6-22.8-8.6
	c-10,0-10,4.8-18,4.5c-7.9-0.4-0.3,6.2-4.8,6.2s3.1,6.9-7.3,0.7c-10.3-6.2-1.4,2.8-5.5,3.8c-4.1,1.1-4.4-4.1-12.4-4.8
	c-0.8,0-1.5,0-2.1,0v-0.1c-5.6,0.5-5,5.2-13.1,5.2c-0.2,0-0.4,0-0.6,0c-1,0.1-1.9,0.2-2.6,0.3c-5.3,1-3.6,4.7-1,5.6
	c0.4,0.1,0.7,0.3,1,0.5c1.6,1.1,2.1,3.5,0,4.8v0.1c-0.9,0.5-2.2,0.8-4,1c-5,0-6.8,0-8.1,1.4v5.4c2.6,0.3,7.6-0.9,10.5-0.7
	c4.5,0.4-6.6,3.8-2.1,6.6c1.1,0.6,2.3,1,3.7,1.2v-0.1c0.9,0.1,1.7,0.2,2.6,0.2c3.7,0,7.9-0.5,11.7,0.3c0.8,0.2,1.4,0.5,2,0.8v0.1
	c3.9,2.2,3.2,7.3,5.9,8.2c3.1,1.1,5.2,0,0.7,3.5c-4.5,3.4-0.7,5.1,2.8,4.1c3.4-1.1,5.1,3.8,0.3,4.8c-4.9,1.1,0.6,4.5,4.1,2.1
	c3.4-2.4-6.6,5.6-3.5,7.3c3.1,1.8-1.7,7,1.4,11.8c3.1,4.9,4.8,12.8,12.8,15.6s9.7-12.5,9.7-16.6c0-4.2,10.3-3.8,13.1-8.3
	s12.1-4.5,18-7.3c5.9-2.8,6.2-5.2,0.7-4.5c-5.6,0.7-3.8-6.2,1.7-6.2c5.6,0-5.1-7.6-0.3-7.6c4.9,0,3.8-2.4,7.3-5.9
	c3.4-3.5-1.4-6.6,3.1-6.6c0.9,0,1.7-0.2,2.3-0.6v-0.1c2.3-1.3,2.6-4.7,0-6.8v0.1c-0.3-0.2-0.6-0.4-0.9-0.6c-3-1.6-0.3-3.2,0.9-4.9
	v-0.1c0.5-0.8,0.8-1.6,0-2.5v0.1c-0.1-0.1-0.1-0.1-0.2-0.2c-0.9-0.9-0.7-1.5,0.2-1.9c2.1-1,7.8-1.1,12-1.6
	C272,42.4,261.7,36.6,258.2,38.3z M257.2,104c-1.2-0.2-2-0.2-2.9-0.3v10.6c3.4-0.3,6.4-2.5,8.3-4.5
	C265.4,106.5,262.6,102.4,257.2,104z M254.2,103.7c-1.3-0.1-2.6-0.4-4.8-1.4c-3.7-1.6-7.4,5.4-1.6,9.9c2.2,1.7,4.4,2.2,6.5,2.1h-0.1
	V103.7z M131.9,95.6c-3.2,2-1.6,5,1.2,4.2c0.4-0.1,0.9-0.3,1.4-0.6c3.1-2,1.2-4-1.4-3.9C132.7,95.3,132.3,95.4,131.9,95.6z
	 M133.1,80.5c-1.2-0.7-1.4-1.3,0-1.7c0.1-0.1,0.1-0.1,0.2-0.1c2.3-0.5,1.7-1.4-0.2-2.3c-1.9-0.9-5.1-1.7-8-2.2v15.4
	c2.5,0.2,5.4,0.6,8,1.4V80.5z M110.5,71.1c2.3,0.2,5.5,0.7,8.7,1V67h0.1v-0.1c-3-0.3-6.1-0.4-8.1-0.3c-2.1,0.1-3.5-0.4-4.5-1
	c-1.9-1.1-2.7-2.6-4.4-1.8c-4.5-0.7-2.1,4.1,0.3,6.9c1.6,1.8,2.4,1.3,4.1,0.8C107.6,71.2,108.8,71,110.5,71.1z M119.3,89.4
	c0.3,0,0.5,0,0.8,0c1.4,0,3.1,0.1,4.9,0.2V74.2c-1.7-0.3-3.3-0.4-4.5-0.4c-0.5,0-0.9,0.1-1.3,0.1c-8.2,0.7-10.4,4.3-10.4,7.6
	C108.8,84.7,114.8,88.9,119.3,89.4z M145.6,53.9c-0.6,0.7-1,1.6-1.6,3c-0.6,1.6,0.1,2.2,1.6,2.4V53.9z M106.7,60.8
	c1.8-0.5,1.4-2.3,0-3c-0.4-0.3-1-0.4-1.5-0.3c-3.6,0-3.6,3.1,0.3,3.4C106,60.9,106.4,60.9,106.7,60.8z M72.2,70.1
	c1.1,0.1,2,0,2.7-0.1v-1.6c-0.1,0-0.2,0-0.3,0c-4.4,0-4.4-5.7-7.8-5.7c-2.8-0.3-2.3,0.8-3.4,3.6c-0.7,2-3,0.1-5.6-1.2v7.6
	c1.3-0.6,2.7-1.4,3.8-2.3C63.9,68.6,66.8,69.9,72.2,70.1z M116.8,54.6c-4.2,1.3-6.6,4.5-7.3,8.6c-0.5,3.2,5,2.3,9.8,1.7v-0.1
	c1.5-0.1,2.9-0.3,4-0.3c0.6,0,1.2-0.1,1.7-0.3V45.3c-1.3,0.4-3,0.7-5.1,0.8c-0.2,0.1-0.4,0.1-0.6,0.1v0.1
	C111.6,47.2,120.8,53.2,116.8,54.6z M62.8,59.2c5,0,2.2-6.6-1.6-6.6c-1.9-0.2-2.9,0.3-3.4,1c-0.4,0.6-0.3,1.5,0,2.3
	C58.6,57.5,60.5,59.2,62.8,59.2z M78.7,57.9c1.1,0.1,2.1,0.1,3,0.1c1.5,0,3-0.1,4.5-0.1V58c1.6,0,3.3,0.2,5.3,0.7
	c1,0.3,1.8,0.2,2.4-0.1c1.3-0.8,1.3-2.8,0-4.2c-0.8-0.9-2.1-1.6-3.8-1.6c-1.4,0-2.6-0.2-3.9-0.4c-1.5-0.3-3-0.6-4.5-1
	c-2.1-0.5-4.2-0.9-6.7-1c-0.2,0-0.5,0-0.8,0c-2.7-1-1.6,2.9,0.8,5.4C76.1,56.9,77.3,57.8,78.7,57.9z M106.7,40.7
	c0.6,0.3,1.2,0.5,1.8,0.7c4.5,1.5,5.1,0.9,10.8,0.7c0.9,0,1.8,0,2.9,0c1.1,0,2,0.1,2.8,0.2v-11c-1.9,0.6-3.8,1.3-5.8,2
	c-4.2,1.5-8.2,2.9-11.8,2.9c-0.2,0-0.5,0-0.7,0C100.3,36.4,102.6,38.9,106.7,40.7z M90.4,49c3.8,0,1.4-4.8-2.4-4.5
	c-0.8,0-1.4,0.2-1.8,0.4c-0.8,0.4-0.6,1.3,0,2.1C87,48,88.7,49,90.4,49z M98.8,51.1c-0.6,3.8,3.3,5.8,7.9,3.8
	c0.5-0.2,0.9-0.4,1.4-0.7c5-3,1.6-8.6-1.4-9.3c-0.1,0-0.2,0-0.3-0.1c-3.1-0.3-2.4-5.5-9-4.8C91.9,39.7,99.5,46.9,98.8,51.1z"/>
</svg>
