<?xml version="1.0" encoding="utf-8"?>
<!-- Generator: Adobe Illustrator 19.0.0, SVG Export Plug-In . SVG Version: 6.00 Build 0)  -->
<svg version="1.1" id="圖層_1" xmlns="http://www.w3.org/2000/svg" xmlns:xlink="http://www.w3.org/1999/xlink" x="0px" y="0px"
	 viewBox="123 123.6 841.9 595.3" style="enable-background:new 123 123.6 841.9 595.3;" xml:space="preserve">
<style type="text/css">
	.st0{fill:#F7ED83;}
	.st1{fill:#F2954C;}
	.st2{fill:#7C8C96;}
	.st3{fill:#C68C64;}
	.st4{fill:#A2A993;}
	.st5{fill:#C8D4EB;}
	.st6{fill:#F4E88A;}
	.st7{fill:#FBFB87;}
	.st8{fill:#FBF331;}
	.st9{fill:#F4A160;}
	.st10{fill:#F5AF91;}
	.st11{fill:#F2B659;}
	.st12{fill:#FAFB51;}
	.st13{fill:#E9CCA3;}
	.st14{fill:#F3BDA3;}
	.st15{fill:#73A7A7;}
	.st16{fill:#92A667;}
	.st17{fill:#65998C;}
	.st18{fill:#F7B666;}
	.st19{fill:#F5DA95;}
	.st20{fill:#C1A19B;}
	.st21{fill:#658A9D;}
	.st22{fill:#5F7488;}
	.st23{fill:#7B9CC5;}
	.st24{fill:#FCFC3E;}
	.st25{fill:#FBE834;}
	.st26{fill:#FCB32C;}
	.st27{fill:#FBCC3D;}
	.st28{fill:#F89C2E;}
	.st29{fill:#DF8734;}
	.st30{fill:#68A1BD;}
	.st31{fill:#BCAC75;}
	.st32{fill:#595975;}
	.st33{fill:#E2B664;}
	.st34{fill:#FBE627;}
	.st35{fill:#FCDEE0;}
	.st36{fill:#FBECEE;}
	.st37{fill:#FAF35D;}
	.st38{fill:#FCD0D2;}
	.st39{fill:#F4DB68;}
	.st40{fill:#FBDD8A;}
	.st41{fill:#FBDC26;}
	.st42{fill:#F8B558;}
	.st43{fill:#FCC126;}
	.st44{fill:#FB9E2D;}
	.st45{fill:#FB8141;}
	.st46{fill:#FBFC24;}
	.st47{fill:#FBE328;}
	.st48{fill:#8FB79E;}
	.st49{fill:#A1B4A5;}
	.st50{fill:#D38F50;}
	.st51{fill:#BAA378;}
	.st52{fill:#E2BD80;}
	.st53{fill:#445571;}
	.st54{fill:#7ABAB5;}
	.st55{fill:#7CB68B;}
	.st56{fill:#A3CFF1;}
	.st57{fill:#7DA997;}
	.st58{fill:#B4AB39;}
	.st59{fill:#6C7480;}
	.st60{fill:#FAE64D;}
	.st61{fill:#755A5A;}
	.st62{fill:#FCFC61;}
	.st63{fill:#FCE54A;}
	.st64{fill:#FAED8E;}
	.st65{fill:#F6F079;}
	.st66{fill:#FBF277;}
	.st67{fill:#FBA638;}
	.st68{fill:#FBBC28;}
	.st69{fill:#F4B053;}
	.st70{fill:#F2CF49;}
	.st71{fill:#FB9031;}
	.st72{fill:#CFB538;}
	.st73{fill:#F8C654;}
	.st74{fill:#FC9F31;}
	.st75{fill:#CBC065;}
	.st76{fill:#92B8B2;}
	.st77{fill:#82B7CE;}
	.st78{fill:#8EB9B6;}
	.st79{fill:#FBB0AA;}
	.st80{fill:#FABDBA;}
	.st81{fill:#FAAC81;}
	.st82{fill:#FBC3C6;}
	.st83{fill:#B59F9B;}
	.st84{fill:#A38880;}
	.st85{fill:#FBDE2E;}
	.st86{fill:#FBA529;}
	.st87{fill:#FB9485;}
	.st88{fill:#F7AF3C;}
	.st89{fill:#FBA452;}
	.st90{fill:#FBFB3C;}
	.st91{fill:#FBC828;}
	.st92{fill:#F5B333;}
	.st93{fill:#EFE65C;}
	.st94{fill:#BFBC75;}
	.st95{fill:#A9B789;}
	.st96{fill:#C0BA7B;}
	.st97{fill:#CDB051;}
	.st98{fill:#ABB895;}
	.st99{fill:#FCF02D;}
	.st100{fill:#FCFD7B;}
	.st101{fill:#FAD6CB;}
	.st102{fill:#F7ED90;}
	.st103{fill:#B2BD7A;}
	.st104{fill:#FBCECC;}
	.st105{fill:#FBCBC4;}
	.st106{fill:#FBF4DB;}
	.st107{fill:#FAF6BA;}
	.st108{fill:#98A23D;}
	.st109{fill:#F6C248;}
	.st110{fill:#E8C554;}
	.st111{fill:#FB9652;}
	.st112{fill:#F9813A;}
	.st113{fill:#C0AF31;}
	.st114{fill:#E8CD4A;}
	.st115{fill:#F0BF62;}
	.st116{fill:#E0A167;}
	.st117{fill:#C8B274;}
	.st118{fill:#C4B776;}
	.st119{fill:#FEFEFC;}
	.st120{fill:#FCFDF2;}
	.st121{fill:#D4C364;}
	.st122{fill:#F7F1A5;}
	.st123{fill:#A89F33;}
	.st124{fill:#BF735A;}
	.st125{fill:#F5E478;}
	.st126{fill:#F9802B;}
	.st127{fill:#C7D574;}
	.st128{fill:#E5E96A;}
	.st129{fill:#C2C957;}
	.st130{fill:#F8912E;}
	.st131{fill:#D7BB66;}
	.st132{fill:#EBA64C;}
	.st133{fill:#FCE4E9;}
	.st134{fill:#DAD870;}
	.st135{fill:#BCBD53;}
	.st136{fill:#FCFDD1;}
	.st137{fill:#D6E095;}
	.st138{fill:#ACB571;}
	.st139{fill:#F9F7BE;}
	.st140{fill:#E6D543;}
</style>
<path class="st0" d="M599.2,423.1c11.7,5.3,22.8,11.6,32.1,20.5c2.5,1.8,4.9,3.7,6.2,6.6c0.7,1.1,1.5,2.3,2.2,3.4
	c-0.2,0.2-0.3,0.3-0.5,0.5c-1.7,0.6-3-0.4-3.9-1.5c-3.5-4.5-9.7-5.9-12.3-11.4c-0.3-0.6-1.5-0.6-2.2-1.1
	c-10.1-6.4-20.4-12.4-31.2-17.5c-2-0.9-4.6-1.4-5.2-4.2c0.1-0.5,0.3-0.9,0.6-1.3C590.6,417.4,594.9,420.3,599.2,423.1z"/>
<path class="st1" d="M654.8,487c2.3,9,2.3,18.2,0.9,27.3c-0.6,0.6-1.4,1-2.3,1c-1.8-0.1-3.4-0.7-4.5-2.2c-0.9-6.5-2-13,1.1-19.3
	c0.2-0.5,0.4-1,0.6-1.4c0.4-0.6,0.9-1.1,1.5-1.6C653.7,489.9,653.3,487.8,654.8,487z"/>
<path class="st2" d="M628.7,564c-1.1,1.2-2.2,2.4-3.4,3.6c1.6,0.6,3.2,1.1,4.7,1.7c0,0.2,0,0.4,0,0.6c-2.1,0-4.3,0-6.4,0
	c-0.9,0.3-1.1,1.3-1.7,1.8c-0.8,0.9-2.2,1.5-0.6,2.9c0.7,0.6,0.5,1.4-0.2,2c-1.6,0.9-3.3,0.8-5,0.2c-0.9-0.4-1.6-1-2.3-1.7
	c-0.8-0.8-1.9-1.2-2.6-2.1c-1-2.3,1.1-4.3,0.5-6.5c0.5-2,1.9-3.4,3.4-4.7c1.3-0.9,2.7-1.3,4.2-1.1c1.4,0.2,2.8,0.5,4.2,0.8
	C625.2,562.3,627.8,561.4,628.7,564z"/>
<path class="st3" d="M653.7,514.4c0.7,0,1.3,0,2-0.1c-1.1,11.9-5.6,22.5-12.1,32.4c-1.8,1.5-3,3.9-5.9,3.4c-1.1,0-2.2-0.2-3.1-0.9
	c-1.3-1.6-0.8-3.1,0.2-4.5c0.3-0.4,0.8-0.7,1.2-1c8-1.6,9.7-8.4,11.9-14.7c1.1-3.3,2.1-6.7,2.9-10.1
	C651.3,517.3,652.2,515.6,653.7,514.4z"/>
<path class="st4" d="M637.6,548.8c2.4,0.6,4-1.5,6-2c-3.6,6.9-9.2,12.1-15,17.2c-1.5-1.4-3.6-0.1-5.2-1.2c-1.4-2.7,0.7-4.2,2.3-5.2
	C630,554.9,633.5,551.4,637.6,548.8z"/>
<path class="st5" d="M615.4,575.9c2,0,4.1,0,6.1,0c0.5-1.6-1.6-3.2-0.1-4.8c0.1-1.5,0.4-2.9,2.2-1.1c0.4,2.1-0.6,4.9,2.6,5.8
	c3.1,0.8,3.9-1.8,5.1-3.7c1.8-2.8,3.6-5.5,5.8-8.1c0,4.4-3.6,7.1-5.1,11.2c7.9,1.7,15.9-0.2,23.8,0.9c-6,2.3-12.2,0.2-18.2,1
	c-1.8,2.1-4.3,1.4-6.6,1.4c-3.8,0.1-7.7,0.1-11.5-0.1C617.7,578.3,615.5,578.6,615.4,575.9z"/>
<path class="st6" d="M654.8,487c-0.5,1.7,0.7,3.6-1,5c-2.1-2.7-2.3-6.2-3.1-9.3c-1.7-6.9-4.7-13.1-7.9-19.3c-0.6-1.8-1.9-3.1-3-4.5
	c-1.2-1.6-1.7-3.2-0.4-5c0.1-0.1,0.3-0.2,0.4-0.3C647.8,463.5,653.1,474.4,654.8,487z"/>
<path class="st7" d="M519.7,295.1c9.3,2.7,16.2,9,23.1,15.3c-2.1,2.1-4,0.6-6-0.2c-2-0.8-3.6-2.3-5.8-2.8c1,5.1,6,7.2,8.3,11.2
	c0.2,0.8,0.1,1.5-0.4,2.2c-0.6,0.6-1.4,0.9-2.2,1s-1.6,0.1-2.5,0.2c-2.1,0.3-3.9-0.5-5.9-1.1c-4.5-1.4-8.9-0.8-13.3,0.9
	c-6.9-0.3-13.7,1.7-20.6,0.1c-2.1-2.9-0.3-4.1,2.2-4.9c6.3-0.9,9.8-4.5,10.3-10.9c0.2-2.3,1.2-4.2,3.1-5.8c-3,1.1-5.3,3.1-7.8,4.8
	c-1.9,0.4-4,1.9-5.5-0.7c4.4-5.1,10.4-7.6,16.3-10.4C515.4,293.8,517.4,294.9,519.7,295.1z"/>
<path class="st8" d="M538.7,320.5c0-0.7-0.1-1.3-0.1-2c-1.5-2.2-1.7-4.3,0.5-6.2c2.2-1.9,4-0.1,5.7,1c0.6,0.3,1.2,0.7,1.8,1
	c1.9,4,4.2,7.9,5.4,12.2c0.1,1.9,0.3,3.8-0.5,5.7c-3.3,2.9-5.8,6.9-10.9,6.7c-1.6-1.8,0.2-3.4,0.5-5.1
	C541.9,329.2,542.1,324.6,538.7,320.5z"/>
<path class="st9" d="M563.9,338.7c1,4.3,3.3,8.3,3.2,12.9c1.3,4.9,1.3,9.7,0,14.6c-0.3,5.4-2.9,10.2-4.3,15.3
	c-1.1,3.9-2.1,7.7-2.1,11.7c-2.5-0.3-2.1-2.7-2.9-4.2c-0.1-6.1,2.7-11.5,4.3-17.2c1.1-4.1,1.2-7.4-1.7-10.5c-0.8-2.8,1-5.3,1.1-8
	c1.5-4.7-0.4-9.1-1.2-13.6c0.1-0.5,0.4-0.9,0.7-1.2c0.7-0.3,1.4-0.2,2.1,0.3C563.3,338.7,563.6,338.8,563.9,338.7z"/>
<path class="st10" d="M563.1,338.7c-0.7,0-1.3,0-2,0c-4.3-3.2-9-6.1-10.3-11.9c-1.8-3.9-4.7-7.5-4.1-12.3
	C554.8,320.7,560,329,563.1,338.7z"/>
<path class="st11" d="M519.7,295.1c-2.3,0.1-4.7,0.2-7,0.3c-2.3-1-1-3.6-2.3-5.1c-1.8-3.6-3.9-6.8-7.9-8.3c-1.4-0.5-2.1-1.6-2-3.1
	c1.9-2,4-2.6,6.5-0.9c4.4,3.8,7.8,8.3,9.5,13.8C516.9,293.9,518.3,294.3,519.7,295.1z"/>
<path class="st12" d="M544.8,313.4c-0.2,0.2-0.6,0.6-0.7,0.6c-5.7-3-5.5,0.9-5.5,4.6c-5.2-2.1-7.1-7.4-10.6-11.1
	c-0.6-0.6-0.2-1.6,0.5-2.2c0.9-0.9,1.7-0.3,2.7,0.1c3.9,1.7,7,5.1,11.6,5C544.2,310.9,544.8,311.9,544.8,313.4z"/>
<path class="st13" d="M506.8,278.1c-2.2,0.3-4.3,0.6-6.5,0.9C502.4,274.2,503.6,274,506.8,278.1z"/>
<path class="st14" d="M469.9,335.7c0-0.3,0-0.5,0.1-0.8c0.1-1.3,1.4-1.4,2.2-2.2h-0.1c1.1-2.2,1.9-4.6,4-6.2c1.7-1.7,3-3.6,4-5.8
	c0.7-0.5,1.3-1,2-1.5c0.5,0.3,0.8,0.7,0.9,1.2c0.3,1,0.4,2.1-0.1,2.9c-3.7,6.8-5.3,14.8-11.1,20.3c-1.9,1.8-1.7,5.9-5.8,5.2
	C464.7,343.8,467.4,339.8,469.9,335.7z"/>
<path class="st15" d="M477.2,580c-3.3-1.9-7.1,0-11.2-1.7c2.5-1.8,5.3-0.6,7.1-2.3c0.2,0,0.4-0.1,0.7-0.1c2.3-0.6,4.4,1.6,6.7,0.4
	c0.6-0.1-0.2-0.8,0-0.2c0.1,0.3,0,0.4-0.3,0.4c-1.2-0.2-2.7,0.7-3.5-1c0.5-1.2,1.2-2.4-0.4-3.5c-1.2-0.8-2.4-1.8-2.7-3.5
	c0.2-1,0.6-1.9,1.6-2.4c3.5-0.8,7.3-0.6,10.7-2.1c3.4,0.7,6.9-1.2,10.1,0.6c1.3,2.5-0.3,4.5-1.4,6.6c-0.7,0.7-1.6,1.1-2.6,1.2
	c-4.8,0.4-6.8,3.2-7,7.7C482.5,580,479.9,580,477.2,580z"/>
<path class="st16" d="M534.5,581.1c-9.7-0.1-19.4-0.1-29-0.2c-1.1-0.3-2.2-0.5-3.3-0.8c-0.2-0.5-0.1-1,0.3-1.4
	c3.7-2.4,7.8-1.1,11.8-1.4c2.5-0.2,5,0,8.1-0.2c-2.2-0.7-4-0.3-5.7-0.9c-1.7-0.6-3.3-1.2-2.2-3.5c5.1-2,10.5-1.8,15.8-1.6
	c2.8,0.1,4.8,2.2,5.5,5.2c0.5,1.6-1.4,2.7-0.8,4.3C534.7,580.8,534.6,580.9,534.5,581.1z"/>
<path class="st17" d="M502.4,579c-0.1,0.4-0.1,0.8-0.2,1.2c-5.7-0.1-11.4-0.1-17.1-0.2c-2.5-6.4,0.1-9,9-9.1c1-0.8,1.8-0.5,2.6,0.3
	c1.1,2.9,2,5.9,5.3,7.2C502.2,578.6,502.3,578.8,502.4,579z"/>
<path class="st0" d="M582.5,415.5c0.9,0.6,1.9,1.2,2.8,1.8l-0.3,0.3c-4.9,2.9-8.4-0.7-12.3-2.6c-1.7-2.5-5.8-2.9-6.3-6.6
	c0.1-0.5,0.3-0.9,0.7-1.2C572,410.3,576.9,413.6,582.5,415.5z"/>
<path class="st18" d="M558.8,389.2c1.5,0.9,0.6,2.9,1.8,4c0.3,2.1,0.6,4.2,0.9,6.2c-0.3,0.9,0,2.1-1.3,2.5c-2.8-0.1-4-2-4.7-4.3
	c-0.2-1.3-0.2-2.5,0-3.8c0.3-1.5,1.1-2.7,2-3.8C558,389.6,558.4,389.4,558.8,389.2z"/>
<path class="st19" d="M560.8,401.3c0.3-0.6,0.5-1.3,0.8-1.9c1.8,2.6,3.6,5.2,5.5,7.8l-0.2,0.4C562.1,408.6,560.5,406.9,560.8,401.3z
	"/>
<path class="st20" d="M567.9,351.9c0,4.6,0,9.2-0.1,13.9c-0.2,0.1-0.4,0.2-0.7,0.3c0-4.9,0-9.7,0-14.6
	C567.4,351.7,567.6,351.8,567.9,351.9z"/>
<path class="st21" d="M602.1,580.9c-8.3-0.1-16.7-0.2-25-0.3c0.4-5.5-5.3-4.9-7.8-7.6c-1.6-1.8-4.3-2.3-7-1.2
	c-3.4,1.3-7.4-0.1-10.8,1.6c-1.2,0.6-2.4,1.1-3.6,2.4c3,0.3,5.3,2,8.2,1.9c4.8-0.3,9.5,0.8,14.2,0.8c1.9,0.5,4.8-1.4,5.6,2.1
	c-13.9,0.4-27.7,0.4-41.6-0.1c-4-1.4,0.4-1.7,0.3-2.6c2.5-2,1.5-6.1,4.5-7.8c5.1-0.8,9.1-4.2,13.8-5.8c7.5-2.7,13.7,0.2,20.1,2.9
	c6.4,2.7,12.8,2.9,19.7,2.4c6.6-0.5,12.8-3.5,19.5-2.6c2.2,2.4-0.6,4-1,6c0.3,2.6-1.7,3.4-3.4,3.4c-8.2,0.1-16.1,2.2-24.1,3.2
	c-0.7,0,0.3,1-0.1,0.4c-0.1-0.2,0-0.3,0.4-0.3c4.1-0.8,8.2-1.5,12.4-1.4c2.1,0,4.4-0.2,6,1.9C602.4,580.4,602.2,580.7,602.1,580.9z"
	/>
<path class="st22" d="M602.5,580.2c-6.7,0-13.4,0-20.1,0c8.2-3,16.3-6.3,25.2-5.3c1.6,0.2,3-0.4,3.8-1.9c1.1,0,2.2-0.2,2.9,0.9
	c-0.5,3,1.1,3.7,3.7,3.7c3.2,0,6.4-0.5,10.1,0.5c-1.8,2.4-4.2,0.7-5.7,1.9C615.8,580,609.1,580.1,602.5,580.2z"/>
<path class="st23" d="M622.4,580c1.3-0.5,2.6-1,4.4-1.7c-5.6-0.6-10.7,0.4-15.7-1.6c0.3-1.9,2.3-1.7,3.2-2.8c0.8,0.4,1.1,1.1,1.1,2
	c7.3,2.3,14.8,0.6,22.2,1.2c1.4,3.1-1,2.9-2.7,2.9C630.7,580.1,626.5,580,622.4,580z"/>
<path class="st24" d="M572.8,413.5c3.8,2,7.6,4.3,12.1,4.1c5.3,4.6,12.1,6.6,18.1,9.8c5.4,2.9,10.2,6.9,16.1,9.1
	c1.1,0.4,2.3,1.5,2.3,3.1c-1.8,2.3-4.6,1-6.9,1.7c0,2.3,2.7,3.5,2.2,5.9c-2.1,6.2-6.9,4.5-11.3,4c-3.7-0.1-6.3-2.3-8.5-4.9
	c-1.2-3-3.7-4.6-6.3-6.1c-2-2.7-5.2-3-8-4.1c-4.4-1.7-9.1-2.2-13.6-3.8c-1.3-0.8-2.4-1.9-3.2-3.2c-1.3-2.1-3-2.9-5.5-2.4
	c-3.2,0.6-6.1,0-7.9-3c-1.8-3.2-0.1-5.8,1.7-8.3c1.3-1.8,2.5-3.6,4.3-4.9C564,407.9,568.3,411.4,572.8,413.5z"/>
<path class="st25" d="M616.4,446.8c-1.7-2.1-5.4-4.2-4.5-6.6c0.9-2.5,4.6,0.2,7.1-0.5c0.8-0.2,1.7,0,2.5-0.1
	c1.1,0.2,2.5-0.4,3.2,0.8c3.5,6.1,10.2,8.5,14.7,13.5c-0.7,4,4.4,5.2,4.3,9c-5.5-1.3-9.7-4.7-13.7-8.4c-1.6-1.9-3.5-2.7-6-2.7
	C620.5,451.9,617.5,450.6,616.4,446.8z"/>
<path class="st26" d="M651.7,492.1c0,0.4,0,0.7,0,1.1c-3.1,2.6-3,6.3-2.9,9.7c0.1,4.8-1,8.4-5.5,10.9c-2.9,1.6-4.5,4.7-4.7,8
	c-0.4,5-2,9.9-1.8,15c0.1,2.7-1.5,4.8-2.2,7.1c-0.2,0.5-0.6,0.8-1.1,1.1c-3.2,0.5-3.4-2.4-4.6-4.1c-1.5-3.6,0-6.9,1.1-10.2
	c0.4-1.2,1.3-2.9,0.1-3.8c-1.5-1.1-2.6,0.7-3.8,1.5c-3.2,2.1-3.1,6.3-5.8,8.7c-1.6,0.7-3,0.4-4.4-0.5c-1.6-1.4-3.2-2.8-4.1-4.8
	c-1-1.9-1.2-4-1-6.1c0.3-3.2,1.8-6.1,2.4-9.2c0.2-1.1,0.6-2.5-0.4-3.3c-1.1-0.9-2.2,0-3.2,0.6c-4.2,2.7-8.8,4-13.5,5.1
	c-2.4,0.5-3.6,2.4-4.7,4.2c-1.8,2.8-4.3,4.5-7.5,5.5c-5.9,1.9-8.1,0.7-9.7-5.4c-0.2-0.6-0.4-1.3-0.6-1.9c-0.5-3.8-1.7-7.4-2.9-11.1
	c-0.7-2-1.5-4.1-0.4-6.3c2.9-3.5,6.5-3.5,10.4-2.2c2,0.7,4.3,0.7,6.2,1.9c0.6,0.6,1,1.3,1.2,2.1c0.6,6,1.5,6.7,7.2,4.9
	c2.8-0.9,5.4-1.6,8.4-1.3c2.1,0.3,3.9-0.7,5.7-1.8c1.9-1.2,3.6-2.5,5.5-3.5c1.9-1,3.9-1.4,5.7-0.1c2.1,1.5,2.3,3.7,1.6,5.9
	c-1.1,3.5-2.3,7-2.5,10.9c0.7-2.7,3.2-3.9,4.1-6c3.1-7.1,7-12.7,15.3-14.6c3.2-0.7,4.7-5,4.7-8.8c0-2-0.2-4.1,0.5-6
	c1-2.8,2.6-4.3,5.7-2.4C651.3,486.1,654.1,488.7,651.7,492.1z"/>
<path class="st27" d="M651.7,492.1c0.6-3.3-3-5.7-2-9c-2.4-1.6-4.6-3.2-7.9-2.2c-1.8,0.5-3.2-0.7-4.1-2.2c-0.7-1.1-1.1-2.6-2.3-3.2
	c-1.9-1-3.6-2.1-4.1,1.6c-0.7,5.1-2.8,6-7.6,3.6c-4-2.1-4.1-2-4.5,2.7c-0.1,1.7-0.2,3.5-2,4.3c-2,0.9-3.6,0.2-4.7-1.7
	c-0.3-0.8-0.4-1.5-0.4-2.3c1.9-5.2,1.5-10.8,2.1-16.2c0.3-1,1.2-1.7,1.4-2.6c1-4,3.5-4.8,6.8-2.9c3.3,1.9,4,0.5,4.4-2.6
	c0.3-2.3-0.2-5.3,3.6-5.4c4.4,3,9.2,5.4,13.2,9.1c4.3,4.6,6,10.6,7.7,16.3c1.3,4.1,3.5,8.3,2.4,12.9
	C653.1,492.1,652.4,492.1,651.7,492.1z"/>
<path class="st28" d="M633.6,544.6c1.5-7.9,2.4-15.9,3.3-23.9c0.4-3.4,2.2-7.2,5.6-8.5c4.4-1.7,5-4.8,5.2-8.7c0.2-2.5,0.7-5,1-7.4
	c0.2-1.8,1.2-2.7,2.9-2.8c-3.4,6.5-1.5,13.4-2,20.2c1.5,1.7,1.2,3.5-0.2,5c-4.6,5.1-7,11.2-8.7,17.8c-0.8,3.3-3.1,5.9-5.2,8.5v0.1
	C634.9,545.3,634.2,545.2,633.6,544.6z"/>
<path class="st29" d="M635.6,544.6c0-0.8-0.3-1.9,0.1-2.5c4.2-6.3,5.6-13.7,8.5-20.5c1.3-3,6.2-3.8,5.5-8.3c1.5-0.1,2.8,0.3,4,1
	c-2.2,8.7-4,17.5-8.6,25.4C643.2,543.2,640.1,545.6,635.6,544.6z"/>
<path class="st30" d="M612.4,567c-3.8,2.7-9,1.2-12.6,4.5c-4.3-3.4-8.3,2.3-11.7,0.9c-4.4-1.8-9,0-12.6-1.8c-4.1-2-8.1-3.7-12.4-5.1
	c-6.9-2.3-11.9,1-17.1,3.9c-2.5,1.4-4.5,2.8-7.3,1.6c-1.3-1.2-1.2-2.5-0.6-4c1.8-2.2,4.3-3.4,7-3.5c3.8-0.2,7.2-1.3,10.6-2.8
	c8.1-1.1,16.1-2.6,24-4.9c1.1-0.2,2.1-0.2,3.1,0.2c3.7,2.1,6.6,5.1,8.7,8.7c1,1.8,2.1,2.3,4,1.7c3.5-1.1,7.1-1.6,10.1-4.1
	c2.6-2.2,5.8-2.3,9-1.1c0.6,0.5,1.2,1,0.7,1.9C614.4,564.3,613.4,565.6,612.4,567z"/>
<path class="st31" d="M637.6,548.8c-2,3.5-4.7,6.3-8.4,8.1c-2.6,1.3-4.6,3.2-5.8,5.9c-1.5,0-3,0.4-4.1-1c-4.2-3.9-9.1-6.7-13.7-10
	c-2-1.5-4.1-1.6-5.2,1.4c-1.1,2.9-3.5,3.3-6.2,2.9c-0.5-0.1-0.9-0.3-1.3-0.5c-1.6-1.3-3.1-2.8-2.2-5c1.1-2.8-0.5-4.3-2.2-5.9
	c-0.2-0.8-0.2-1.5,0.3-2.1c3.4-1.8,7.5-1.1,11-2.8c0.8-0.4,2.1,0,2.9,0.6c3.4,2.7,7,5.1,11.5,5.6c1.6,0.2,2,2,2.7,3.4
	c1.8,4.2,3.7,4.8,7.8,2.7c1.8-0.9,3.4-2.1,5.2-3c1.5-0.8,3-1.6,4.6-0.2C635.6,548.7,636.6,548.8,637.6,548.8z"/>
<path class="st4" d="M594.2,554.8c2.5-0.1,5,0.5,5.2-3.5c0.1-3.8,3.4-2.9,5.3-2.1c5.1,2.1,8.2,7.3,13.7,8.9c1.4,0.4,0.9,2.3,0.9,3.7
	c-1.3,0.4-2.7,0.8-4,1.2c-0.4-0.4-0.7-0.7-1.1-1.1c-3.6-2.7-7.6-3.6-12-3.4c-2.7,0.1-5.6,0.5-8.1-1.3
	C593.6,556.4,593.6,555.6,594.2,554.8z"/>
<path class="st32" d="M621.4,571c0,1.6,2.3,3.1,0.1,4.8c-1.1-1.3-2.9-0.4-4.3-1.2C617.6,572.3,619.7,571.9,621.4,571z"/>
<path class="st33" d="M634.6,548.7c-3.5,0.5-6,2.8-8.8,4.5c-5.8,3.5-8.9,2.5-10.3-4c-0.4-1.9-1.3-2.5-3-2.6c-1.5,0-3.8,0.3-4.4-0.4
	c-5.2-7.8-12.4-3.4-18.8-3.5c-1.4-2.8,0.9-3.2,2.6-3.6c4-1.1,8-2.4,12.1-3.5c3-0.8,5.7-0.5,7.4,2.5c0.7,2.9,2.1,4.7,5.5,4.5
	c1.8-0.1,4.1,0.4,4.9,2c2,3.9,4.3,3.1,7.1,1.3c1.4-0.9,3.4,0.3,4.7-1.1v-0.1c0.7,0,1.4,0.1,2,0.1
	C635.2,546.1,634.9,547.4,634.6,548.7z"/>
<path class="st34" d="M466.2,348.9c3-5.7,8.9-9.3,10.4-16.3c0.9-4,4.7-7.4,5.7-11.8c3.7-4.7,6.6-10.3,13.2-11.6
	c4.9,2,5.4,3.9,2.6,9.3c-2,0.1-4.1,0.1-3.9,3.1c-0.1,0.2-0.1,0.5-0.2,0.7c-2.3,2.1-4.9,3.9-6.8,6.4c-3.8,4.9-4.6,9.8-1.1,15.1
	c1.3,3,3.1,5.9,3.4,9.3c0.1,1.3,0.1,2.7,0.1,4c-0.6,5.8-1.2,5.8-6.8,5.4c-8.1-0.5-13.4-4.8-18-10.6
	C464.8,350.6,465,349.5,466.2,348.9z"/>
<path class="st35" d="M494.3,321.5c7-1.6,14.1-0.9,21.1-1c1.2,4.2-3.1,2.5-4.7,4.4c3.3,1.9,7.1,2.8,9.5,5.9c0.7,1.7,4.1,1.5,3.1,4.2
	c-0.9,2.3-3,2.7-5.3,2.5c-5.4,1.8-10.7,2.5-15.7-0.9c-2.1-2.7-5.4-2-8.1-2.8c-0.8-4-2.3-8.1,0-12.1L494.3,321.5z"/>
<path class="st36" d="M519.7,331.7c-2.7-1.9-5.1-4.2-8.6-4.5c-1.7-0.2-3.3-1.5-3.1-3.3c0.2-2.2,2.3-1.2,3.6-1.3
	c1.6-0.2,3.5,0.3,3.8-2c4.2-3.6,9.1-2.2,13.6-1.2c1.8,0.4,3.7,1,5.6,1.3c2.5,5,0.8,10.6-4.5,14.6
	C526.2,335.3,523.4,332.2,519.7,331.7z"/>
<path class="st37" d="M498.2,318.4c-0.8-2.9,2.9-8-3.9-8c-1.1-3.2,1.4-3.8,3.5-4.6c1.5-0.6,3.4-0.1,4.6-1.5c2.8-4,6.6-6,12-5.7
	c-7.3,2.8-5.4,10-7.8,15.1c-0.7,1.5-0.9,3-2.8,2.8C501.4,316.1,500.2,318.3,498.2,318.4z"/>
<path class="st38" d="M529.4,334.8c3.7-4,5.5-8.7,5.2-14.2c0.7,0,1.3,0,2,0c6.5,4.1,7.2,10,2.3,17.6c-0.3,0.4-0.7,0.8-1.1,1.1
	c-2.9,0.6-5.9,1.5-8.8,0C528.2,337.7,528.1,336.1,529.4,334.8z"/>
<path class="st39" d="M502.3,304.3c-0.2,1.7-1.3,2.1-2.7,2.1c-2.8,0-4.5,1.5-5.3,4c-4.9,2.3-7.3,7.6-11.9,10.3
	c-0.1-0.5-0.2-0.9-0.3-1.4c4.1-6,9.2-10.9,15.2-14.9C498.9,305.3,500.6,304,502.3,304.3z"/>
<path class="st40" d="M537.8,338.8c-0.4-3,2.7-4.3,3.1-7.1c0.7-4.8-2-7.7-4.3-11.1c0.7,0,1.4,0,2.2-0.1c5.2,3.4,6.4,9.6,3,16
	c-0.4,0.7-0.7,1.5-1.1,2.2C539.7,339.6,538.8,339.6,537.8,338.8z"/>
<path class="st41" d="M537.8,338.8c1,0,1.9-0.1,2.9-0.1c4.1-0.9,5.9-5.6,10.2-6.1c3.6-1,4.5,1.8,5.5,4.2c-2.1,9.6-7.5,17.2-15,23.4
	c-2.4,2-5.3,3.2-7.3-0.9c1.1-6,0.5-12.1,1.3-18.1c0.3-1.2,1.3-1.9,2.2-2.5L537.8,338.8z"/>
<path class="st42" d="M555.8,336.7c-1.7-1.3-2.6-3.5-4.9-4.1c0-2-0.1-3.9-0.1-5.9c2.5,4.8,8.4,6.6,10.3,11.9l-0.2,0.1
	C558.2,340.5,556.6,339.7,555.8,336.7z"/>
<path class="st43" d="M555.8,336.7c1.3,1.6,3,2.3,5,2.1c2.2,4.5,3.8,9,2,14.1c-0.4,0.3-0.7,0.7-1.2,0.9c-2.8,1.2-6.7,0.1-8.6,3.4
	c-3.4,5.9-7.8,11.6-7.3,18.9c0.4,5.5,4.5,9.4,7.6,13.6c0.9,1.3,2.6,2,3.3,3.6c0,1.3,0,2.7,0,4c-0.6,0.5-1.2,1-2,1.2
	c-2.9,0.6-5.1-0.9-7.4-2.4c-6.3-4.2-10-4.1-15.3,1.3c-6,6.1-12.7,10.2-21.5,9.5c-4-0.3-5.8,2.6-8.1,5.1c-1.7,1.9-3.4,4.6-6.5,1.8
	c-1.5-3.3,1.8-4.8,2.6-7.2c0.5-4.2,2.4-8.4,0.6-12.8c-0.2-0.4-0.2-1.1,0.1-1.5c3.7-4.8,0-7.6-2.9-10.5s-5.3-6.5-9.7-7.6
	c-5-1.3-7.1,0.6-6,5.5c0.8,3.8,0.1,4.7-3.6,3.8c-2.8-0.7-5.4-1.8-7.7-3.5c-0.6-0.4-1.2-1-1.6-1.6c-1.4-2-2.7-4-3.2-6.5
	c-1.3-5.2-1.4-10.5-1.1-15.8c0.1-1.6-0.6-3.9,2.2-4c3.3,0.7,5.6,2.4,7,5.7c0.7,1.9,2.8,2,4.8,2.1c1.8,0,3.9-0.2,5.4,0.6
	c4.6,2.5,5.6,0.5,5.3-3.7c2.1-1.1,2.8,0.4,3.1,1.9c1.4,6.7,6.3,10.8,10.9,15c0.4,0.3,0.7,0.6,1.1,0.9c5.9,3.7,12,4.6,18.1,0.4
	c0.3-0.3,0.7-0.6,1.1-0.8c2-0.8,4-1.6,4.8-4c1.2-2.6,3.7-4.5,4.4-7.5c0.7-1.3,1.3-2.6,3.1-2.9c2.2,1.6,4.6,1,5.9-0.8
	c3.7-5,9.8-8.2,11.5-14.8C552.8,341.6,554.6,339.2,555.8,336.7z"/>
<path class="st44" d="M556.8,393.3c-7.6-1.7-9.5-9-12.1-14.3c-2.5-5.2,0.1-11.7,3.6-16.8c1.1-1.7,2-3.3,2.8-5.2
	c2.3-5.4,7.4-3.9,11.8-4.1c0.8,3.1-1.2,5.4-2.1,8.1c-6.3,2.4-6.4,2.4-6.4,9.7c0,6.8-1.1,13.9,4.2,19.7
	C558,391.3,557.4,392.3,556.8,393.3z"/>
<path class="st45" d="M558.6,390.3c-4.7-0.4-5.3-4.5-5.6-7.6c-0.6-5.9-0.4-12-0.1-18c0.2-4.4,2.2-5.3,8-3.8c4.4,2.5,5,5.2,3.4,9.9
	c-2.1,6-3.6,12.3-5.4,18.4C558.8,389.5,558.7,389.9,558.6,390.3z"/>
<path class="st46" d="M457.8,456.7c2.1-3.6,4.2-7.1,6.2-10.7c1.1-3,3-5.4,5.6-7.2c2-1.5,5-1.9,6-4.8c0.2-0.6,1.1-1,1.7-0.8
	c3.4,1.4,6.9-1.3,10.3,0c2.5,2,4.8,2.1,6.8-0.9c0.9-1.3,2.4-1.8,4-1.9c1.6,0,3.1,0.3,3.9,1.8c0.8,1.6,0.2,3.3-1.2,3.9
	c-4.3,2.1-4.2,7.6-8.2,9.9c-1.1,0.7-0.9,2.4-0.7,3.8c0.2,1.7,0.9,3.2,1.4,4.8c2.8,8,2.3,9.9-5.9,11.8c-5.1,1.2-9.7,3.3-14.4,5.3
	c-5.6,1.5-9.5,4.7-10.9,10.5c-0.9,3.6-1.6,7.2-3.2,10.6c-1.7,3.5-4,3.7-6.6,0.8c-6.4-7.1-6.7-14.2-1.7-22.2
	C453.6,466.9,456.4,462.1,457.8,456.7z"/>
<path class="st47" d="M457.8,456.7c0.7,6.6-2.7,11.6-6.7,16.2c-2.7,3.1-3.3,8.6-1.3,12.5c1.4,2.7,2.3,5.6,4.1,8
	c1.7,2.2,3.2,1.9,3.7-0.7c0.6-2.8,2.1-5.2,2.4-8.1c0.6-6.4,4.4-10.8,9.9-14c1.2-0.7,2.2-0.8,3.1,0.3c1.9,1.8,1.7,4.7,3.6,6.5
	c0.3,6.6,0.8,13,4.8,18.6c-3.1,7.5-4.8,9.8-12.8,1.9c-1.9-1.9-3-4.3-3.3-8.2c-2.6,6.1-2.6,11.3-2.4,16.4c0.1,2.9-0.3,5.5-3.2,6.7
	c-3.1,1.3-5.6-0.1-7.5-2.5c-1.8-2.2-3.5-4.5-5.2-6.8c-0.3-0.6-0.5-1.3-0.6-2c0.4-3-1.2-4.8-3.5-6.3c-0.3-1.3,0-2.5,0.8-3.5
	C445.6,479,450.1,467.2,457.8,456.7z"/>
<path class="st48" d="M486.2,564.9c-3.3,2.8-7.3,2-11.2,2c-0.6,0.6-1.3,0.6-2,0c-1.4-1.3-2.7-2.7-4.1-4c0.8-2.7,2.6-3.3,5.1-2.7
	c0.4,0.2,0.8,0.5,1.2,0.8c1.3,0.9,2.5,2.8,4.3,1.9c1.8-0.9,1.2-3,1-4.5c-0.4-5,2.1-8.3,6-10.6c3.5-2.1,6.6-4.3,8.7-8
	c1.8-3.2,3.8-1.4,5.4,0.6c0.3,0.7,0.3,1.4,0.1,2.2c-0.5,1.2-1.5,2.1-1.3,3.6c0.5,4.3-1.4,6.3-5.8,7c-6.4,1-7.1,2.2-6.6,9
	C487.2,563.2,487.1,564.2,486.2,564.9z"/>
<path class="st49" d="M474,560.9c-2.1-0.4-3.5,1.1-5.1,2c-5.6-5.2-9.5-11.6-13.1-18.2c1-1.1,2.2-0.8,3.4-0.7c1.2,0,2.6-0.2,3.2,0.9
	c3.2,5.4,8.6,8.8,12.1,13.9C474.7,559.6,474.6,560.3,474,560.9z"/>
<path class="st50" d="M449.6,532.6c-2-3.5-3.6-7.3-4.5-11.2c0.8-1.7-0.9-3.7,0.8-5.3c3.5-0.6,5.2,1.4,6.3,4.2c1,3.7,3,7.1,3.2,11
	c0.1,1.8,0.1,3.7-1.1,5.3C450,538.5,451.7,533.3,449.6,532.6z"/>
<path class="st51" d="M449.6,532.6c3-0.3,1.5,4.1,4.3,3.9c5-2,6.2-1.5,7,3.3c-1,1.8-0.5,4.1-2,5.8c-1-0.3-2.1-0.6-3.1-0.9
	C453.2,541,450.5,537.3,449.6,532.6z"/>
<path class="st52" d="M445.9,516.5c-0.3,1.6,0.4,3.4-0.8,4.8c-0.7-2.8-1.4-5.5-2.2-8.3c-1.1-6.9-1.1-13.7,0-20.6
	c0.3-0.2,0.5-0.5,0.8-0.7c0.1,1.4,0.2,2.8,0.4,4.3c1.7,1.7,1.1,3.9,1.3,6c0.4,3.3,0.2,6.6,1.3,9.8
	C447.2,513.5,447.3,515.2,445.9,516.5z"/>
<path class="st49" d="M473,566.9c0.7,0,1.3,0,2,0c-0.3,0.7-0.6,1.3-0.9,2c1.2,2.3,1.9,4.6-0.9,6.3c-0.4-0.1-0.9-0.1-1.3-0.2
	C472.3,572.3,472.7,569.6,473,566.9z"/>
<path class="st53" d="M473.2,575.2c0.3-2.1,0.6-4.2,0.9-6.3c2.8,1.2,4.7,3.3,6.7,5.8c-1.5,0.2-2.6,0.3-3.8,0.5
	c-1.2,0.9-2.6,1.2-4.1,0.8h0.1C473.4,575.7,473.4,575.5,473.2,575.2z"/>
<path class="st54" d="M486.2,564.9c1.2-2.8-2.8-4.5-1.5-7.5c1.9-4.4,5.5-6.2,9.6-5.9c4.1,0.2,4.4-1.8,3.8-4.5
	c-0.5-2.4-0.6-4,2.3-4.3c0.2,0.1,0.4,0.2,0.6,0.3c1.9,1.6,2.8,3.7,3,6c0.5,5.3,3.3,8.5,8.7,8.9c3.6,2.5,4.8,7.5,9.6,8.8
	c1.1,0.3,1.2,1.9,0.9,3.1c-0.4,1.5-1.5,2.1-2.9,2.1c-1.8,0.1-3.6,0-5.5,0.1c-2.2,0.3-3.6-1.2-5.1-2.3c-1.8-2.3-4.2-2.9-7-3.1
	c-2.3-0.1-4.7,0.3-6.5-1.7C492.9,564.3,489.5,567.6,486.2,564.9z"/>
<path class="st55" d="M496.2,564.9c3.3,0.1,6.7-0.2,9.9,0.3c1.8,0.3,3.8,1.4,4.2,3.7c-4.4,2.3-9.4,2.1-14.1,3
	c-0.7-0.3-1.4-0.7-2.1-1C493.9,568.6,494.9,566.7,496.2,564.9z"/>
<path class="st56" d="M473,575.9c1.2-1,2.7-0.8,4.1-0.8c1.3,0.4,2.7,0.9,4,1.3C478.3,576.6,475.5,578.2,473,575.9z"/>
<path class="st57" d="M514.4,571c2-0.1,4-0.1,6-0.2c1.1-0.1,1.9-0.6,2-1.8c0.1-0.9-0.3-1.9-1.2-1.9c-4.7,0-6.7-2.7-7.3-7
	c-0.1-1-1.4-1.3-2.5-1.4c-0.6-4.4,0-5.2,4.6-5.1c0.5,0.2,0.9,0.4,1.3,0.7c3.3,1.9,6.6,1.3,9.8-0.5c4.4-0.1,8.3,0.6,10.5,5.1
	c0.2,2.8-2.2,3.2-4.2,4.5c1.9,1.2,4.5,0,5.6,2.3c0.2,0.5,0,0.9-0.3,1.3c0,1.3,0,2.7,0,4c-0.8,2.6,0.7,6.6-4,7
	c-0.6-4.6-3.1-6.1-7.7-5.4c-4.1,0.6-8.4,0.3-12.5,0.5c-0.1-0.1-0.3-0.3-0.4-0.4C513.8,572,513.9,571.5,514.4,571z"/>
<path class="st58" d="M514.4,573c1.7,3.6,5,1.3,7.5,2c1.6,0.4,4.3-0.8,4.3,2s-2.7,1.9-4.3,2c-6.5,0.1-13,0-19.5,0l-0.1-0.1
	c-2-2.3-1.8-4.7,0.3-6.7c2.2-2,5-3.1,7.9-1.7C511.9,571.2,513.2,572,514.4,573L514.4,573z"/>
<path class="st16" d="M514.4,573c-2.2,0.5-3.7-1.3-5.5-1.7c-3.3-0.7-6.5,3.2-6.5,7.7c-5.2,0.4-6.3-2.7-6.1-7c3.9-4.5,9.2-2.7,14.1-3
	c1.3,0.7,2.7,1.4,4,2.1C514.4,571.7,514.4,572.3,514.4,573z"/>
<path class="st59" d="M555.7,579.1c-3.5,0.3-6.4-2.6-10.1-1.5c-1.4,0.4-1.8-1.4-0.3-2.3c3.3-1.9,6.1-4.7,10.3-4.4
	c2.8,0.2,5.4,0.1,8.2-1.3c2.8-1.4,5.5,1.4,7.8,3.1c1,0.7,1.6,2.4,3.1,2.3c7-0.5,4.4,2.7,2.3,5.7c-0.4,0-0.7,0-1.1,0
	c-1.4-2.2-3.4-0.1-5.1-0.7c-2.5-4.5-7.1-4.5-11.3-4.8C557.6,575,555.4,576.2,555.7,579.1z"/>
<path class="st60" d="M554.8,397.3c0.7,0,1.3,0,2,0c0.6,2,2,3.4,4,4c1.8,2.3,1.6,6.5,6.1,6.2c0.5,3.4,4.7,3.2,5.9,5.9
	c-4.7-0.6-9-3.5-14-2.1c-2.2-2-4.6-3.8-7.2-5.3c-1.9-1-4.5-1.9-4-5c0.5-0.6,1.1-0.9,1.9-1.1C551.6,399.8,553.5,399.1,554.8,397.3z"
	/>
<path class="st61" d="M555.7,579.1c-0.6-1.5-3.1-0.7-3.3-2.7c5.4-4.8,11.4-2.2,17.1-1.1c1.9,0.4,2.2,2.7,1.3,4.7
	C565.9,579.7,560.8,579.4,555.7,579.1z"/>
<path class="st62" d="M547.8,401.3c1.9,2.4,4.5,4,7.3,4.9c2.6,0.9,3.9,2.4,3.8,5.1c-1.5,2-3,4-4.4,6.1c-1.1,1.7-2.4,3.4-1,5.5
	c1.3,2,3.6,3.5,5.5,2.4c5.5-3.2,7,1.1,9.2,4.4c0.4,0.5,0.5,1.2,0.8,1.8c-2.2,2.2-4.6,1.5-6.9,0.3c-5.9-3-12.1-3.2-18.4-2.4
	c-3.3,0.4-6.1,1.7-7.6,4.8c-4.6,4.4-10.8,4.8-16.4,6.8c-4.1-0.8-6,2.5-8.4,4.7c-0.3,0.3-0.7,0.6-1.1,0.8c-3.1,0.8-4.8,3.2-6.8,5.3
	c-0.3,0.4-0.7,0.7-1,1c-1.4,0.9-2.8,2.4-4.6,0.6c-1.2-3.1-0.3-6.3-0.1-9.4c0.2-2.2,2.1-3.2,4-4c6-2.6,12-5.1,18.8-6.5
	c-2-3.8-4.4-5.4-8.2-3.9c-2.8,1.1-5.7,1.7-7.9-0.9c-2.2-2.6-1-5.4,0.1-8c1.8-4.1,4.3-7.2,9.4-7c1,0,1.9-0.6,2.6-1.3
	c2.4-1.9,5.1-3.3,8-4.4c0.8-0.2,1.5-0.2,2.3-0.3c1.3,0,2.6,0,3.7,0.9c1.7,2.7-0.7,3.3-2.2,4.4c-2.1,1.5-5.8,3.1-4.5,5.6
	c1.2,2.5,4.4-0.4,6.7-0.8c5.3-0.9,9.3-4.4,13.9-6.6c4.7-2.2,4.7-3,0.9-6.7c-0.5-0.5-0.8-1-1.1-1.7c-0.1-0.8,0-1.5,0.6-2.1
	C545.9,400.4,546.9,400.4,547.8,401.3z"/>
<path class="st63" d="M630.6,453.8c-2.9,1.5-1.9,4.3-2,6.7c-0.1,1.9-0.3,3.7-2.1,4.7c-2.1,1.2-2.9-0.9-4.1-1.8
	c-2.4-1.8-4.5-2.8-5,1.5c-0.1,1.2-0.7,1.8-1.8,2c-2.2-1.6-1.5-4.6-3.1-6.5c-0.2-0.4-0.4-0.9-0.5-1.3c-0.5-2.7-2.7-4-4.7-5.5
	c-1.2-0.9-3.4-1.3-2-3.7c4.2,0.6,8.5,1.9,11.1-3.1c3,2.2,5.6,5.1,10.2,3.4C629,449.2,629.6,452.2,630.6,453.8z"/>
<path class="st64" d="M534.6,433.6c1.2-3.9,4.7-5.4,7.9-5.8c6.7-0.8,13.6-1.1,19.8,2.5c2.3,1.3,4.4,1.2,6.6,1.3
	c5.1,0,9.9,1.1,14.2,3.9c-0.2,0.2-0.3,0.4-0.5,0.7c-4,2.1-8.2,0.7-12.3,0.8c-0.5,0-1-0.2-1.5-0.3c-2.2-1.3-4.6-1.6-7.1-2
	c-3.9-1.3-7.7-3.2-12-1.8c-3.8,0.6-7.8-0.3-11.5,1.6C537.1,435.1,535.7,434.6,534.6,433.6z"/>
<path class="st65" d="M605.3,449.8c0.8,2.8,4.3,2.1,5.6,4.5c0.8,1.5,2.9,2.4,2.4,4.7c-3.9,0.4-7.6,2.5-11.7,1.6
	c-2.7-1.9-0.2-6.1-3.3-7.8c-1-0.8-1.7-1.7-2.1-3c-0.3-1.3-0.3-2.6,0.5-3.7c0.2-0.2,0.4-0.3,0.6-0.5
	C600.2,446.7,601.7,450.2,605.3,449.8z"/>
<path class="st66" d="M591.2,439.6c3.1,0.9,6.4,1.7,6.1,6l-0.2,0.3c-0.9,0.8-1.9,1-3.1,0.7c-2.2-0.9-3.7-2.4-3.9-4.9
	C590.2,440.9,590.5,440.1,591.2,439.6z"/>
<path class="st64" d="M591.2,439.6c0,0.7-0.1,1.4-0.1,2.1c-4.2,0-7.3-2.2-8.2-5.9l0.3-0.3C586.6,435.5,589.7,436.1,591.2,439.6z"/>
<path class="st67" d="M575,521.5c1.3,1,0.8,2.5,1.1,3.7c0.7,2.1,1.9,3.7,4.4,3c4.2-1.2,8.5-2.3,10.3-7c0.9-2.3,2.5-3.9,5.3-3.7
	c3.6,2.6,7.4,5,11.9,5.8c1.7,0.3,3.1,1,4.3,2.3c0,2.1-0.1,4.2,1,6c-4,1.8-7.6,0.7-10.6-2c-2.5-2.2-5-2.6-7.8-1.4
	c-5.1,2.1-10.6,3.1-15.5,5.9c-2.3,1.3-4.7,1.8-7.2,0.9c-1.8-0.6-3.9-1.3-5.4-0.4c-9.2,5.3-19.7,1.9-29.3,4.8
	c-6.3,1.9-10.6-1.2-13.1-7.3c-0.3-0.7-0.8-1.1-1.4-1.4c-0.4-0.3-0.7-0.6-1-1c-0.5-0.9-0.5-1.9-0.4-2.9c0.2-1.5,0.9-3.1-1-3.9
	c-1.9-0.9-3.2,0.1-4.4,1.4c-2.9,1.9-4.1,5.9-8,6.6c-4-2.1-6.9-5.5-10.2-8.6c-4.1-7.3-1.8-10.9,7.1-11.4c1.1,0,2.2,0.1,3.2,0.6
	c10.4,5,20.9,7.7,32,2.3c3.9-0.1,7.8,2.2,11.7-0.3c3.7-1.2,6.1-4,8.2-7.1c1.5-1.1,3-4.4,4.8-0.2c0.1,4.2-3,7.3-4.1,11.1
	c-0.9,3.4,1.2,9.8,4.5,11.1c2.8,1.1,5.3,0.6,6.8-2.3C573.1,524.5,573.3,522.5,575,521.5z"/>
<path class="st68" d="M613.4,486.1c3.3,1.4,5.4,1.5,4.2-3.2c-0.6-2.4-0.1-5,2.2-6.2c2.1-1.2,2.9,1.6,4.4,2.5
	c1.4,0.9,2.7,2.1,4.6,1.2c2.1-0.9,1-2.4,0.9-3.8c-0.1-1.7-0.1-3.8,2.2-3.8c2.4,0,5.6-0.2,6.4,2.9c1,3.8,1.9,5.1,6.1,2.9
	c3.2-1.6,4.1,2.3,5.4,4.5c-4-0.2-4.1,2.5-4,5.4c0.1,4,0.3,7.9-2.9,11.3c-2.5,2.7-5.1,4.4-8.5,4.4c-3.5-0.1-5,1.7-5.4,4.6
	c-0.5,4-2.8,6.7-5.5,9.3c-1.5,1.4-3.6,2.8-2.5,5.5c0.4,1-0.1,1.7-1.1,1.6c-1-0.1-1.3-0.9-1.3-1.9c0.3-4.3-0.5-8.7,2-12.6
	c1.2-1.9,1.6-3.9-0.1-5.5c-1.9-1.8-3.9-0.7-5.3,0.8c-6.4,6.8-15.5,4.5-23.1,7.2c-4.1,1.5-5.7-1.1-4.8-6.8c2.5-1.4,5.2-0.4,7.9-0.6
	c5.1-0.4,6.4-1.7,7.4-6.9C603.6,492.6,608.7,489.5,613.4,486.1z"/>
<path class="st69" d="M522.5,529.6c2.7-0.2,4.1,1.1,4,3.9c-0.1,3.4,2.1,3.9,5,4.1c6.7,0.5,13.1-0.9,19.6-2.2c1.1-0.2,2-0.1,2.9,0.4
	c2.9,1.5,5.6,1,8-0.9c3.4-2.6,7-3.1,10.9-1.2c1.5,0.7,2.9,0.8,4.3-0.1c6.3-4,13.7-5.1,20.4-8c1.5-0.6,2.7-0.9,3.5,0.4
	c2.9,4.5,7.8,4.7,12.3,5.6c1,1.3,2,2.7,3,4c-1.4,2.2-2.9,4.4-6,4.1c-0.3-2.6-2.2-3.6-4.3-2.9c-5.4,1.7-10.8,3.5-16.4,4.7
	c-0.2,0.1-0.3,0.9-0.5,1.4c0,0.7,0.1,1.3,0.1,2c1,2.5-0.8,3.7-2.5,4.9c-3.3,1.1-6.6,1.1-10,0.2c-3.5-1.7-6.6-3.9-8.1-7.7
	c-1.3-3.3-2.8-2.8-5-0.4c-5.1,5.4-7.7,5.9-13.6,3.1c-1.2-2.5-3.3-2.8-5.8-2.7c-1.8,0.1-3.6,0-5.5,0c-2.4-0.1-4.7,0-6.7,1.4
	c-1,0.7-2.3,1-3.4,0.5c-3.4-1.6-5.7-0.9-8,2.3c-1.6,2.2-4,0.5-5.9-0.5c-2.6-1.5-4.6-3.5-3.1-6.9
	C518.3,539.1,519.5,533.3,522.5,529.6z"/>
<path class="st70" d="M613.4,486.1c-0.8,2.8-3.3,4.1-5.1,6c-2.5,2.6-5.3,4.5-4.3,9.2c0.7,3.2-3,5.2-6,5.7c-3.6,0.5-7.3,0.9-10.9-0.7
	c0-0.7,0-1.4,0-2.1c-0.6-0.6-1.2-1.2-1.4-2c-0.9-4-2.9-6.6-7.5-6.3c-1,0.1-1.9-0.6-2.4-1.5c-0.1-3.1,3.4-2.8,4.5-4.8
	c0.9-0.8,1.7-1.6,2.5-2.4c2.6-2.4,4.3-5.9,8.4-6.4c0.7-0.1,1.4-0.2,2.2-0.2c2.9-0.1,4.5,1.3,5.6,4c2.9,7,3.3,7,9,1.8
	c1.5-1.4,2.7-3.6,5.4-2.4C613.4,484.7,613.4,485.4,613.4,486.1z"/>
<path class="st71" d="M575,521.5c0,2.2-0.7,4.3-1.7,6.2c-2.2,4.1-8.7,4-11.3,0c-4.5-6.8-4.4-10.9,0.7-17.6c0.9-1.2,1.3-2.3,1.2-3.7
	c2.1-5.3,3.2-5.6,7.1-2.1C571.6,510.2,575.8,515.3,575,521.5z"/>
<path class="st72" d="M571,504.3c-3.2-2.2-5.2-0.2-7.1,2.1c-1,0.3-2,0.6-3,0.9c-0.1-0.1-0.4-0.3-0.3-0.3c1.9-5.4,0.4-10.9,0.5-16.4
	c2-1.1,3.9-1.1,5.7,0.2c1.3,1.8,1.6,4.4,3.6,5.7c2.1,1.4,1.2-1,1.8-1.5c0.9-1.6,2.2-2.1,3.8-0.9c0.5,0.2,0.9,0.5,1.4,0.6
	c8.3,0.2,9.2,1,9.7,9.5c-2.7,0.2-5.3,0.2-7.7-1.3C576.2,501,573.7,503.6,571,504.3z"/>
<path class="st73" d="M610.4,539.7c2.3-1,3.2-3.9,6-4.1c1.3,0.7,2.6,1.1,4,1c4.6-2.1,6.5,1.8,9.1,4c2.7,0,1.3,4.1,4,4.2
	c-2.4,3.1-6.8,2.8-9.5,5.4c-0.7,0.7-1.9-0.1-1.9-1.4c0-4.9-3.6-5.3-6.9-4.8C611.3,544.6,610.6,542.7,610.4,539.7z"/>
<path class="st74" d="M612.4,525.5c-4.4-0.6-8.7-1.4-12.6-3.8c-1.7-1.1-3.4-2-3.6-4.3c4.7-1.6,9.7-2.3,13.6-5.7c1.2-1.1,3-2,4.6-0.9
	c1.6,1.1,1.2,3.1,0.8,4.6C614.5,518.9,613.4,522.2,612.4,525.5z"/>
<path class="st68" d="M629.5,540.6c-3.7,0.3-5.2-4.6-9.1-4c0.6-4.9,3-8.7,7.3-11.2c1.2-0.7,2.2-2.5,3.9-1c1.3,1.1,1.1,2.8,0.7,4.2
	C631.2,532.6,628.8,536.2,629.5,540.6z"/>
<path class="st75" d="M613.3,484c-3.1,1.2-4.6,4.1-7,6.2c-3.7,3.2-5.1,2.6-7.7-1.5c-1.4-2.3,0-7.5-5.5-6.6c0.6-3.2,4.4-4.7,4.2-8.2
	c0.4-0.9,1-1.8,1.9-2.2c0.5-0.1,1-0.1,1.5,0c2.6,1.8,1.8,4.4,1.8,6.8c0,1.7-0.1,3.6,1.9,4.2s3.1-1,4.1-2.3c2.4-3.2,3.1-6.8,3.2-10.8
	c0-3.2-1-6.7,1.5-9.5c2.4,1.8,2,4.5,2.2,7C615.2,472.7,616.1,478.6,613.3,484z"/>
<path class="st76" d="M538.7,565.9c-1.4-0.9-2.8-0.5-4.3-0.2c-1.8,0.4-3.5-0.2-3.6-2.3c-0.1-1.8,1.2-2.7,3-2.3
	c1.4,0.3,2.2,0,2.8-1.2c1.3-1.5,2.2-3.3,3.4-5c2.2-3.1,5.2-4.5,8.7-3.4c4.3,1.3,8.5,1.5,12.7-0.1c1.9-0.7,4-0.2,6-0.2
	c5.6-0.4,11.3-0.5,16.9,0c3.5-0.1,6,2,8.8,3.6c0.3,0,0.7,0,1,0c0,0.7,0,1.3,0,2c-3.7,3-7.4,2.1-11.1,0c-1,0-2,0-3,0
	c-5.5,0.7-10.9,2.4-16.5,0.8c-1.3-0.4-2.6,0.3-3.9,0.5c-3,1.1-5.9,1.5-9.2,0.6c-3.8-1.1-7.4-0.5-8.8,4.2
	C541.4,564.5,540.3,565.6,538.7,565.9z"/>
<path class="st77" d="M583.1,556.8c3.7,0,7.4,0,11.1,0c3.8,0,7.7,0.2,11.5,0c4.2-0.3,7.1,1.2,8.6,5.1c-3.8-0.3-7.1,0.1-10,3.2
	c-2.9,3-7.7,1.5-11.2,3.7c-0.4,0.2-2.1-0.5-2.1-0.9C590.7,562.5,585.3,560.8,583.1,556.8z"/>
<path class="st78" d="M538.7,565.9c0.6-1,1.4-1.9,1.8-3c2.1-5.9,5.4-8.1,11.1-5.7c3,1.2,4.9,0.3,7.3-0.4c1.5,3.2-1.4,3.7-3,5
	c-2.8,2.3-5.9,3.6-9.6,3.1c-2.8-0.4-5,1.7-7.6,2.1C538.7,566.6,538.7,566.3,538.7,565.9z"/>
<path class="st77" d="M555.9,561.8c1-1.7,2-3.3,3-5c2.3-1.5,4.4-1.2,7.2-0.5c4.4,1.1,9.3,0.4,14,0.5
	C572.3,559.9,564.2,561.5,555.9,561.8z"/>
<path class="st4" d="M593.2,554.8c-3.1,0.9-5.2-2.3-8.1-2.1c-1.4-2.4,1.1-2.8,2-4c0.8-1.3,1.5-2.6,2.3-3.9c4.1-0.5,4.9,2.3,3.4,4.8
	C591.3,551.9,593,553.1,593.2,554.8z"/>
<path class="st79" d="M534.8,359.9c-0.7,1-1.4,2.1-2.1,3.1c-3.2,1.4-5.6-2.4-8.8-1.4c-5.7,1.9-11.5,3.3-17.6,3.4
	c-0.7,0-1.1,0.7-1.5,1.2c-4.8,3.2-9.5,2-11.7-3.2c-1.5-3.5-2.5-7.2-4.9-10.3c-1.1-3-2.1-6-3.2-9c1.1-2.5,3.3-2.8,4.9-1.4
	c2.2,1.9,5,1.7,7.2,3.2c1.7,1.1,3.4,1.1,5.2,0.3c4.1-1.7,8.4-1.8,12.8-1.1c3.6,0.5,7.3,0.9,11,0.2c3.1-0.6,6.4-0.5,8.1-4
	c0.4-0.8,1.4-0.8,2.2-0.1c0,4.6,0,9.2,0.1,13.8C536.6,356.6,536.2,358.4,534.8,359.9z"/>
<path class="st80" d="M536.5,340.8c-1.5,0.2-1.9,1.2-1.9,2.5c0.1,2.3-1.8,3.1-3.3,3c-5.9-0.4-11.8,1.5-17.8-0.1
	c-4.2-1.1-8.6-0.4-12.4,2.4c-0.7,0.5-1.9,1.3-2.1,0.7c-1.6-4.5-7.2-1.9-9.4-5.6c-1-1.7-3-0.4-4.5,0.3c-3-3.6-4-7.3-1.5-11.7
	c2.6-4.6,4.8-9.4,10.7-10.5c0.3,4,0.6,8,0.9,11.9c1.1,0.9,3.9-0.2,3.4,2.5c-0.4,2.4-2.3,3.5-5,3.3c0.8,3,2.5,3.9,5.3,2.7
	c1.2-0.5,2.4-1.2,3.8-1.1c6.5,0.5,13.2-0.8,19.6,1.3c1.3,0.4,2.1-0.5,3-1.3c1.2-1,2.5-2.1,4.2-1.3c2.4-2.7,5.3-0.7,8-1
	C537.3,339.4,536.9,340.1,536.5,340.8z"/>
<path class="st81" d="M488.3,352.8c4.3,1.5,4.6,5.8,5.9,9.2c1.7,4.7,6.3,6.2,10.2,2.9c2-1.1,3,0.2,3.8,1.7c0.1,4.2-1.2,7.3-5.7,8.3
	c-5.9-3.7-10.8-8.4-12.2-15.6c-0.2-1.2-0.6-2.2-1.9-2.5C488.2,355.5,488.3,354.2,488.3,352.8z"/>
<path class="st82" d="M526.5,341.8c-0.4,2-2,3.2-3.6,2.5c-5.8-2.7-11.9-1-17.8-1.5c-1-0.1-2-0.1-2.8-0.9c-1.2-2.3-0.9-4.4,1.1-6.2
	c4.8,2.7,10.5,2.7,14,0C519.1,339.7,522.8,340.8,526.5,341.8z"/>
<path class="st83" d="M526.5,341.8c-5.3,1.9-8.6-0.4-9.1-6.1c0.9,0.3,1.9,1.1,2.7,0.8c1-0.3,2.4-1.3,2.5-2.1c0.2-1.3-1.6-0.4-2.2-1
	c-0.4-0.4-0.5-1.1-0.8-1.7c3.7-0.6,7.1,0.2,9.7,3c0.1,1.6,0.1,3.3,0.2,4.9C528.6,340.4,527.6,341.1,526.5,341.8z"/>
<path class="st84" d="M503.5,335.7c0,2.1-0.2,4.2-1.1,6.2c-1.6,0.9-3.1,2-4.8,2.6c-2.8,0.9-4.5-0.7-5.2-3.2c-0.5-2-0.9-4.4,2.8-2.8
	c0.5,0.2,1.9-1.5,2.6-2.2c0.3-2.4-4,1-2.6-2.5C498.5,332.1,501.3,332.5,503.5,335.7z"/>
<path class="st85" d="M524.5,409.4c-2.4,1.4-4.7,2.7-7.1,4.1c-0.5,0.4-1.1,0.8-1.8,0.8c-9.2-0.3-14.6,5.7-19.9,12
	c-2.4,2.8-3.5,7.4-8.5,7.4c-3.5,0.2-6.7,3.6-10.9,0.2c1.1,6.2-3.8,4.3-6.4,5.6c0.1-0.5,0.2-1.1,0.4-1.6c1.3-1.4,2.5-2.9,3.8-4.3
	c0.3-0.7,0.7-1.4,1-2.1c0.4-0.1,0.8-0.2,1.2-0.3c0.6-2,1.3-3.9,3.4-4.9c2.9-1.9,5.5-4,5.1-8c0.1-0.7,0.3-1.4,0.7-2
	c1.3-1.8,3.2-2.3,5.2-1.9c2.1,0.5,3.8-0.4,5.6-1c1,0.5,2.5,1.4,3.1,0.1c3.5-7,9.5-9,16.8-8.6c7,0.3,10.9-5,15.3-9.1
	c6-5.7,9.7-6,16.5-1c2,1.5,4.1,3,6.8,2.6c0.6,4.2-2.2,4.2-5.1,3.9c-3.4-3.3-8-3.3-12.1-3.2c-3.9,0.1-6.8,3.2-9,6.4
	C527.4,406.2,526.3,408.1,524.5,409.4z"/>
<path class="st86" d="M469.7,379.3c3.4,1.3,6.7,2.6,10.1,3.8c1-1.8-0.6-2.5-1-3.6c-1.4-3.9,1.1-7.8,5.2-7.4c3.3,0.3,6.6,1.4,9,3.9
	c3.2,3.4,6.1,7.1,9.3,10.4c1.6,1.6,2,2.7,0.1,3.9c-2.6,1.7-2.5,3.7-1.2,6c2.3,3.9-2.3,7.2-1.1,11c-1.8,1.2-3.5,1-5-0.6
	c0.3-3.6,2.2-6.9,1.5-10.7c-0.3-1.9-0.7-3.6-2.5-4.7c-1.7-1-3.6-2.7-5.5-1.4c-1.6,1.2,0.4,3.1,0.4,4.6c0,4.8,4.4,7.8,4.6,12.4
	c-2.9,3.3-4.9,1-6.6-1.4c-1.2-1.7-1.5-4-3.6-5.1c-4-1.7-4.9-6.4-8.3-8.6c-2.3-1.6-1.6-5.2-4.3-6.6
	C469.6,383.7,468.1,381.8,469.7,379.3z"/>
<path class="st87" d="M502.4,374.9c2.2-2.3,4.6-4.5,5-8c6.3,0.1,11.3-2.9,15.9-6.9c3.8-1.1,6.5,1.4,9.4,3c0.6,3.7-3.4,5-4.1,8
	c-2.1,1.3-4.3,2.2-6.1,4l0,0c-6.7,3.3-13.5,2.3-20.2,0L502.4,374.9z"/>
<path class="st88" d="M495.3,406.4c1.6,0.3,3.3,0.7,4.9,1c-0.9,2.3-3.9,3.2-4,6c-0.7,2.6-1.8,4.2-4.8,2.5c-1.7-1-3.5-0.4-5.1,0.6
	c-0.4-0.3-1-0.6-1-1c-0.4-5.4-1.7-10.6-1.4-16.1c3.1,0.3,3.2,3,4.1,5c1,2.5,2.2,4.1,5.2,2.9C494.2,407.8,494.7,406.8,495.3,406.4z"
	/>
<path class="st89" d="M502.3,375.1c6.7,0,13.5,0,20.2,0c-2.7,3.9-10.9,5.9-15.6,3.3C505.4,377.5,502.6,377.8,502.3,375.1z"/>
<path class="st89" d="M522.5,375.1c0.3-3.9,3-4.2,6.1-4C527.6,374,525.6,375.4,522.5,375.1z"/>
<path class="st90" d="M487.2,433.6c3.5-2,5.4-5.5,7.6-8.6c5.7-7.8,12.5-12.8,22.6-11.6c-0.6,1.1-1.5,2.1-2.7,1.9
	c-6-0.9-7.7,3.4-9.6,7.6c-0.8,1.9-1.6,3.9,0.3,5.5c1.7,1.4,3.6,1.4,5.5,0.1c3-2,5.8-2.2,8.4,0.9c1.4,1.6,4.3,2.5,3.7,4.9
	c-0.6,2.5-3.5,0.8-5.3,1.4c-5.9,2.1-11.7,4.2-17.6,6.4c-0.7,0.3-1.7,1.8-1.5,2.3c1.2,3.2-0.8,6.3-0.4,9.4c2.7,3.3-1.4,6-0.9,9.1
	c-0.1,0.5-0.4,0.9-0.6,1.4c-0.8,0.9-1.6,1.9-2.7,2.5c-3.8,3.1-8.8,1.7-12.9,3.7c-0.7,0.6-1.4,1.1-2.2,1.6c-2.1,0.9-0.9,3.9-3,4.8
	c-3.4-0.8-2.6-3.7-2.9-6c4.9-4.9,11.8-4.8,17.7-7.1c3.3-1.3,4.3-2.7,2.3-5.9c-1.2-2-1.9-4.3-2.4-6.6c-0.7-3.3-1.7-6.8,3.1-8.1
	c0.4-0.1,1.1-0.6,1.2-0.9c0.3-4.1,2.4-6.4,6.1-7.9c1.4-0.6,0.6-2.4-1.1-2.8c-2.2-0.4-4,0.2-5.2,2.2
	C492,438.4,490.6,438.3,487.2,433.6z"/>
<path class="st91" d="M505.3,512.4c-8.4,0.2-9.4,2-6,10.1c-2.4,4.5-7.3,5.4-11.2,7.1c-4.4,1.9-8.6-1-12.2-3.8
	c-2.8-1.9-3.2-4.8-3.3-7.9c-0.1-2,0.1-4-0.5-5.9c-0.8-2.4-2-2.3-3.5-0.6c-2.4,2.1-4.4,4.6-6.6,6.8c-1,0.9-2,2.1-3.4,1.9
	c-4.3-0.6-7.1-3.6-9.3-6.9c-2-3-4.5-6.1-1.4-9.9c2.8,1.5,4,4.4,5.9,6.7c1.5,1.9,3.3,3,5.7,1.9c2.3-1,2.6-2.9,2.3-5.4
	c-0.7-5.8-0.1-11.5,2.1-17c0.4-1.1,0.7-2.4,2.3-2.1c1.6,0.3,1.3,1.5,1.2,2.7c-0.1,4.3,4.2,10.3,8.1,11.6c1.5,0.5,2.2-0.3,2.7-1.5
	c0.6-1.7,0.9-3.7,3.2-4c4,0.4,6.7,3.1,9.7,5.4c0.9,0.8,1.7,1.7,2.4,2.8c1.5,3.2,4.3,4,7.5,4.5C502.8,509.2,505.5,508.9,505.3,512.4z
	"/>
<path class="st92" d="M447.8,503.3c-0.8,7.6,4.4,11.6,9.4,15.6c1.4,1.1,2.3-0.3,3.2-1.3c2.4-2.6,4.6-5.3,7.5-7.2
	c1.7,1.6,1.3,3.6,0.2,5c-4.6,6.1-2.9,11.9,0.3,17.7c0.6,1,1.2,2,1.4,3.2c0.2,1.6-0.2,3.1-1.1,4.4c-1.2,1.4-2.4,2.7-4.5,2.5
	c-0.5-0.1-0.9-0.4-1.3-0.7c-0.7-0.9-1.8-1.8-1.8-2.9c0.3-8.4-7-12.7-10.4-19.1c-0.7-2.5-2.8-3.2-5-4c-0.5-4.8-3.2-9.3-1.9-14.3
	c0.9-1.9,2.1-2.2,3.8-0.9C447.8,502,447.8,502.6,447.8,503.3z"/>
<path class="st93" d="M490.2,502.3c-3.1-1.9-6.5-3.4-9.1-6.1c-6.9-5-5.4-12.3-5.2-19.2c0.9-1.9-1.4-5.1,2.2-5.9
	c1.3,1.1,1.3,2.5,1.3,4c-0.1,1.3-0.2,2.6,0.7,3.8c0.6,1,1,2.1,0.9,3.3c-2,6.1,2.2,9.5,5.6,13.4C488.4,497.5,491.8,498.6,490.2,502.3
	z"/>
<path class="st91" d="M447.8,501.3c-1.4-0.1-2.6,0.2-3.8,0.9c0-2,0-4.1,0.1-6.1c1.6-1.9,2.9-1.5,3.6,0.7
	C448,498.2,447.7,499.8,447.8,501.3z"/>
<path class="st94" d="M500.3,542.6c0-0.7,0-1.3-0.1-2c-0.6-0.7-0.6-1.5-0.1-2.2c3.2-1.7,5.5,1.2,8.3,1.5c3.3,2.4,5.5,6.1,9.6,7.7
	c6.4,2.6,9.7,2,14.2-3.1c1.9-2.2,4.2-3.1,7.1-2.9c1.7,0,3.4-0.1,5.1,0c3.2,0.2,5,1.6,4.6,5.1c-0.4,0.3-0.8,0.8-1.3,0.7
	c-5.7-1.3-10.5-0.6-13.1,5.6c-0.3,0.7-1.4,1.1-2.2,1c-5.2-0.7-10.3,1-15.5-0.1c-4.9,0.5-8-2-9.9-6.2
	C505.7,544.8,502.4,544.6,500.3,542.6L500.3,542.6z"/>
<path class="st95" d="M500.3,538.6c0,0.7,0,1.4,0,2c-1.9-0.6-3.7-2.8-4.5,1.7c-0.5,2.8-4.1,4.8-6.9,6.1c-4.8,2.2-7.3,5.4-6.8,10.9
	c0.2,1.9,1.3,4.7-1.9,5.4c-3.1,0.7-5.1-1-6.1-3.9c0-0.7,0-1.3,0-2c1.3-0.8,2.4,1,3.8,0.3c0.1-3.1-3.9-4.8-3-7.7
	c0.8-3,4.8-1.9,6.7-3.8c1.7-1.7,3.2-3.5,4.6-5.4c3.2-4.5,7.5-6.5,12.9-6.6C500.3,536.3,501.3,537,500.3,538.6z"/>
<path class="st96" d="M498.3,536.6c-5.5,1.3-10,3.8-12.9,9.1c-1.9,3.3-4.9,6-10.1,5.1c1.6,2.5,2.7,4.3,3.9,6.1
	c1.3,1.9,1.7,4-0.3,5.3c-2.2,1.4-2.4-1.5-3.6-2.4c-0.4-0.3-0.8-0.6-1.2-0.9c-4.8-2.8-8.3-6.9-11.4-11.3c-1.1-1.5-1.8-2.4-3.7-1.9
	c0.9-1.5-2.5-3.9,1-5c1.7-0.1,2.9,1,4.1,2v0.1c1.7,1.7,2.8,3.8,4.3,5.5c-0.1-3.7,1.9-5.2,5.3-4.2c2.8,0.8,4.2-0.5,6.1-2
	c4-3.2,8.4-6,12.2-9.6c1.7-1.6,4.1-1.6,6.1-0.2C499.6,533.4,499.6,535,498.3,536.6z"/>
<path class="st97" d="M463.9,542.7c-1.8,0.2-3.2-0.3-4.1-2c0.8-5.5-3.5-3.4-6-4.1c0.8-5.7-1.6-10.8-3-16.1c3.9-0.4,3.1,3.7,5.1,5.3
	c3.7,2.9,7.1,6.1,6.1,11.8C461.8,539.1,463.3,541,463.9,542.7z"/>
<path class="st48" d="M500.4,542.6c4.1-0.4,6.9,0.7,8.5,5.1c1.1,2.9,3.3,6,7.6,5.1c0.6,0.6,0.5,1.3,0,2c-3.8-1.3-4.5,1.3-5,4
	c-4.1-0.1-9-3.5-8.7-7.4C502.9,548,501,545.6,500.4,542.6z"/>
<path class="st98" d="M516.5,554.8c0-0.7,0-1.3,0-2c3.7,0,7.3,0,11,0c3.4-0.1,7.4,1.3,7.7-4.7c0.1-2.6,6.4-4.2,9.5-2.7
	c1.4,0.6,2.6,1.5,4.2,1.3c1.7-0.4,3.2,0.6,4.8,0.8c2.2,1.3,4.4,0.3,6.7,0c2.1-0.3,4.3-0.5,6.3,0.5c0.5,0.3,0.8,0.6,1.1,1.1
	c0.6,1.4,0.3,2.6-0.6,3.7c-3.3,0.1-6.5-0.3-9.6,1.7c-1.7,1.1-4.1,0.4-6.2-0.6c-3.8-1.7-7.6-2.5-10,2.6c-0.8,1.7-2.3,3.3-4.6,3.5
	c-2-4.4-6.3-4.4-10.2-5C523.1,556.3,519.8,556.4,516.5,554.8L516.5,554.8z"/>
<path class="st48" d="M516.5,554.8c3.3,0,6.7,0,10,0.1C523.7,557.7,519.2,557.6,516.5,554.8z"/>
<path class="st99" d="M524.5,409.4c1-6.6,6.9-9.2,10.8-13.5c0.8-0.9,1.9-0.3,2.7,0.4c1,0.7,2.2,1.4,3.2,0.9c4.7-2.3,6.6,0.9,8.5,4.2
	c-0.7,0-1.3,0-2,0.1c-1,0-2,0-3,0c-6.3,2.2-12.4,4.8-18.2,8C525.9,409.4,525.2,409.4,524.5,409.4z"/>
<path class="st100" d="M544.7,403.3c1.9,1.6,5.9,1.2,5.8,4.4c-0.2,3.6-4.1,4.2-6.7,5.8c-4.6,2.9-9.5,5.1-14.7,6.7
	c-1.3,0.4-2.5,1-3.8,1.2c-1.6,0.2-3.5,0.3-4.4-1.5c-0.8-1.7,0.7-2.6,1.5-3.9c2-3.2,6-3.8,8.2-6.6C534.3,404,539.8,401.6,544.7,403.3
	z"/>
<path class="st101" d="M534.6,433.6c5.2-1.6,10.6-2.6,16.1-2.1c0.8,1,0.5,1.9-0.4,2.7c-3.6,1.1-7.6,1.4-9.8,5.2
	c-0.5,0.8-1.8,0.7-2.8,0.7c-10.2-0.5-17.3,4.1-22,13c-1.2,2.4-3.2,4.1-5,6c-2.4,0.5-4.1,1.9-5.8,3.6c-3.2,3-4.6,2.7-7.4-1.1
	c0.8-3.6,2.8-6.6,4.7-9.6l0,0c3-1.6,5.2-4.3,8-6.1l0,0c3.1-1.4,5.1-4.4,8.2-5.9C524,437.9,529.9,437.3,534.6,433.6z"/>
<path class="st90" d="M544.7,403.3c-6.1-1.1-9,4.9-14.1,6.1c-1.3,0-2.7,0-4,0c4.9-5.3,10.9-8.2,18.2-8
	C544.7,402,544.7,402.7,544.7,403.3z"/>
<path class="st102" d="M502.3,451.8c0.2,4-3,6.6-3.9,10.2c0.6,2.2-0.2,2.8-2.2,1.8c-1.1-3.7,2.4-6.4,2.1-10
	C499.6,453.2,501,452.5,502.3,451.8z"/>
<path class="st102" d="M518.5,439.8c-1.9,3.1-3.7,6.3-8.2,5.9C512.3,442.6,514.1,439.3,518.5,439.8z"/>
<path class="st102" d="M510.3,445.7c-1.8,3.2-3.7,6.2-8,6.1C504.1,448.6,506,445.5,510.3,445.7z"/>
<path class="st103" d="M613.4,459.9c-0.5,6.5,1.4,13.3-2,19.6c-1.1,2-2.8,3.3-4.2,4.8c-1.1,1.2-2.8,0.8-4.2,0
	c-2-1.2-2.5-3.1-2.2-5.2c0.4-2.5,1.2-4.9-0.5-7.2c-1.8-4.2-1.1-8.2,1.2-12c4,0.3,7.6-4.4,11.8-1
	C613.3,459.3,613.3,459.6,613.4,459.9z"/>
<path class="st104" d="M549.8,433.6c0.8-0.5,1-1.2,1-2.1c0.3-0.5,0.7-1.1,1-1.6c3,2.2,7.5,0.5,10.1,3.7c2.1,1.6,4.9,0.6,7.1,2l0,0
	c0.6,0.8,0.6,1.6-0.1,2.5c-4.1,2.1-8.4,3.5-13,3C551.1,440.5,549,437.8,549.8,433.6z"/>
<path class="st105" d="M569,437.7c0-0.7,0-1.4,0-2c4.6,0.1,9.3,0.1,13.9,0.2c2.7,2,5.5,3.9,8.2,5.9c0.2,2,2,2.8,3.1,4.1
	c-2,4.4-4.8,2.8-7.6,0.9c-3.1-3.7-6.9-5.9-11.8-6.2C573.1,439.2,570.4,439.6,569,437.7z"/>
<path class="st105" d="M569,435.6c-2.5-0.3-5.4,1-7.1-2C564.4,433.6,567,433.4,569,435.6z"/>
<path class="st106" d="M575,439.7c5.5-1,9.3,1.5,12.1,6.1c-0.4,1.8-1.1,3.5,1.1,4.8c1.9,1.1,3.4,0.8,5-0.6c1.2-1.1,2.6-1.5,4-0.2
	c0.6,0.7,1.3,1.4,1.9,2.1c2.3,6.8,0.9,13.6,0.2,20.3c-0.3,0.6-0.7,1.3-1,1.9c-1,1-1,3.3-3.3,2.1c-1.4-1.6-0.9-3.4-0.3-5.2
	c0.8-2.2,1.2-4.5,1.4-6.9c0.2-3.7-0.8-6.1-5.1-7.1c-7.3-1.7-13.6-5.4-18.7-11c-0.9-1-1.8-2-1.9-3.4C571,440.2,572.1,438.4,575,439.7
	z"/>
<path class="st107" d="M597.3,449.8c-1.4,0-2.6,0.2-3.6,1.4c-2.2,2.6-7.4,1.9-8.9-1.1c-1.2-2.4-0.3-3.8,2.3-4.2
	c2.4,1.3,4.7,2.4,7.1,0c1,0,1.9,0.1,2.9,0.1C597.1,447.2,597.2,448.5,597.3,449.8z"/>
<path class="st107" d="M599.4,472.2c-0.1-6.8-0.1-13.6-0.2-20.3c4.3,1.7,1.6,5.4,2.3,8.1c0.3,4.1-0.9,8-1.2,12
	C600,472.1,599.7,472.1,599.4,472.2z"/>
<path class="st108" d="M561,491.3c1,2.8,2,5.7,3.2,8.4c0.6,1.4,0.3,2.2-0.9,2.9c-1.7,1.1-2.5,2.6-2.3,4.7c-1.7,3.5-4.1,6.3-8.1,7
	c-3.9-1.3-7.6-2.9-9.7-6.8c-0.2-1.2-0.1-2.3,0.2-3.4c-0.3-2.4,2.7-4.1,1.3-6.7c-0.7-1.3-1.6-2.4-1.4-4c3.6-7.4,9-9.1,15.9-5.1
	C560.1,489,561.5,489.6,561,491.3z"/>
<path class="st109" d="M476,524.5c1.5,0.9,3,2,4.6,2.7c3.7,1.6,7.4,2.8,10.7-1.2c2-2.4,5.9-1.1,7.9-3.5c3.8,1.8,6.6,4.8,9.1,8
	c0.9,0.8,1,1.9,0.7,3c-0.7,1.8-2,3.1-3.8,3.8c-2.5,0.6-3.6-0.9-4.7-2.8c-2.8-4.6-5-5.2-9.2-2.3c-1.9,1.4-3.9,1.8-6.1,1.5
	c-4-1.3-7.3-3.6-9.7-7.1C475.4,525.9,475.5,525.1,476,524.5z"/>
<path class="st110" d="M540.7,514.4c-3.7,3.7-13.2,5.5-18.1,3c-1.6-0.8-3.2-1.2-4.7-0.8c-4.4,1.2-6.8-1.8-9.5-4.2
	c0-1.1,0.3-2,1.4-2.4c5.3,0.7,10.6,0.9,15.4,3.8c2.1,1.3,4.5,1.2,6.7-0.2c3.9-1.6,5.9-6.3,10.5-6.7
	C544,509.9,541.3,511.9,540.7,514.4z"/>
<path class="st111" d="M508.4,533.6c0-1,0-2,0-3.1c2.2-2.5,4.1-5.3,7-7c0.3,0.2,0.5,0.5,0.5,0.8c0.5,5.9,0.5,5.9,6.5,5.2h0.1
	c0.5,4.2-2.8,6.9-4.6,10.1c-1.5,2.6-3.7-0.2-5.5-1C509.3,538.4,508.9,536,508.4,533.6z"/>
<path class="st112" d="M522.5,529.5c-1.9,1.9-3.7,3.4-6.6,1.7c-4.2-2.5-0.4-5.1-0.4-7.7c1.3-3.9,3.9-3,6.7-2
	c3.4,1.3,1.5,3.3,0.8,5.1C522.7,527.6,522.6,528.6,522.5,529.5z"/>
<path class="st113" d="M540.7,514.4c-2-3.1,0.9-4.8,2-7c0.3-0.3,0.6-0.4,1-0.1c2.3,3.3,6.9,3.7,9.1,7.1
	C548.8,518,544.8,516.7,540.7,514.4z"/>
<path class="st114" d="M509.4,510.4c-0.3,0.7-0.7,1.3-1,2c-1,0-2,0-3,0c-1.2-2.5-3.7-1.5-5.6-2.1c-3.2-0.9-7.6-0.6-7.5-5.9
	C496.2,503.7,506.4,507.2,509.4,510.4z"/>
<path class="st115" d="M508.4,533.6c2.3,0.9,2.2,3.8,4,5.1c-0.9,4.8,3.1,5.7,6.1,7.3c1.2,0.7,1.7-0.1,2-1.3c1.3-4.5,3.8-5.1,7.5-2.4
	c0.9,0.7,2.2,1.3,3.2,0.2c2.1-2.4,4.9-1.8,7.5-1.8c0.6,0.7,0.6,1.3-0.1,2c-2.5-0.2-5,1.5-5.4,3c-1.9,7.7-7.9,5.5-12.3,4.7
	c-5.5-0.9-9.9-4.5-12.6-9.7c-1-1.4-3.9-1.3-3-4.1C506,535.3,507,534.3,508.4,533.6z"/>
<path class="st116" d="M550.9,544.7c6.1,1.7,10.3-0.9,13.4-6c1.4-2.2,3.3-3,4.4-0.1c1.6,4.1,4.2,7.3,7.4,10.1c-3,2.6-6,2.2-9.1,0
	l0,0c-2.2-2.4-5-0.9-7.5-0.9s-4.9,0.1-7.3-0.3C550.7,547,549.7,546.3,550.9,544.7z"/>
<path class="st117" d="M566.9,548.7c3,0,6.1,0,9.1,0c3.7,0,7.4,0,11,0c0.2,1.8-2,2.4-2,4c-6,0-12,0-18.1,0
	C567,551.4,567,550.1,566.9,548.7z"/>
<path class="st118" d="M550.9,544.7c-0.1,1.3,0.6,2,1.9,2.1c0.6,0.7,0.6,1.3,0,2c-1.6-0.1-3-0.7-4-2c-1.7-5.6-6.4-3.7-10.2-4
	c0-0.7,0.1-1.3,0.1-2c2.7,0,5.4,0.2,8.1-0.1C549.8,540.4,551.1,541.7,550.9,544.7z"/>
<path class="st119" d="M571,442.7c6.6,6.7,13.7,12.1,23.6,13.5c4.3,0.6,2.8,5.6,3.1,8.8c0.3,3.9-2.6,7.1-2.5,11
	c1.5,4-2.6,4.1-4.2,5.9c-3.8,0.5-4.5,5.2-7.9,6.2c-6.2,0.8-12.2,4.3-18.7,1.1c-1.3-0.6-3,0-4.5-0.3c-3-0.5-4.8-2.4-5.4-5.3
	c-0.6-3.1,1.3-4.6,3.8-5.8c0.8-0.4,1.6-0.6,2.3-0.9c1.9-0.9,4.5-1.3,4.7-3.9c0.2-2.7-1.8-4.3-4.1-5.2c-3.3-1.3-5.2-3.6-6.2-6.8
	c-0.7-2-2-3.5-4-4.3c-0.4-0.2-0.8-0.6-1.2-0.9c-2.5-3.2-4.8-1.8-7.2,0.3c-5.9,5.2-12,10.1-20.7,8.9c-2.9-0.4-5.6,0.9-8.4,1.1
	c-2.3,0.1-4.6,0-5.5-2.5c-0.9-2.3,0.5-3.8,2.3-5c-0.5-3.3,3.3-3.6,4.1-6c6.3-3.6,12.4-7.7,19.3-10.3c2.8-1.1,5.1-0.7,7.6,0.9
	c4,2.5,8,3.5,11.8-0.3c0.8-0.8,2-1.5,3.1-1.4C561.1,442.1,566.1,441.3,571,442.7z"/>
<path class="st120" d="M510.4,458.8c0.5,1.9-3.2,3.4-0.8,5.3c1.8,1.5,4.1,0.8,6.3,0.2c2.9-0.8,5.7-1.3,8.8-0.5c3,0.7,5.7,0,8.2-2.4
	c3.2-3.1,7.9-3.9,11-7.7c1.8-2.3,6-2.9,7,2.2c-2.3,2.1-6.9,1.4-7.2,6c-0.1,1.3-1.2,2.8,0.5,3.6c1.7,0.8,2.8-0.5,3.8-1.7
	c0.9-1.1,1.2-2.4,1.3-3.8c0.2-1.5,0.3-3,1.6-4.1c2.9-0.3,4.8,0.7,5.5,3.8c0.8,3.4,2,6,6.2,6.9c3,0.6,5.1,3.7,5.2,6.8
	c0.1,3.3-3.1,3.9-5.7,4.8c-1.1,0.4-2.3,0.7-3.3,1.1c-1.9,0.8-4.1,1.8-2.9,4.3c1,2,1.6,5.2,5.3,4c2.2-0.7,4.3-0.8,5.9,1.4
	c0.7,0.9,1.7,1.4,2.6,0.7c4.3-3.3,9-1.3,13.6-1.5c0.1,1.5-1.1,1.8-2.1,2.3c-4,1.9-8.1,3.7-12.7,2.7c-0.5-0.3-0.9-0.6-1.3-1.1
	c-1.9-1.3-4-0.7-6-0.8c-7.4-5.5-11.5-4.8-17.3,2.9c-0.6,3.4-3.2,3.9-6,4.4c-0.8,0-1.6,0-2.4-0.1c-5.3-2.2-10.8-4.2-16.4-5.4
	c-2.2-1.2-3.7-3.7-6.6-3.7c-0.5-0.1-0.9-0.3-1.4-0.5c-3.9-2.6-8.9-3.9-10.7-9c-0.5-0.6-1-1.1-1.5-1.7c-2.7-4.4-5.8-8.8-2.6-14.3l0,0
	c1.3,0.1,1.9-0.7,2.2-1.8c4.1,3.6,5.9-0.3,7.6-2.7C507.5,457.1,508.6,456.6,510.4,458.8z"/>
<path class="st121" d="M567.9,492.3c4.5,0.3,8.7-1.3,13.1-1.8c-0.5,2.8-3.6,2-5,3.7c-1.5,0-2.9,0.1-3,2
	C570,496.6,568.1,495.5,567.9,492.3z"/>
<path class="st122" d="M591.1,481.9c0.5-2.6,3.8-3.2,4.2-5.9c1.5,0.1,2-1.5,3.2-1.9c0.6,4.2-2.4,6-5.2,7.9
	C592.5,482,591.8,482,591.1,481.9z"/>
<path class="st123" d="M567.9,492.3c1.7,1.3,3.4,2.6,5.1,3.9c0.7,1.4,1.4,2.9-0.7,3.7c-1.9,0.7-2.1-0.9-2.7-2.1
	c-1-1.8-4.1-2.7-2.6-5.7C567.3,492.1,567.6,492.2,567.9,492.3z"/>
<path class="st124" d="M523.3,360c-4,5.4-8.1,10.4-15.9,6.9c-0.7-1.2-1.6-1.9-3-2c-0.2-0.7-0.9-2,0.3-1.8
	C511.3,364.1,517.3,362.3,523.3,360z"/>
<path class="st125" d="M479.7,427.6c1-1.5,1.9-2.9,2.9-4.4c1.2-1.8,2.3-3.5,3.5-5.2C486.9,423.1,483.8,425.7,479.7,427.6z"/>
<path class="st126" d="M495.3,406.4c-0.1,1,0,2.7-0.4,2.8c-1.2,0.4-1.2-1.1-1.8-1.8c-3.1-4.3-5-9.1-6.4-14.2
	c-0.5-1.8-1.2-3.7,0.1-5.2c1.2-1.4,2.9-0.1,4.2,0.4c2.9,1.1,7,1.7,7,5.4C498,397.9,500.7,403.1,495.3,406.4z"/>
<path class="st127" d="M500.2,478.1c0.4,0.3,0.8,0.6,1.2,0.8c-1.3,3.1,0,6.5-1.1,9.7c-2.5,1.2-5.2,0.8-7.8,0.9
	c-3.3,0.2-5.9-2.9-6.1-6.6c-0.1-1.9,0.7-3.9-0.6-6.2c-2,1.8-1.3,6.5-5.7,5.3c-0.3-1-0.7-2-1-3c0.2-1.2-0.2-2.2-1-3.1
	c0-1.7,0-3.3,0.1-5c0.6-0.4,1.3-0.8,1.9-1.2c4.9-1.4,9.7-2.6,14.2,1c1.1,1.1,1.9,2.4,2,3.9C496.4,477.5,498,478.1,500.2,478.1z"/>
<path class="st102" d="M500.2,478.1c-1.1,1.3-2.2,2.6-4.2,1.7c-1.8-0.8-0.7-2.3-0.8-3.5c-0.2-1.5-0.6-2.9-0.9-4.4
	c-1.9-2-2.5-4-0.1-6c0.2-1.2,0.7-2,2-2.1C495.6,469.2,497.7,473.7,500.2,478.1z"/>
<path class="st128" d="M494.1,465.9c-0.5,2-0.6,4,0.1,6c-4.3-3.5-9.4-1.8-14.2-2.1c0.3-0.8,0.7-1.8,1.6-1.7
	C486,468.6,489.9,466.7,494.1,465.9z"/>
<path class="st129" d="M480.1,482.1c2.1-0.8,3.3-2.1,3.1-4.5c-0.1-1.7,0-3.5,2.4-3.5c2.8,0,2.6,2,2.6,3.9c0,1.7-0.3,3.3-0.4,5
	c-0.3,3.3,2.8,6.3,5.8,5c2.5-1.1,4.5,0.6,6.8,0.3c3.7-3.1,7.4-1.5,11.1-0.1c0.3,0,0.7,0,1,0c1.4,1.4,4.9,1,3.8,4.5
	c-3.5,2-6.6-2-10.1-0.4c3.3,4.7,6.1,6.3,11.5,6.5c2.6,0.1,5.4-0.5,7.5,1.8c0.7,3,1.6,5.4,5.3,6.4c3.9,1.1,4.3,4.2,2.2,7.6
	c-1.6,3.5-5,2.5-6.8,1.6c-4.3-2.2-8.5-4.1-13.6-3.8c-0.9,0.1-1.9-1.1-2.9-1.8c-5.7-2-11.4-4-17.2-6c-1.2-0.2-2-0.8-2-2.1
	c-0.3-2.8-2.5-4.3-4.5-5.7c-3.7-2.5-5-6.6-7.2-10.1C477.4,484.8,479.4,483.6,480.1,482.1z"/>
<path class="st130" d="M476,524.5c0,0.7,0,1.4,0,2c1.6,5.1-0.5,8.1-7.1,10c-2.6-4.2-5.4-8.2-5.3-13.7c0-2.1,0-3.7,1.4-5.4
	c1.7-2,3.4-4.2,2.9-7.2c0.8-1.2,0.8-3.3,2.6-3.3c1.6,0,1.9,2.1,2.7,3.3c1.4,2.1,0.6,4.5,0.7,6.8C474.1,519.8,473.8,522.5,476,524.5z
	"/>
<path class="st131" d="M505.4,536.6c0.5,1.7,3,1.9,3,4.1c-3.1,1-5.2-2-8-2c-0.1-1.2-0.8-1.9-2-2.1c-0.2-1.4,0.4-3.3-1.6-3.8
	c-1.6-0.4-3.5-0.6-4.5,1.1c-3.3,5.3-10.2,6.5-13.7,11.7c-0.9,1.3-2.7,1.5-4,0.4c-1.5-1.2-3-1.9-4.4-0.5c-1.7,1.6,0,3,0.8,4.4
	c0.4,0.7,1.1,1.3,0.1,3c-2.7-3.5-7-5.2-7-10.3c1.4-0.7,2.7-1.4,4.1-2.1c0.6-0.3-0.2-0.2,0.4-0.3c6.6-0.4,11.5-4.3,16.8-7.7
	c2-0.1,3.8,0,5.6-1.5c4.5-3.9,9-2.9,11.3,2.7C502.8,535.5,503.2,536.8,505.4,536.6z"/>
<path class="st132" d="M485.2,532.6c-3.4,3.4-5.6,8.5-11.7,8c-1.8-0.1-3.6-0.1-5.5-0.1c0.3-1.3,0.7-2.7,1-4c1.2-0.7,0.9-2.5,2.5-2.9
	c3.7-0.9,4.6-3.8,4.6-7.1C479.1,528.6,482.1,530.6,485.2,532.6z"/>
<path class="st129" d="M478.1,476c1.1,0.1,2.5-0.2,2.8,1.3c0.3,1.3-0.8,1.6-1.8,1.8C476.7,478.8,477.4,477.4,478.1,476z"/>
<path class="st117" d="M552.8,548.7c0-0.7,0-1.3,0-2c3.8-0.4,7.6,0.7,11.4-0.8c2.6-1.1,2.3,1.4,2.7,2.8c-3.3,0.4-6.8-1-9.9,1.5
	C555.4,551.5,554.5,548.6,552.8,548.7z"/>
<path class="st133" d="M571,442.7c-2.3,0.6-4.5,1.4-6.9,1c-5-1-9.3-1.2-13.6,3.2c-2.4,2.4-7,0.3-9.6-1.9c-3-2.5-5.2-2.1-8-0.4
	c-4.1,2.4-9.2,3-12.3,7.3c-1.4,1.9-4.2-0.2-6.2,0.9c2.4-9.4,11.2-11.1,18.1-15c0.5-0.3,1.4-0.3,2,0c3.6,1.7,5.7,0.9,7.7-2.8
	c1.4-2.6,5-1,7.6-1.4c1.2,5.1,6.4,7.9,11.5,5.5c2.6-1.2,5-1.5,7.7-1.5c2.2,0.2,4.7-0.6,6.1,2C573,439.8,571.9,441.1,571,442.7z"/>
<path class="st134" d="M532.7,514.4c0.5-4-0.6-6.7-5.2-7.1c-5-0.4-2.1-4.6-3-7c-1-1.2-1.2-2.5-0.4-3.9c0.6-0.6,1.3-0.8,2.1-0.7
	c2,1.1,1.6,3.1,1.9,4.8c0.6,3.3,2.1,3.8,4.6,1.5c1.7-1.5,2.6-3.9,5-4.7c2.3-0.5,4.4-1.4,6-3.2c0.7,1,2.3,1.4,1.9,3
	c-0.6,3.2-3.7,3.4-5.8,4.9c1.9,0.1,3.9-0.1,4.8,2.2c-0.3,1-0.6,1.9-0.9,2.9c-0.3,0-0.7,0.1-1,0.1C538.8,509,537,513.4,532.7,514.4z"
	/>
<path class="st135" d="M544.6,504.4c-1.5-1-3-1.3-4.7-0.7c-1.2,0.5-3,1.2-3.5-0.3c-0.7-2.1,1.7-1.9,2.9-2.6c2.1-1.2,4.3-2.4,6.4-3.7
	c1.5,0.6,2.1,1.6,0.7,2.9C545.1,501.3,544.6,502.7,544.6,504.4z"/>
<path class="st136" d="M527.8,476.9c-2.9-0.7-5.9-1.8-8.5-3.7c-1.9-1.4-1.5-3,0.2-4.1c2.7-1.6,5.4-3.3,8.9-3.2
	c2.3,0.1,4.6,0.4,6.7-1.3c2.1-1.6,3.5,0.3,4.2,2.1c0.7,1.8,0.7,3.9,1.8,5.7c0.8,1.3-0.4,2.2-1.7,2.5
	C535.6,475.6,531.8,476.2,527.8,476.9z"/>
<path class="st136" d="M550.8,455.8c-0.1,3.9,0.9,8.1-3.3,10.9c-1.7,1.2-3.2,1.7-5,0.4c-1.7-1.3-1.5-2.6-1-4.7
	C542.7,457,545.4,454.8,550.8,455.8L550.8,455.8z"/>
<path class="st137" d="M537.7,497.4c-2.1,2.4-2.5,5.8-6.1,7.4c-3.9,1.7-4.8,0.7-5-2.8c-0.1-1.8,0-3.7-0.1-5.5c1.3-1.5,2.7-0.9,4-0.2
	c1.6,1,3.3,1.3,5.1,1C536.3,497.3,537,497.4,537.7,497.4z"/>
<path class="st138" d="M511.5,488.1c-3.7,0-7.4,0-11.1,0.1c-1.9-3.3-3-6.5,1-9.2C503.1,483.8,508.4,484.7,511.5,488.1z"/>
<path class="st139" d="M535.6,497.3c-3.3,2.8-6-1-9.1-0.8c-0.7,0-1.3-0.1-2-0.1c-3.2,1-5.2-0.3-6.6-3.1c0-0.5,0.3-0.9,0.7-1.2
	C524.9,492,530.2,494.7,535.6,497.3z"/>
<path class="st139" d="M516.7,492.1c-1-1.8-3.5-1.9-4.2-4c3.1-0.3,5,1.3,6.2,3.9c-0.1,0.1-0.3,0.3-0.4,0.4
	C517.6,492.8,517.1,492.7,516.7,492.1z"/>
<path class="st140" d="M516.7,492.1c0.5,0.1,1,0.2,1.5,0.3c1.4,2.5,4.2,2.6,6.3,3.9c0,1.3,0,2.6-0.1,3.9c-1.8,0-3.8-0.4-5.5,0.1
	c-7.2,2-10.5-4.8-15.9-6.7c-0.4-0.1-0.6-1.2-0.5-1.8c0.1-1.2,1.1-1.6,2.2-1.6c2.8,0.1,5.7-1,8.2,1.2
	C514,492.5,515.4,492.2,516.7,492.1z"/>
</svg>
