<?xml version="1.0" encoding="utf-8"?>
<!-- Generator: Adobe Illustrator 19.0.0, SVG Export Plug-In . SVG Version: 6.00 Build 0)  -->
<svg version="1.1" id="圖層_1" xmlns="http://www.w3.org/2000/svg" xmlns:xlink="http://www.w3.org/1999/xlink" x="0px" y="0px"
	 viewBox="0 0 595.3 841.9" style="enable-background:new 0 0 595.3 841.9;" xml:space="preserve">
<path id="XMLID_149_" style="fill:none;stroke:#000000;stroke-width:0.3;stroke-miterlimit:10;" d="M304.6,524.8
	c0.9-2-0.2-4-0.4-5.6c23.3,0,46.4,0,69.6,0c2.2,0,4.6-0.5,6.5,1.1c-0.2,1.5-0.4,3-0.5,4.4C354.8,524.8,329.7,524.8,304.6,524.8z"/>
<path id="XMLID_148_" style="fill:none;stroke:#000000;stroke-width:0.3;stroke-miterlimit:10;" d="M379.9,524.8
	c0.2-1.5,0.3-3,0.5-4.4c20-2.5,40.1-1.2,60.2-1.2c4.5,0,9,1.3,13.5,0.8c1.9,1.3,1.6,3.1,1,4.9C430.1,524.8,405,524.8,379.9,524.8z"
	/>
<path id="XMLID_147_" style="fill:none;stroke:#000000;stroke-width:0.3;stroke-miterlimit:10;" d="M149.6,524.8
	c0.1-6.6,0.6-6.8,7.2-6.7c11.3,0.2,22.6-0.5,33.9,0.1c6.3,0.3,12.6-0.9,18.8,0.9c0.2,1.9,0.4,3.8,0.6,5.7
	C189.9,524.8,169.7,524.8,149.6,524.8z"/>
<path id="XMLID_146_" style="fill:none;stroke:#000000;stroke-width:0.3;stroke-miterlimit:10;" d="M210,524.8
	c-0.2-1.9-0.4-3.8-0.6-5.7c13.8-0.3,27.5-0.7,41.3-0.9c2.8,0,5.7,0.4,8.4,0.9c3.5,0.7,1.1,3.9,2.2,5.6
	C244.2,524.8,227.1,524.8,210,524.8z"/>
<path id="XMLID_145_" style="fill:none;stroke:#000000;stroke-width:0.3;stroke-miterlimit:10;" d="M455.2,524.8
	c0.6-1.8,0.9-3.6-1-4.9c1.8-1,3.6-2,5.4-3c0.4,0.4,0.8,0.7,1.3,1.1c-0.2,0.6-0.4,1.3-0.6,1.9c-0.1,1.6-0.3,3.2-0.4,4.9
	C458.2,524.8,456.7,524.8,455.2,524.8z"/>
<path id="XMLID_144_" style="fill:none;stroke:#000000;stroke-width:0.3;stroke-miterlimit:10;" d="M459.7,524.8
	c0.1-1.6,0.3-3.2,0.4-4.9c3.2,0.3,3,2.6,3,4.9C462,524.8,460.9,524.8,459.7,524.8z"/>
<path id="XMLID_143_" style="fill:none;stroke:#000000;stroke-width:0.3;stroke-miterlimit:10;" d="M196.7,447.2
	c-0.1-0.8-0.2-1.5-0.4-2.3c1.6-1.5,0.5-2-0.8-2.4c-1.5-9-1.9-18.1-0.4-27.1c0,2.1,0,4.2,0.1,6.3c0,0.7-0.4,2.2,1.3,1.3
	c3.5-1.8,3.3,0.8,3.3,2.9c0.1,5.2,2.9,9.4,5.9,13.1c1.4,1.8,3.7,4.3,6.6,3.2c4.1-1.5,6.6-9.6,4.9-14.1c-0.9-2.4-1-5.2,0.9-7
	c2.2-2.2,4.4,0.2,5.8,1.5c2,1.8,4.7,2.3,6.4,4.6c1.9,2.6,4.1,2.9,6.1-0.5c2-3.4,4.9-3.1,7.6-1c1.2,0.9,2.1,2.2,3.7,2.4
	c3.1,3.5,6.7,5.8,11.6,5.5c1.7-0.1,3.3,0,4.8,1.1c9.1,6.5,19.7,7.3,30.3,8c4.2-0.1,8.3-0.2,12.5-0.3c8.1,1.5,14.6-1.7,19.2-8
	c2.4-3.2,6.7-3,8.8-6.2c0.3-0.4,1.8-0.1,2.7,0.1c5.4,1.3,10.9,0.2,16.4,0.7c1.7,0.1,3-0.4,3.1-2.4c1.8,0.1,3.2,1,4.7,1.7
	c6.7,3.1,10.5,0.5,10.5-6.6c0-2.1,0.7-3.7,3.1-4c1.5-0.2,3.2,0,3.2-2.3c0.7-0.3,1.6-0.3,2-0.8c6.8-8,10.6-17,9.3-27.7
	c4.4-4.1,4.5,1.3,5.7,3c1.5,2-1.6,6.4,2.4,7c3.7,0.6,3.2-4.6,5.9-6.1c0.6-0.3,0.9-1.2,1.2-1.9c1.8-4.1,4.9-7.3,9.2-7.4
	c4.4-0.1,5.5,4.7,7.2,7.9c2,3.9,3.9,7.7,8.4,9.2c3.2,3.5,3.5,8.2,4,12.4c1.2,9.1,3.5,18.4,0.5,27.6c-1.5,2-0.7,4.3-0.7,6.5
	c0,0-0.1,0.1-0.1,0.1c-1.6,0-3.2,0-3.2,2.2c-0.1,5-2.7,9.4-3.7,14.2c-1.1,5.3-4.5,10.8-9,12.4c-6.8,2.5-12.7,5.8-18.4,10.1
	c-3.8,3-5.3,2-5.6-2.8c-0.3-4.8-0.9-9.3-7.5-8.9c-2.8,0.2-3.3-1.5-1.9-3.7c2.1-3.2-0.3-2.7-2.2-3.1c-3.9-0.9-6.5,2.3-10.2,2.5
	c-6.6,0.5-12.9,2.2-14.7,10.1c0,0.3-0.1,0.6-0.2,0.9c-7.5,0-15.1,0.1-22.6,0.1l0,0c-0.7-3.1,5.4-1,3.7-4.9c-1-2.3-2.3-4.9-4.5-5.5
	c-2.1-0.5-2.8,2.5-4.3,3.9c-0.9,0.9-1.2,2.5-2.1,3.3c-1.8,1.4-4.9,1.8-5-0.6c-0.2-4.4-2.8-4.7-5.8-6c-8.2-3.7-17.9-1-22.1,6.6
	c-0.7,1.3-1.1,3.2-2.9,3.2c-4.4-0.2-8.8,1.4-13-1.7c-5.7-4.2-11.2-8.9-15-14.4c-4.2-5.9-8.6-7.1-14.7-6.4c-0.1-3,0.9-6.2-0.6-8.9
	c-0.9-1.5-0.9-4.1-3-4.5c-2.8-0.6-1,3.4-3.6,3.7c-0.9-1.4-1.7-3.3-3-4.5c-1.2-1.2-1.6-4.2-4-3.2c-2.5,1.1-3.2,3.6-2.6,6.3
	c0.6,2.4,1.5,4.7,3.4,6.4c2.6,2.4,5.3,4.7,8,7c-2.5,2.5-6.8,3.8-5.7,8.7c0.1,0.3-0.8,0.7-1.2,1.2c-4.1,5.6-8.7,3.1-14,1.7
	c-5.3-1.4-7.4-3.8-7.1-9c0.3-4.4-4.4-9.4-8.7-9.3c-2,0-2.1,1-1.6,2.6c0.4,1.4,1,3.2-1.1,3.8c-1.7,0.5-2.1-1.3-2.7-2.3
	c-0.6-1-1.2-1.9-2.4-2.2c-0.1-0.3-0.2-0.6-0.3-0.8c-0.3-0.5-0.6-0.9-0.9-1.4c-0.1-0.7-0.1-1.3-0.2-2
	C198.9,448.2,198.3,447.6,196.7,447.2z"/>
<path id="XMLID_142_" style="fill:none;stroke:#000000;stroke-width:0.3;stroke-miterlimit:10;" d="M429.8,398.4
	c-4.5-1.5-6.4-5.3-8.4-9.2c-1.7-3.2-2.8-8-7.2-7.9c-4.3,0.1-7.4,3.3-9.2,7.4c-0.3,0.7-0.6,1.5-1.2,1.9c-2.6,1.5-2.2,6.7-5.9,6.1
	c-4-0.6-0.9-5.1-2.4-7c-1.2-1.6-1.3-7-5.7-3c-1.1-1.1-0.6-2.5-0.9-3.7c-1.6-6.5-5.3-7.5-11.1-4.1c-2.6,1.5-1.6,5.2-4.8,5.7
	c-0.1-1.9-0.4-3.8-0.3-5.6c0.5-7.9-3-13.7-9.6-17.7c-2.4-4.8-6.1-8.5-11.3-9.2c-14.5-2.2-28.9-6.3-43.8-5
	c-5.8,0.5-10.9,3.2-15.1,7.4c-1.9,0.7-4.1-0.2-5.8,1.3c-4.7,0-9.2,0.5-11.8,5.3c-0.5,1-1.8,1.3-2.7,1.8c-7.1,4.1-13.5,8.9-14.8,17.9
	c-4.1,2.6-3.9,6.3-2.5,10.3c1,2.8,2.6,5.4,2.6,8.5c-2,3.6-2.2,7.2,0.8,10.2c-2.2,2.3-4.4-0.6-6.1,0.6c-4.8,3.3-7.2-1-7.9-3.7
	c-0.7-2.3-0.9-7.2,4.5-7.2c2,0,3-1.5,3-3.4c0-1.9,0.3-3.8-1.7-5.1c-4.3-2.8-12.5-1.8-15.7,2.1c-1.4,1.8-1.4,3.7,1.4,4.1
	c1.8,0.3,3.2,0.5,3.4,2.8c0.2,2.5-0.7,3.7-3.1,4.6c-3,1.1-3.3,3.2-1.4,5.8c3.1,4.4,5.3,9.5,10.2,12.5c1.9,1.1,2.6,3.2,2.4,5.4
	c-1.6-0.2-2.5-1.5-3.7-2.4c-2.7-2.1-5.6-2.5-7.6,1c-1.9,3.4-4.2,3.1-6.1,0.5c-1.7-2.3-4.4-2.8-6.4-4.6c-1.4-1.3-3.6-3.6-5.8-1.5
	c-1.9,1.8-1.8,4.6-0.9,7c1.7,4.6-0.8,12.6-4.9,14.1c-2.9,1.1-5.2-1.4-6.6-3.2c-3.1-3.8-5.8-7.9-5.9-13.1c0-2.1,0.2-4.7-3.3-2.9
	c-1.8,0.9-1.3-0.7-1.3-1.3c-0.1-2.1-0.1-4.2-0.1-6.3c2-13.1,6.5-25.2,13.3-36.6c9-15.2,20.3-28.6,31.8-41.9c2.4-2.7,2.8-6,3.2-9.4
	c3,4.3,7.9,4.9,11.4,2.6c3.2-2.1,6.7-4.4,9.2-7.3c3-3.3,5.3-4.6,8.7-0.8c0.7,0.8,1.7,0.7,2.6,0.2c4.4-2.8,9.3-4.2,13.1-8.8
	c4-4.9,9.1-10,16.8-10.3c4.8-0.2,7.8,3,11.6,4.5c1.6,0.6,3.5,0.5,4.1,3.1c1.1,5.1,3,5.5,7.5,2c11.5,14.4,29.1,18.5,44.5,25.8
	c15.4,7.3,29.6,16,40.5,29C420.6,376.5,427.2,386.5,429.8,398.4z"/>
<path id="XMLID_141_" style="fill:none;stroke:#000000;stroke-width:0.3;stroke-miterlimit:10;" d="M357,479
	c0.1-0.3,0.1-0.6,0.2-0.9c0.7,0,1.8,0.4,2,0.1c1.3-1.7,2.1-5,4.9-3c2.3,1.7,0.4,4.1-1,5.9c-2.2,2.9,0.8,3.9,2.2,4.5
	c1.8,0.7,4.5,1.6,5.5-1.8c1.7-5.4,5.5-6.2,10-2.6c4.6,3.7,9.4,7.2,14.1,10.8c1.2,0.9,2.7,1.3,3.6,0.3c3.6-4,9.7-3.8,13.2-8.2
	c1-1.3,3.1-3.5,5.8-2.7c-4.4,7.4-10.5,13.3-17.7,17.7c-3,1.8-4.5,3-3.7,6.3c0.8,3.3,2.7,5.1,6.4,5.1c8.4,0.1,16.9,0.5,25.3,0.8
	c1.6,0.1,4-0.4,3.8,2.1c-0.2,2-2.5,1.2-3.8,1.2c-46.9,2.1-93.7,1.1-140.6,1.1c-8.9,0-17.8,0.9-26.7-0.8c2.3-0.1,4.5-0.2,6.8-0.2
	c8.9-0.1,17.8-0.1,26.7-0.2c1.5,0,3.2,0.1,3.5-2c0.2-1.1,0.3-2.7-0.9-3c-4.2-1.3-8.5-4.6-12.8-2.4c-5.3,2.6-8.2,0.4-11.6-2.9
	c-5-4.8-15.1-2.3-17.1,3.5c-1.9,5.7,3.5,5,5.5,7.4c-23.2-0.2-46.3-0.3-69.5-0.5c-2.1,0-3.8-0.8-5.4-2.9c12.9,0,25.9,0,38.8,0
	c0-0.5,0-0.9,0-1.4c-18.7,0-37.4,0-56.1,0c0-0.4,0-0.7,0-1.1c17.2,0,34.5,0,51.7-0.1c2.3,0,5.9,1.4,6.6-1.3
	c0.8-3.3,2.2-6.6-1.4-10.5c-5.7-6.2-11.3-12.8-15.3-20.4c3.6-0.4,6.7,1.1,8.2,4c2,4.1,5.4,5.9,9,8c1.1,0.6,2.2,1.6,2.8,2.7
	c1.3,2.5,2.9,5.3,5.9,3.4c2.7-1.7,1.3-4.7,0.4-7.2c-0.5-1.5-2-2.8,0.8-4c5.1-2.2,7.1-7.4,10.4-11.4c1.4-1.7,9.6-5.8,10.1-4.6
	c1.8,3.9,6.9,4.5,8.2,8.5c3,8.6,14.3,11.5,20,9.6c4.2-1.4,6.9-0.4,10.1,1.3c2.3,1.2,3.5,1.4,4.2-1.8c1-4.4,4.2-6.1,8.9-6
	c8.3,0.3,16.7,0,25,0c0,0,0,0,0,0c-0.6,3.4,0.6,4.9,4.2,4.7c3.7-0.2,7.5-0.1,11.3-0.1C353.3,483.8,355.7,482.4,357,479z"/>
<path id="XMLID_140_" style="fill:none;stroke:#000000;stroke-width:0.3;stroke-miterlimit:10;" d="M328.2,312.8
	c-4.4,3.4-6.4,3.1-7.5-2c-0.6-2.7-2.5-2.5-4.1-3.1c-3.8-1.5-6.8-4.7-11.6-4.5c-7.7,0.3-12.8,5.4-16.8,10.3c-3.8,4.6-8.7,6-13.1,8.8
	c-0.9,0.5-1.9,0.6-2.6-0.2c-3.3-3.8-5.7-2.5-8.7,0.8c-2.6,2.9-6.1,5.2-9.2,7.3c-3.5,2.3-8.4,1.7-11.4-2.6c3-9.6-2.2-16.6-7.9-23.1
	c-7.3-8.3-13.2-17.3-15.3-28.2c-1.4-6.8-1.5-13.7,0.3-20.5c-1.3,5.5,2.2,10,2.9,14.8c6.8-1.5,13.3-3.3,19.5,1
	c1.2,0.8,2.4,1.3,3.6,0.4c1.4-1,0.6-2.3,0.5-3.6c-0.3-2.2-1.6-4.3-1-6.6c1.8,1,2.5,2.7,3,4.6c3.4,11.1,11.4,15.7,22.6,17.1
	c7.7,0.9,12.3-5.5,19.2-5.3c0.6,0,1.3-1.2,1.8-2c2.2-3.9,4.3-7.8,6.4-11.7c3.9,3,6,0.2,8.2-2.4c1.2-1.4,1-3.8,3.2-4.4
	c5.3-1.5,6.7-6.1,8.1-10.6c0.3-0.9,0.1-2.1,1.2-2.3c6.4-1.6,1.1-4.4,0.5-6.5c-0.4-1.4-3.9-1.7-1.7-4.3c3.7,1.3,4.7,7.2,10,5.9
	c7.2,12,8.4,24.8,4.9,38.2c-2.2,8.6-6.5,16.8-6.2,26.1C327.2,306.9,327.4,309.9,328.2,312.8z"/>
<path id="XMLID_139_" style="fill:none;stroke:#000000;stroke-width:0.3;stroke-miterlimit:10;" d="M245.8,261.8
	c-0.6,2.3,0.8,4.4,1,6.7c0.1,1.3,0.9,2.6-0.5,3.6c-1.3,0.9-2.4,0.5-3.6-0.4c-6.2-4.3-12.8-2.5-19.5-1c-0.6-4.9-4.2-9.4-2.9-14.8
	c0-2.1,0.2-4.2,1.3-6c0.3-0.7,0.6-1.4,0.8-2.2c0,0,0.1-0.1,0.1-0.1c3.8-0.3,6.1-2.1,7.1-5.9c1.6-6.2,6.5-11.2,6.7-18
	c6.8-12.1,17.7-19.8,29.1-26.8c2.4-1.5,4.9-2.7,7.4-4c1.8,1,3-0.8,4.5-1.1c12.4,3.6,22.4,11.2,31.6,19.9c1.6,1.5,2.7,3.5,4.1,5.3
	c-0.4,6.3,4.6,10.9,5.4,16.8c-2.2,2.6,1.3,2.9,1.7,4.3c0.6,2.1,5.8,4.9-0.5,6.5c-1.1,0.3-0.9,1.5-1.2,2.3c-1.4,4.5-2.8,9.1-8.1,10.6
	c-2.2,0.6-2,3-3.2,4.4c-2.2,2.7-4.3,5.5-8.2,2.4c1.8-4.1,1.9-8.7,0.9-12.8c-1.1-4.5,0.2-7.2,3.1-10.4c5-5.6,4.1-13.5-1.4-17.6
	c0,0-0.1,0-0.1,0c-0.2-1.3-0.9-2-2.3-2c-12.6-1.8-25.3,0.1-38-0.3c-4.1-0.1-8-0.5-11.8,2.2c-9.4,6.6-12.1,15.5-6.7,25.2
	C245,252.9,245.4,257.3,245.8,261.8z"/>
<path id="XMLID_138_" style="fill:none;stroke:#000000;stroke-width:0.3;stroke-miterlimit:10;" d="M334.3,479.1
	c-8.3,0-16.7,0.3-25,0c-4.7-0.2-7.9,1.5-8.9,6c-0.7,3.2-2,3-4.2,1.8c-3.2-1.7-5.9-2.7-10.1-1.3c-5.8,1.9-17.1-1-20-9.6
	c-1.4-4-6.4-4.6-8.2-8.5c-0.5-1.2-8.7,2.9-10.1,4.6c-3.3,4-5.3,9.2-10.4,11.4c-2.8,1.2-1.3,2.5-0.8,4c0.9,2.5,2.4,5.5-0.4,7.2
	c-3.1,1.9-4.6-1-5.9-3.4c-0.6-1.1-1.7-2-2.8-2.7c-3.5-2.1-6.9-3.9-9-8c-1.4-2.9-4.6-4.4-8.2-4c-5.6-6.7-9-14.5-11.3-22.8
	c1.2,0.3,1.8,1.1,2.4,2.2c0.6,1.1,1,2.8,2.7,2.3c2-0.6,1.5-2.4,1.1-3.8c-0.5-1.6-0.4-2.6,1.6-2.6c4.3,0,9,5,8.7,9.3
	c-0.4,5.2,1.8,7.6,7.1,9c5.2,1.4,9.8,3.9,14-1.7c0.3-0.4,1.2-0.9,1.2-1.2c-1-4.9,3.2-6.2,5.7-8.7c2.2,0.2,4.1-0.5,5.4-2.3
	c6.1-0.7,10.6,0.5,14.7,6.4c3.8,5.4,9.3,10.2,15,14.4c4.3,3.1,8.7,1.5,13,1.7c1.8,0.1,2.2-1.9,2.9-3.2c4.2-7.6,13.9-10.3,22.1-6.6
	c2.9,1.3,5.6,1.7,5.8,6c0.1,2.4,3.2,2,5,0.6c1-0.8,1.2-2.4,2.1-3.3c1.4-1.4,2.2-4.5,4.3-3.9c2.3,0.6,3.5,3.2,4.5,5.5
	C339.7,478.1,333.6,476,334.3,479.1z"/>
<path id="XMLID_137_" style="fill:none;stroke:#000000;stroke-width:0.3;stroke-miterlimit:10;" d="M417.5,481.4
	c-2.7-0.8-4.8,1.4-5.8,2.7c-3.5,4.4-9.6,4.2-13.2,8.2c-0.9,1-2.4,0.6-3.6-0.3c-4.7-3.6-9.5-7-14.1-10.8c-4.6-3.7-8.3-2.9-10,2.6
	c-1.1,3.4-3.7,2.4-5.5,1.8c-1.4-0.5-4.4-1.5-2.2-4.5c1.4-1.8,3.3-4.2,1-5.9c-2.8-2-3.6,1.3-4.9,3c-0.2,0.3-1.3,0-2-0.1
	c1.7-7.9,8.1-9.6,14.7-10.1c3.7-0.3,6.3-3.5,10.2-2.5c1.9,0.5,4.3,0,2.2,3.1c-1.4,2.2-0.9,3.8,1.9,3.7c6.6-0.4,7.2,4.1,7.5,8.9
	c0.3,4.8,1.8,5.8,5.6,2.8c5.6-4.4,11.5-7.7,18.4-10.1c4.5-1.6,7.8-7.1,9-12.4c1-4.8,3.6-9.1,3.7-14.2c0-2.2,1.6-2.2,3.2-2.2
	c-1,12.1-6.8,22.3-12.8,32.5c-0.5,0.9-1.2,1.8-1.8,2.7C418.5,480.7,418,481.1,417.5,481.4C417.5,481.4,417.5,481.4,417.5,481.4z"/>
<path id="XMLID_136_" style="fill:none;stroke:#000000;stroke-width:0.3;stroke-miterlimit:10;" d="M260.6,514.8
	c-1.9-2.3-7.4-1.7-5.5-7.4c2-5.8,12-8.3,17.1-3.5c3.5,3.3,6.4,5.6,11.6,2.9c4.3-2.1,8.6,1.1,12.8,2.4c1.2,0.4,1,1.9,0.9,3
	c-0.3,2.1-1.9,2-3.5,2c-8.9,0.1-17.8,0.1-26.7,0.2C265.1,514.6,262.8,514.7,260.6,514.8C260.6,514.8,260.6,514.8,260.6,514.8z"/>
<path id="XMLID_135_" style="fill:none;stroke:#000000;stroke-width:0.3;stroke-miterlimit:10;" d="M277.2,191.8
	c-1.5,0.3-2.6,2.1-4.5,1.1c-0.4-6.4-5.2-10.1-9.3-14.1c-1.5-1.5-4.4-1.9-3.9-4.8c0.3-1.4,1.4-2.8,2.9-3.2c3.2-0.7,3,2.8,4.6,4.1
	C272.5,179.2,275.7,185.1,277.2,191.8z"/>
<path id="XMLID_134_" style="fill:none;stroke:#000000;stroke-width:0.3;stroke-miterlimit:10;" d="M318.4,233.8
	c-0.9-5.9-5.8-10.5-5.4-16.8c7.6,5.9,13.7,12.8,15.5,22.7C323.1,241,322.1,235.1,318.4,233.8z"/>
<path id="XMLID_133_" style="fill:none;stroke:#000000;stroke-width:0.3;stroke-miterlimit:10;" d="M236.3,223.7
	c-0.3,6.7-5.1,11.8-6.7,18c-1,3.8-3.3,5.6-7.1,5.9C225.7,238.8,229.8,230.6,236.3,223.7z"/>
<path id="XMLID_132_" style="fill:none;stroke:#000000;stroke-width:0.3;stroke-miterlimit:10;" d="M460.8,518
	c-0.4-0.4-0.9-0.7-1.3-1.1c1.7-0.3,2.2-2.2,4.1-3.4C463.6,516.4,463.4,518,460.8,518z"/>
<path id="XMLID_131_" style="fill:none;stroke:#000000;stroke-width:0.3;stroke-miterlimit:10;" d="M433.6,444.9
	c0.1-2.2-0.7-4.5,0.7-6.5C434.3,440.6,435.7,443,433.6,444.9z"/>
<path id="XMLID_130_" style="fill:none;stroke:#000000;stroke-width:0.3;stroke-miterlimit:10;" d="M195.5,442.5
	c1.3,0.4,2.5,0.9,0.8,2.4C194.9,444.6,195.3,443.5,195.5,442.5z"/>
<path id="XMLID_129_" style="fill:none;stroke:#000000;stroke-width:0.3;stroke-miterlimit:10;" d="M196.7,447.2
	c1.6,0.4,2.2,1,0.8,2.4C196.2,449.2,196.4,448.2,196.7,447.2z"/>
<path id="XMLID_128_" style="fill:none;stroke:#000000;stroke-width:0.3;stroke-miterlimit:10;" d="M222.4,247.6
	c-0.3,0.7-0.6,1.4-0.8,2.2C221.4,248.9,221.3,248.1,222.4,247.6z"/>
<path id="XMLID_127_" style="fill:none;stroke:#000000;stroke-width:0.3;stroke-miterlimit:10;" d="M197.7,451.6
	c0.3,0.5,0.6,0.9,0.9,1.4C197.9,452.8,197.5,452.4,197.7,451.6z"/>
<path id="XMLID_126_" style="fill:none;stroke:#000000;stroke-width:0.3;stroke-miterlimit:10;" d="M417.5,481.4
	c0.5-0.4,0.9-0.7,1.4-1.1C418.5,480.7,418,481.1,417.5,481.4z"/>
<path id="XMLID_125_" style="fill:none;stroke:#000000;stroke-width:0.3;stroke-miterlimit:10;" d="M247.7,428.1
	c0.3-2.3-0.5-4.3-2.4-5.4c-5-2.9-7.1-8-10.2-12.5c-1.8-2.6-1.6-4.7,1.4-5.8c2.3-0.9,3.3-2.1,3.1-4.6c-0.2-2.4-1.6-2.5-3.4-2.8
	c-2.8-0.4-2.8-2.3-1.4-4.1c3.1-3.9,11.4-4.9,15.7-2.1c2,1.3,1.7,3.2,1.7,5.1c0,2-1,3.4-3,3.4c-5.3,0.1-5.2,4.9-4.5,7.2
	c0.8,2.7,3.1,6.9,7.9,3.7c1.7-1.2,3.9,1.7,6.1-0.6c-3-3.1-2.8-6.6-0.8-10.2c4.7,3.7,9.5,7.5,14.2,11.2c-3.7-0.2-6.9,1.2-9.7,3.5
	c-1.7,1.4-2.1,3.3,0.1,3.8c7,1.6,12.4,7.8,20.5,6.6c4.7-0.7,8.3,3.5,11.5,5.8c2.4,1.7,2.5,8.1-0.1,12.3c-10.6-0.6-21.2-1.5-30.3-8
	c-1.5-1.1-3.2-1.2-4.8-1.1C254.4,433.9,250.8,431.6,247.7,428.1z"/>
<path id="XMLID_124_" style="fill:none;stroke:#000000;stroke-width:0.3;stroke-miterlimit:10;" d="M357.1,426.5
	c-0.2,1.9-1.4,2.5-3.1,2.4c-5.4-0.4-10.9,0.6-16.4-0.7c-0.9-0.2-2.4-0.5-2.7-0.1c-2.1,3.2-6.4,3.1-8.8,6.2c-4.7,6.3-11.1,9.5-19.2,8
	c-0.9-2.1-2.4-3.5-1.8-6.5c0.6-2.7,1.3-7.9-5-6.9c-1.3,0.2-2.7-0.4-3.1-1.9c-0.3-1.3,0.8-2,1.7-2.7c1.3-1,2-2,4.3-0.9
	c2.3,1.1,5.3-0.1,6.6-2.8c1-2-1.2-1.8-2.3-2.3c6-9.6,7.1-10.4,16.4-6.6c3.9,1.6,8,1.6,11.7,3.4c1.9,1.3,3.8,2.7,5.8,0.1
	c1.1,0.1,2.2,0.3,3.3,0.4c0.2,1.9,0.6,3,3.1,2.7C355.2,417.4,356.9,418.9,357.1,426.5z"/>
<path id="XMLID_123_" style="fill:none;stroke:#000000;stroke-width:0.3;stroke-miterlimit:10;" d="M373.1,384.5
	c3.1-0.5,2.2-4.1,4.8-5.7c5.7-3.3,9.4-2.4,11.1,4.1c0.3,1.2-0.1,2.7,0.9,3.7c1.2,10.7-2.5,19.7-9.3,27.7c-0.4,0.5-1.3,0.6-2,0.8
	c-4.9,0.9-8.1-0.6-9.1-6c-0.6-3.4-2.4-5.9-6.3-6C369.7,398.8,371.4,391.7,373.1,384.5z"/>
<path id="XMLID_122_" style="fill:none;stroke:#000000;stroke-width:0.3;stroke-miterlimit:10;" d="M307.3,418.4
	c1.1,0.5,3.2,0.2,2.3,2.3c-1.3,2.7-4.3,3.9-6.6,2.8c-2.2-1.1-3-0.1-4.3,0.9c-0.9,0.7-2,1.3-1.7,2.7c0.4,1.5,1.8,2.1,3.1,1.9
	c6.3-1.1,5.6,4.2,5,6.9c-0.7,3,0.9,4.5,1.8,6.5c-4.2,0.1-8.3,0.2-12.5,0.3c2.7-4.2,2.5-10.6,0.1-12.3c-3.2-2.3-6.8-6.5-11.5-5.8
	c-8.1,1.2-13.5-5.1-20.5-6.6c-2.2-0.5-1.8-2.4-0.1-3.8c2.8-2.3,5.9-3.8,9.7-3.5c6.1,2.1,11.6,5.6,17.6,8
	C296.4,421.4,301.5,421.3,307.3,418.4z"/>
<path id="XMLID_121_" style="fill:none;stroke:#000000;stroke-width:0.3;stroke-miterlimit:10;" d="M363.1,403.3
	c3.9,0.1,5.7,2.6,6.3,6c1,5.3,4.2,6.9,9.1,6c0,2.3-1.7,2.1-3.2,2.3c-2.4,0.3-3.1,1.9-3.1,4c0.1,7.1-3.8,9.7-10.5,6.6
	c-1.6-0.7-3-1.6-4.7-1.7c-0.2-7.6-1.9-9.1-9.5-8.1c-2.5,0.3-3-0.8-3.1-2.7C352.2,413.9,356.2,406.4,363.1,403.3z"/>
<path id="XMLID_120_" style="fill:none;stroke:#000000;stroke-width:0.3;stroke-miterlimit:10;" d="M248.7,456.5
	c-1.4,1.8-3.2,2.6-5.4,2.3c-2.7-2.3-5.4-4.6-8-7c-1.9-1.7-2.9-4-3.4-6.4c-0.6-2.7,0.1-5.2,2.6-6.3c2.4-1,2.7,2,4,3.2
	c1.3,1.2,2.1,3,3,4.5c2.6-0.3,0.8-4.3,3.6-3.7c2.1,0.5,2.1,3,3,4.5C249.6,450.3,248.6,453.5,248.7,456.5z"/>
<path id="XMLID_119_" style="fill:none;stroke:#000000;stroke-width:0.3;stroke-miterlimit:10;" d="M357,479
	c-1.2,3.3-3.7,4.8-7.1,4.7c-3.8,0-7.5-0.2-11.3,0.1c-3.6,0.2-4.8-1.3-4.2-4.7C341.9,479.1,349.4,479.1,357,479z"/>
<path id="XMLID_118_" style="fill:none;stroke:#000000;stroke-width:0.3;stroke-miterlimit:10;" d="M363.1,403.3
	c-6.9,3.1-10.9,10.6-18.7,12.3c-1.1-0.1-2.2-0.3-3.3-0.4c-1.9,0-3.8-0.1-5.8-0.1c-3.7-1.7-7.8-1.8-11.7-3.4
	c-9.2-3.8-10.4-3-16.4,6.6c-5.9,2.9-10.9,2.9-17.6,0.2c-6-2.4-11.5-5.9-17.6-8c-4.7-3.7-9.5-7.5-14.2-11.2c0-3.1-1.6-5.7-2.6-8.5
	c-1.4-3.9-1.7-7.6,2.5-10.3c3.4,3.8,7.3,3.5,8.8-0.8c1-2.9,4.3-6.9,4.8-7c7.6-1.8,6.9-12.5,14.8-13.6c0.9-0.1,1.4-2.1,1-3.5
	c1.7-1.5,3.9-0.6,5.8-1.3c3.7,2.3,8-0.4,11.9,1.3c1.2,0.5,1.6-1,1.3-2.3c-0.4-1.9,0.4-3.4,2.2-4.1c2-0.7,3.2,0.8,4.3,2.1
	c4.4,5.4,9.5,6.1,15.5,2.8c1.1-0.6,2.6-0.4,3.9-0.5c10.1-1,18.5,2.5,25.5,9.6c1.5,1.5,3.1,2.3,5,1.7c2.4-0.8,0.4-2.5,0.6-3.9
	c6.6,4,10.1,9.7,9.6,17.7c-0.1,1.9,0.2,3.8,0.3,5.6C371.4,391.7,369.7,398.8,363.1,403.3z"/>
<path id="XMLID_117_" style="fill:none;stroke:#000000;stroke-width:0.3;stroke-miterlimit:10;" d="M363.2,361.2
	c-0.2,1.3,1.8,3.1-0.6,3.9c-1.9,0.6-3.5-0.2-5-1.7c-7-7.1-15.4-10.6-25.5-9.6c-1.3,0.1-2.8-0.1-3.9,0.5c-6,3.3-11.1,2.6-15.5-2.8
	c-1.1-1.3-2.3-2.8-4.3-2.1c-1.8,0.7-2.6,2.2-2.2,4.1c0.3,1.3,0,2.9-1.3,2.3c-3.9-1.7-8.2,0.9-11.9-1.3c4.2-4.3,9.3-6.9,15.1-7.4
	c14.9-1.3,29.3,2.8,43.8,5C357.1,352.8,360.8,356.4,363.2,361.2z"/>
<path id="XMLID_116_" style="fill:none;stroke:#000000;stroke-width:0.3;stroke-miterlimit:10;" d="M287.2,355.7
	c0.4,1.4-0.1,3.4-1,3.5c-8,1.1-7.3,11.7-14.8,13.6c-0.5,0.1-3.8,4.1-4.8,7c-1.5,4.4-5.4,4.6-8.8,0.8c1.4-8.9,7.7-13.7,14.8-17.9
	c1-0.6,2.2-0.8,2.7-1.8C278,356.2,282.4,355.7,287.2,355.7z"/>
<path id="XMLID_113_" style="fill:none;stroke:#000000;stroke-width:0.3;stroke-miterlimit:10;" d="M301.5,223.6
	c5.5,4.1,6.4,12,1.4,17.6c-2.9,3.2-4.3,5.9-3.1,10.4c1,4.1,0.9,8.6-0.9,12.8c-2.1,3.9-4.2,7.8-6.4,11.7c-0.4,0.8-1.2,2-1.8,2
	c-6.9-0.1-11.4,6.2-19.2,5.3c-11.2-1.3-19.2-6-22.6-17.1c-0.6-1.8-1.3-3.5-3-4.6c-0.4-4.5-0.8-8.9-3.1-13.1
	c-5.4-9.7-2.7-18.6,6.7-25.2c3.8-2.7,7.7-2.2,11.8-2.2c-3.6,4.2-5.6,9-6.4,14.4c-1,0.9-2,1.7-2.8,2.7c-2.7,3-3,6.3,0.1,9
	c3.2,2.7,6,0.5,8.4-1.8c1.8-1.7,3.1-3.8,2.6-6.6c2-1,4.1-2.4,6.3-0.8c2.8,2,5.9,1.8,9,2.1c1.3,3.9,4.2,6.3,8,5.6
	c3.5-0.6,6.7-2.9,5.6-7.5c1.2,0.3,2.5,0.1,2.9-1C296.8,232.6,300.9,228.9,301.5,223.6z M283,267.1c-6.2,3.3-13,2.2-20,2.6
	C270.5,278.2,278,277.1,283,267.1c0.4,0,0.7-0.1,1-0.2c-0.1-0.1-0.2-0.3-0.3-0.4C283.5,266.7,283.2,266.9,283,267.1z"/>
<path id="XMLID_112_" style="fill:none;stroke:#000000;stroke-width:0.3;stroke-miterlimit:10;" d="M254.8,235.8
	c0.8-5.4,2.8-10.2,6.4-14.4c12.6,0.3,25.3-1.5,38,0.3c-0.1,1.7,0.8,2.1,2.3,2c0,0,0.1,0,0.1,0c-0.6,5.3-4.7,9-6.6,13.7
	c-0.4,1.1-1.7,1.3-2.9,1c-1.9-2.8-4.6-4-7.9-4.3c-4.9-0.5-3.3,4.7-5.8,6.2c-3.1-0.3-6.3-0.1-9-2.1c-2.2-1.6-4.3-0.2-6.3,0.8
	C261.2,235.5,258.5,234.4,254.8,235.8z"/>
<path id="XMLID_111_" style="fill:none;stroke:#000000;stroke-width:0.3;stroke-miterlimit:10;" d="M301.4,223.6
	c-1.5,0.2-2.4-0.3-2.3-2C300.5,221.6,301.2,222.3,301.4,223.6z"/>
<path id="XMLID_110_" style="fill:none;stroke:#000000;stroke-width:0.3;stroke-miterlimit:10;" d="M335.4,415.2
	c1.9,0,3.8,0.1,5.8,0.1C339.2,417.9,337.3,416.5,335.4,415.2z"/>
<path id="XMLID_109_" style="fill:none;stroke:#000000;stroke-width:0.3;stroke-miterlimit:10;" d="M254.8,235.8
	c3.7-1.4,6.4-0.2,8.2,3.2c0.6,2.7-0.8,4.8-2.6,6.6c-2.4,2.3-5.2,4.6-8.4,1.8c-3-2.6-2.8-6-0.1-9
	C252.8,237.5,253.8,236.7,254.8,235.8z"/>
<path id="XMLID_108_" style="fill:none;stroke:#000000;stroke-width:0.3;stroke-miterlimit:10;" d="M278.2,240.3
	c2.5-1.5,0.9-6.7,5.8-6.2c3.4,0.3,6,1.5,7.9,4.3c1,4.7-2.1,6.9-5.7,7.5C282.4,246.5,279.5,244.1,278.2,240.3z"/>
<path id="XMLID_107_" style="fill:none;stroke:#000000;stroke-width:0.3;stroke-miterlimit:10;" d="M283,267.1
	c-5,10-12.6,11.1-20,2.5C270,269.3,276.8,270.4,283,267.1L283,267.1z"/>
<path id="XMLID_106_" style="fill:none;stroke:#000000;stroke-width:0.3;stroke-miterlimit:10;" d="M283,267.1
	c0.2-0.2,0.5-0.4,0.7-0.6c0.1,0.1,0.2,0.3,0.3,0.4C283.7,267,283.4,267,283,267.1C283,267.1,283,267.1,283,267.1z"/>
</svg>
